<?xml version="1.0" encoding="UTF-8" standalone="no"?>
<!-- Created with Inkscape (http://www.inkscape.org/) -->

<svg
   xmlns:dc="http://purl.org/dc/elements/1.1/"
   xmlns:cc="http://creativecommons.org/ns#"
   xmlns:rdf="http://www.w3.org/1999/02/22-rdf-syntax-ns#"
   xmlns:svg="http://www.w3.org/2000/svg"
   xmlns="http://www.w3.org/2000/svg"
   xmlns:sodipodi="http://sodipodi.sourceforge.net/DTD/sodipodi-0.dtd"
   xmlns:inkscape="http://www.inkscape.org/namespaces/inkscape"
   width="30mm"
   height="20mm"
   viewBox="0 0 106.29921 70.866141"
   id="svg10802"
   version="1.1"
   inkscape:version="0.91 r13725"
   sodipodi:docname="cartel.svg">
  <defs
     id="defs10804">
    <filter
       inkscape:collect="always"
       style="color-interpolation-filters:sRGB"
       id="filter4221"
       x="-0.057839245"
       width="1.1156785"
       y="-0.15336895"
       height="1.3067379">
      <feGaussianBlur
         inkscape:collect="always"
         stdDeviation="2.48463"
         id="feGaussianBlur4223" />
    </filter>
  </defs>
  <sodipodi:namedview
     id="base"
     pagecolor="#ffffff"
     bordercolor="#666666"
     borderopacity="1.0"
     inkscape:pageopacity="0.0"
     inkscape:pageshadow="2"
     inkscape:zoom="3.959798"
     inkscape:cx="77.345559"
     inkscape:cy="32.143425"
     inkscape:document-units="px"
     inkscape:current-layer="layer1"
     showgrid="false"
     inkscape:window-width="1366"
     inkscape:window-height="710"
     inkscape:window-x="0"
     inkscape:window-y="0"
     inkscape:window-maximized="1" />
  <metadata
     id="metadata10807">
    <rdf:RDF>
      <cc:Work
         rdf:about="">
        <dc:format>image/svg+xml</dc:format>
        <dc:type
           rdf:resource="http://purl.org/dc/dcmitype/StillImage" />
        <dc:title />
      </cc:Work>
    </rdf:RDF>
  </metadata>
  <g
     inkscape:label="Capa 1"
     inkscape:groupmode="layer"
     id="layer1"
     transform="translate(0,-981.49606)">
    <path
       style="font-style:normal;font-variant:normal;font-weight:normal;font-stretch:normal;font-size:33.42213821px;line-height:125%;font-family:'Stranded BRK';-inkscape-font-specification:'Stranded BRK';letter-spacing:0px;word-spacing:0px;fill:#0000ff;fill-opacity:1;stroke:none;stroke-width:1px;stroke-linecap:butt;stroke-linejoin:miter;stroke-opacity:1"
       d="M 17.167969 14.128906 C 15.883373 14.635573 14.570916 15.115026 13.230469 15.568359 C 11.890022 16.021693 10.660008 16.25 9.5429688 16.25 C 8.4445467 16.73 7.5802546 17.221849 6.9472656 17.728516 C 6.332894 18.235182 5.7547461 18.768125 5.2148438 19.328125 C 4.6749414 20.101458 4.1918703 20.848359 3.7636719 21.568359 C 3.3354735 22.261693 2.9717053 22.942708 2.6738281 23.609375 C 2.0780738 24.889375 1.6037291 26.582786 1.25 28.689453 C 1.0452095 31.222786 0.7658385 33.609609 0.41210938 35.849609 C 0.076997568 38.062943 0.35636852 40.328438 1.25 42.648438 C 3.2234362 46.008437 5.5214419 48.382865 8.1464844 49.769531 C 10.771527 51.182865 13.537104 52.263099 16.441406 53.009766 C 17.167482 52.743099 17.819347 52.662865 18.396484 52.769531 C 19.010856 52.849531 19.587051 52.754948 20.126953 52.488281 C 20.126953 50.701615 20.044509 49.088437 19.876953 47.648438 C 19.709397 46.181771 19.531876 44.675573 19.345703 43.128906 C 17.744613 43.128906 16.022802 42.783177 14.179688 42.089844 C 12.373807 41.423177 10.827564 40.581693 9.5429688 39.568359 C 9.0030664 38.848359 8.6499778 38.329766 8.4824219 38.009766 C 8.4824219 37.236432 8.4630159 36.421693 8.4257812 35.568359 C 8.4071639 34.715026 8.3615787 33.836354 8.2871094 32.929688 C 8.1754054 31.089688 8.4829088 29.67612 9.2089844 28.689453 C 9.5440962 28.39612 9.8884584 28.075182 10.242188 27.728516 C 10.614534 27.381849 11.004481 26.995026 11.414062 26.568359 L 16.859375 26.568359 C 16.859375 24.221693 16.906913 22.075573 17 20.128906 C 17.111704 18.155573 17.167969 16.155573 17.167969 14.128906 z M 101.72266 14.128906 C 100.40083 14.955573 99.042784 15.303255 97.646484 15.169922 C 96.306037 15.063255 95.049844 15.262865 93.876953 15.769531 C 94.081744 18.916198 94.257311 22.049922 94.40625 25.169922 C 94.555189 28.289922 94.695851 31.436042 94.826172 34.609375 C 95.068197 40.929375 94.899403 47.063099 94.322266 53.009766 C 95.495157 52.769766 96.6495 52.502318 97.785156 52.208984 C 98.93943 51.888984 100.00065 51.582396 100.96875 51.289062 L 103.31445 51.289062 C 103.40754 48.035729 103.39009 44.848516 103.25977 41.728516 C 103.14806 38.608516 102.90555 35.528281 102.5332 32.488281 C 101.80713 26.381615 101.53648 20.262239 101.72266 14.128906 z M 66.033203 21.048828 C 64.543817 21.288828 63.305077 21.955495 62.318359 23.048828 C 61.313024 24.168828 60.149955 24.823099 58.828125 25.009766 C 58.381309 26.049766 58.065079 26.928438 57.878906 27.648438 C 57.71135 28.341771 57.338856 28.889063 56.761719 29.289062 C 56.594163 30.382396 56.342924 31.102552 56.007812 31.449219 C 55.691318 31.769219 55.533203 32.343255 55.533203 33.169922 C 55.570438 33.383255 55.672288 33.675495 55.839844 34.048828 C 56.044634 34.182161 56.295873 34.315885 56.59375 34.449219 C 56.891627 34.582552 57.235989 34.743021 57.626953 34.929688 C 57.626953 36.023021 57.655086 37.062161 57.710938 38.048828 C 57.785407 39.008828 57.869804 39.969688 57.962891 40.929688 C 58.074595 41.863021 58.176445 42.795182 58.269531 43.728516 C 58.381235 44.635182 58.474359 45.569297 58.548828 46.529297 C 58.697767 47.62263 58.929599 48.381927 59.246094 48.808594 C 59.599823 49.23526 59.870467 49.782552 60.056641 50.449219 C 60.149727 50.635885 60.270983 50.835495 60.419922 51.048828 C 60.56886 51.262161 60.735702 51.488516 60.921875 51.728516 C 61.536247 52.368516 62.179386 52.689453 62.849609 52.689453 C 63.482598 52.689453 64.050067 52.796432 64.552734 53.009766 C 64.99955 52.609766 65.437036 52.434948 65.865234 52.488281 C 66.293433 52.541615 66.646521 52.568359 66.925781 52.568359 C 67.707709 51.288359 68.182053 49.79651 68.349609 48.089844 C 68.442696 47.23651 68.546499 46.43612 68.658203 45.689453 C 68.788524 44.91612 68.927233 44.195964 69.076172 43.529297 C 68.331479 43.34263 67.625302 43.262396 66.955078 43.289062 C 66.303472 43.342396 65.911571 42.702474 65.78125 41.369141 C 65.930189 40.089141 65.902056 38.702318 65.697266 37.208984 C 65.492475 35.688984 65.715581 34.489375 66.367188 33.609375 L 68.154297 33.609375 C 68.452174 32.969375 68.638421 32.356198 68.712891 31.769531 C 68.805977 31.156198 68.927233 30.635651 69.076172 30.208984 L 69.076172 27.568359 L 66.367188 27.568359 C 66.255484 27.381693 66.153633 27.182083 66.060547 26.96875 L 65.78125 26.328125 C 65.78125 25.448125 65.818109 24.528359 65.892578 23.568359 C 65.985665 22.608359 66.033203 21.768828 66.033203 21.048828 z M 77.921875 22.449219 C 77.307503 22.769219 76.768167 23.088203 76.302734 23.408203 C 75.837301 23.701536 75.408542 23.995729 75.017578 24.289062 C 74.645232 24.555729 74.300869 24.835573 73.984375 25.128906 C 73.667881 25.42224 73.351651 25.702083 73.035156 25.96875 L 72.029297 27.808594 C 71.694185 28.421927 71.360502 29.022708 71.025391 29.609375 C 70.392402 32.489375 70.169296 35.542865 70.355469 38.769531 C 70.541642 41.996198 71.174102 44.796589 72.253906 47.169922 C 72.458697 47.489922 72.662397 47.79651 72.867188 48.089844 C 73.071978 48.35651 73.268905 48.622005 73.455078 48.888672 L 74.683594 50.089844 C 75.111792 50.463177 75.538598 50.85 75.966797 51.25 C 76.357761 51.383333 76.712802 51.556198 77.029297 51.769531 C 77.364409 51.956198 77.661232 52.155807 77.921875 52.369141 C 78.44316 52.795807 79.001902 53.009766 79.597656 53.009766 C 80.714696 53.009766 81.812773 52.915182 82.892578 52.728516 C 83.972383 52.515182 85.044281 52.235339 86.105469 51.888672 C 87.166656 51.542005 88.208469 51.169531 89.232422 50.769531 C 90.274992 50.342865 91.316805 49.902552 92.359375 49.449219 L 92.359375 48.328125 C 91.931177 47.874792 91.513097 47.395339 91.103516 46.888672 C 90.693935 46.382005 90.275855 45.836667 89.847656 45.25 C 89.065729 44.13 88.255748 43.383099 87.417969 43.009766 C 86.691893 43.329766 86.011895 43.59526 85.378906 43.808594 C 84.764535 44.021927 84.160207 44.194792 83.564453 44.328125 C 82.987316 44.434792 82.409168 44.488281 81.832031 44.488281 C 81.273512 44.461615 80.686637 44.368984 80.072266 44.208984 L 80.072266 42.408203 C 81.189305 41.688203 82.250524 40.955651 83.255859 40.208984 C 84.279812 39.462318 85.247907 38.703021 86.160156 37.929688 C 88.003271 36.383021 90.069444 35.142318 92.359375 34.208984 C 92.415227 34.022318 92.471492 33.849453 92.527344 33.689453 C 92.583196 33.502786 92.648187 33.303177 92.722656 33.089844 C 91.773173 31.729844 90.889475 30.528281 90.070312 29.488281 C 89.25115 28.421615 88.488708 27.489453 87.78125 26.689453 C 87.073792 25.862786 86.309397 25.101536 85.490234 24.408203 C 84.671072 23.71487 83.804827 23.062552 82.892578 22.449219 L 77.921875 22.449219 z M 44.330078 22.769531 C 43.850682 22.782865 43.347 22.84875 42.816406 22.96875 C 42.611616 25.582083 42.470954 28.15612 42.396484 30.689453 C 42.340632 33.222786 42.32318 35.743333 42.341797 38.25 C 42.360414 40.73 42.414726 43.195104 42.507812 45.648438 C 42.600899 48.101771 42.704702 50.556432 42.816406 53.009766 C 44.212705 53.009766 45.598881 52.902786 46.976562 52.689453 C 48.372862 52.449453 49.685319 52.328125 50.914062 52.328125 C 50.914062 49.234792 50.803486 46.022786 50.580078 42.689453 C 50.35667 39.382787 50.467247 36.275807 50.914062 33.369141 C 51.267792 32.542474 51.789675 32.021927 52.478516 31.808594 C 53.167357 31.621927 53.706692 31.383177 54.097656 31.089844 C 54.507237 29.969844 54.63722 28.741536 54.488281 27.408203 C 54.339343 26.128203 54.480005 25.062318 54.908203 24.208984 C 54.647561 23.942318 54.376916 23.52875 54.097656 22.96875 C 53.259877 22.96875 52.599285 23.182708 52.115234 23.609375 C 51.612567 24.009375 51.073231 24.208984 50.496094 24.208984 C 50.328538 24.528984 50.179149 24.835573 50.048828 25.128906 C 49.937124 25.395573 49.815868 25.648672 49.685547 25.888672 C 49.517991 25.542005 49.368603 25.169531 49.238281 24.769531 C 49.10796 24.369531 48.986704 23.968359 48.875 23.568359 C 48.260628 23.435026 47.684434 23.315651 47.144531 23.208984 C 46.623246 23.075651 46.138222 22.968672 45.691406 22.888672 C 45.263208 22.795339 44.809474 22.756198 44.330078 22.769531 z M 34.066406 23.099609 C 33.112268 23.092943 32.18419 23.209219 31.28125 23.449219 C 29.512604 23.929219 27.69767 24.408672 25.835938 24.888672 C 25.165714 25.635339 24.78254 26.676432 24.689453 28.009766 C 24.596367 29.316432 24.308269 30.221849 23.824219 30.728516 C 24.550294 30.728516 25.277831 30.66263 26.003906 30.529297 C 26.748599 30.395964 27.511041 30.196354 28.292969 29.929688 C 29.838207 29.396354 31.280647 29.488984 32.621094 30.208984 C 32.78865 30.448984 32.957444 30.702083 33.125 30.96875 C 33.292556 31.20875 33.468124 31.449453 33.654297 31.689453 C 33.691532 31.849453 33.72839 32.049063 33.765625 32.289062 C 33.821477 32.529062 33.877742 32.808906 33.933594 33.128906 C 33.896359 33.368906 33.850774 33.609609 33.794922 33.849609 C 33.757687 34.089609 33.710149 34.328359 33.654297 34.568359 C 32.704813 34.221693 31.736718 33.982943 30.75 33.849609 C 29.781899 33.689609 28.796351 33.63612 27.791016 33.689453 C 25.780345 33.79612 24.010995 34.582161 22.484375 36.048828 C 21.944473 36.502161 21.619516 37.156432 21.507812 38.009766 C 21.451961 38.436432 21.385016 38.85 21.310547 39.25 C 21.254695 39.65 21.189704 40.03487 21.115234 40.408203 C 21.115234 41.39487 21.162773 42.421615 21.255859 43.488281 C 21.367563 44.554948 21.423828 45.462318 21.423828 46.208984 C 21.777557 47.408984 22.083107 48.248516 22.34375 48.728516 C 22.585775 49.208516 22.977676 49.809297 23.517578 50.529297 C 24.206419 51.06263 24.914549 51.461849 25.640625 51.728516 C 26.385318 51.995182 27.017777 52.26263 27.539062 52.529297 C 28.693337 52.769297 29.661432 52.489453 30.443359 51.689453 C 31.243904 50.862786 32.071338 50.34224 32.927734 50.128906 C 33.151142 49.78224 33.348069 49.49 33.515625 49.25 L 33.933594 48.648438 L 34.939453 48.648438 L 35.107422 49.849609 L 35.330078 51.048828 C 35.832746 51.048828 36.335223 51.009687 36.837891 50.929688 C 37.340558 50.823021 37.825583 50.716042 38.291016 50.609375 C 38.775066 50.476042 39.240684 50.369062 39.6875 50.289062 C 40.152933 50.182396 40.599145 50.128906 41.027344 50.128906 C 40.952874 48.288906 40.905336 46.529609 40.886719 44.849609 C 40.868101 43.142943 40.859375 41.449531 40.859375 39.769531 C 40.859375 38.089531 40.850649 36.422865 40.832031 34.769531 C 40.832031 33.089531 40.803899 31.39612 40.748047 29.689453 C 40.543256 28.489453 40.244479 27.662318 39.853516 27.208984 C 39.462552 26.702318 39.183181 26.074792 39.015625 25.328125 C 38.643279 25.008125 38.29019 24.701536 37.955078 24.408203 C 37.638584 24.088203 37.322354 23.781615 37.005859 23.488281 C 36.000524 23.234948 35.020544 23.106276 34.066406 23.099609 z M 78.84375 32.648438 C 79.12301 32.648438 79.421787 32.689531 79.738281 32.769531 C 80.054776 32.822865 80.42727 32.929844 80.855469 33.089844 C 80.464505 33.99651 79.868904 34.889531 79.068359 35.769531 C 78.267815 36.649531 77.336578 37.528203 76.275391 38.408203 L 76.275391 37.048828 C 76.275391 36.568828 76.264711 36.06263 76.246094 35.529297 C 76.246094 34.46263 76.553597 33.649844 77.167969 33.089844 C 77.465846 32.929844 77.745217 32.822865 78.005859 32.769531 C 78.285119 32.689531 78.56449 32.648438 78.84375 32.648438 z M 31.253906 38.929688 C 31.570401 39.009687 31.895357 39.089922 32.230469 39.169922 C 32.584198 39.249922 32.92856 39.328203 33.263672 39.408203 L 33.765625 40.929688 C 33.933181 41.409687 34.110702 41.889141 34.296875 42.369141 C 34.166554 42.635807 34.045298 42.888906 33.933594 43.128906 C 33.840507 43.368906 33.747383 43.59526 33.654297 43.808594 C 33.133012 44.048594 32.649941 44.128828 32.203125 44.048828 C 31.774927 43.968828 31.244317 44.049063 30.611328 44.289062 C 30.090043 44.289062 29.726275 43.822005 29.521484 42.888672 C 29.335311 42.008672 29.242188 41.181536 29.242188 40.408203 L 30.248047 39.689453 C 30.583159 39.422786 30.918794 39.169687 31.253906 38.929688 z "
       transform="translate(0,981.49606)"
       id="text11354" />
    <path
       id="path4143"
       d="m 19.167969,997.62497 c -1.284596,0.50663 -2.597053,0.98613 -3.9375,1.43943 -1.340447,0.4533 -2.570461,0.6817 -3.6875,0.6817 -1.098422,0.48 -1.962714,0.9718 -2.595703,1.4785 -0.614372,0.5066 -1.1925199,1.0396 -1.7324222,1.5996 -0.5399024,0.7733 -1.0229735,1.5202 -1.4511719,2.2402 -0.4281984,0.6934 -0.7919666,1.3744 -1.0898438,2.041 -0.5957543,1.28 -1.070099,2.9734 -1.4238281,5.0801 -0.2047905,2.5333 -0.4841615,4.9202 -0.8378906,7.1602 -0.3351118,2.2133 -0.055741,4.4788 0.8378906,6.7988 1.9734362,3.36 4.2714419,5.7344 6.896484,7.1211 2.625043,1.4133 5.39062,2.4936 8.294922,3.2402 0.726076,-0.2666 1.377941,-0.3469 1.955078,-0.2402 0.614372,0.08 1.190567,-0.015 1.730469,-0.2813 0,-1.7866 -0.08244,-3.3998 -0.25,-4.8398 -0.167556,-1.4667 -0.345077,-2.9729 -0.53125,-4.5195 -1.60109,0 -3.322901,-0.3458 -5.166015,-1.0391 -1.805881,-0.6667 -3.352124,-1.5081 -4.636719,-2.5215 -0.539903,-0.72 -0.892991,-1.2386 -1.060547,-1.5586 0,-0.7733 -0.01941,-1.588 -0.05664,-2.4414 -0.01862,-0.8533 -0.0642,-1.732 -0.138672,-2.6387 -0.111704,-1.84 0.1958,-3.2535 0.921875,-4.2402 0.335112,-0.2933 0.679474,-0.6143 1.033204,-0.9609 0.372346,-0.3467 0.762293,-0.7335 1.171874,-1.1602 l 5.445313,0 c 0,-2.3466 0.04754,-4.4928 0.140625,-6.4394 0.111704,-1.9734 0.167969,-3.9734 0.167969,-6.00003 z m 84.554691,0 c -1.32183,0.82663 -2.67988,1.17433 -4.07618,1.04103 -1.34044,-0.1067 -2.596636,0.093 -3.769527,0.5996 0.204791,3.1467 0.380358,6.2804 0.529297,9.4004 0.148939,3.12 0.289601,6.2661 0.419922,9.4394 0.242025,6.32 0.07323,12.4538 -0.503906,18.4004 1.172891,-0.24 2.327234,-0.5074 3.462894,-0.8008 1.15427,-0.32 2.21549,-0.6265 3.18359,-0.9199 l 2.3457,0 c 0.0931,-3.2533 0.0756,-6.4405 -0.0547,-9.5605 -0.11171,-3.12 -0.35422,-6.2003 -0.72657,-9.2403 -0.72607,-6.1066 -0.99672,-12.226 -0.81054,-18.35933 z m -35.689457,6.91993 c -1.489386,0.24 -2.728126,0.9067 -3.714844,2 -1.005335,1.12 -2.168404,1.7743 -3.490234,1.9609 -0.446816,1.04 -0.763046,1.9187 -0.949219,2.6387 -0.167556,0.6933 -0.54005,1.2406 -1.117187,1.6406 -0.167556,1.0934 -0.418795,1.8135 -0.753907,2.1602 -0.316494,0.32 -0.474609,0.894 -0.474609,1.7207 0.03724,0.2133 0.139085,0.5056 0.306641,0.8789 0.20479,0.1333 0.456029,0.267 0.753906,0.4004 0.297877,0.1333 0.642239,0.2938 1.033203,0.4804 0,1.0934 0.02813,2.1325 0.08398,3.1192 0.07447,0.96 0.158866,1.9208 0.251953,2.8808 0.111704,0.9334 0.213554,1.8655 0.30664,2.7989 0.111704,0.9066 0.204828,1.8408 0.279297,2.8008 0.148939,1.0933 0.380771,1.8526 0.697266,2.2793 0.353729,0.4266 0.624373,0.9739 0.810547,1.6406 0.09309,0.1866 0.214342,0.3863 0.363281,0.5996 0.148938,0.2133 0.31578,0.4397 0.501953,0.6797 0.614372,0.64 1.257511,0.9609 1.927734,0.9609 0.632989,0 1.200458,0.107 1.703125,0.3203 0.446816,-0.4 0.884302,-0.5748 1.3125,-0.5215 0.428199,0.053 0.781287,0.08 1.060547,0.08 0.781928,-1.28 1.256272,-2.7718 1.423828,-4.4785 0.09309,-0.8533 0.19689,-1.6537 0.308594,-2.4004 0.130321,-0.7733 0.26903,-1.4935 0.417969,-2.1601 -0.744693,-0.1867 -1.45087,-0.2669 -2.121094,-0.2403 -0.651606,0.053 -1.043507,-0.5866 -1.173828,-1.9199 0.148939,-1.28 0.120806,-2.6668 -0.08398,-4.1602 -0.204791,-1.52 0.01832,-2.7196 0.669922,-3.5996 l 1.787109,0 c 0.297877,-0.64 0.484124,-1.2531 0.558594,-1.8398 0.09309,-0.6133 0.214342,-1.1339 0.363281,-1.5606 l 0,-2.6406 -2.708984,0 c -0.111704,-0.1866 -0.213555,-0.3863 -0.306641,-0.5996 l -0.279297,-0.6406 c 0,-0.88 0.03686,-1.7998 0.111328,-2.7598 0.09309,-0.96 0.140625,-1.7995 0.140625,-2.5195 z m 11.888672,1.4004 c -0.614372,0.32 -1.153708,0.639 -1.619141,0.959 -0.465433,0.2933 -0.894192,0.5875 -1.285156,0.8808 -0.372346,0.2667 -0.716709,0.5465 -1.033203,0.8399 -0.316494,0.2933 -0.632724,0.5731 -0.949219,0.8398 l -1.005859,1.8399 c -0.335112,0.6133 -0.668795,1.2141 -1.003906,1.8007 -0.632989,2.88 -0.856095,5.9335 -0.669922,9.1602 0.186173,3.2267 0.818633,6.027 1.898437,8.4004 0.204791,0.32 0.408491,0.6266 0.613282,0.9199 0.20479,0.2667 0.401717,0.5322 0.58789,0.7988 l 1.228516,1.2012 c 0.428198,0.3733 0.855004,0.7602 1.283203,1.1602 0.390964,0.1333 0.746005,0.3062 1.0625,0.5195 0.335112,0.1867 0.631935,0.3863 0.892578,0.5996 0.521285,0.4267 1.080027,0.6406 1.675781,0.6406 1.11704,0 2.215117,-0.095 3.294922,-0.2812 1.079805,-0.2134 2.151703,-0.4932 3.212891,-0.8399 1.061187,-0.3466 2.103,-0.7191 3.126953,-1.1191 1.04257,-0.4267 2.084383,-0.867 3.126953,-1.3203 l 0,-1.1211 c -0.428198,-0.4533 -0.846278,-0.9328 -1.255859,-1.4395 -0.409581,-0.5066 -0.827661,-1.052 -1.25586,-1.6386 -0.781927,-1.12 -1.591908,-1.8669 -2.429687,-2.2403 -0.726076,0.32 -1.406074,0.5855 -2.039063,0.7989 -0.614371,0.2133 -1.218699,0.3862 -1.814453,0.5195 -0.577137,0.1067 -1.155285,0.1601 -1.732422,0.1601 -0.558519,-0.027 -1.145394,-0.1193 -1.759765,-0.2793 l 0,-1.8007 c 1.117039,-0.72 2.178258,-1.4526 3.183593,-2.1993 1.023953,-0.7466 1.992048,-1.5059 2.904297,-2.2793 1.843115,-1.5466 3.909288,-2.7873 6.199219,-3.7207 0.05585,-0.1866 0.112117,-0.3595 0.167969,-0.5195 0.05585,-0.1867 0.120843,-0.3863 0.195312,-0.5996 -0.949483,-1.36 -1.833181,-2.5616 -2.652344,-3.6016 -0.819162,-1.0666 -1.581604,-1.9988 -2.289062,-2.7988 -0.707458,-0.8267 -1.471853,-1.5879 -2.291016,-2.2812 -0.819162,-0.6934 -1.685407,-1.3457 -2.597656,-1.959 l -4.970703,0 z m -33.591797,0.3203 c -0.479396,0.013 -0.983078,0.079 -1.513672,0.1992 -0.20479,2.6133 -0.345452,5.1874 -0.419922,7.7207 -0.05585,2.5333 -0.0733,5.0539 -0.05469,7.5606 0.01862,2.48 0.07293,4.9451 0.166015,7.3984 0.09309,2.4533 0.19689,4.908 0.308594,7.3613 1.396299,0 2.782475,-0.107 4.160156,-0.3203 1.3963,-0.24 2.708757,-0.3613 3.9375,-0.3613 0,-3.0933 -0.110576,-6.3054 -0.333984,-9.6387 -0.223408,-3.3067 -0.112831,-6.4136 0.333984,-9.3203 0.35373,-0.8267 0.875613,-1.3472 1.564454,-1.5605 0.688841,-0.1867 1.228176,-0.4255 1.61914,-0.7188 0.409581,-1.12 0.539564,-2.3483 0.390625,-3.6816 -0.148938,-1.28 -0.0083,-2.3459 0.419922,-3.1993 -0.260642,-0.2666 -0.531287,-0.6802 -0.810547,-1.2402 -0.837779,0 -1.498371,0.214 -1.982422,0.6406 -0.502667,0.4 -1.042003,0.5996 -1.61914,0.5996 -0.167556,0.32 -0.316945,0.6266 -0.447266,0.92 -0.111704,0.2666 -0.23296,0.5197 -0.363281,0.7597 -0.167556,-0.3466 -0.316944,-0.7191 -0.447266,-1.1191 -0.130321,-0.4 -0.251577,-0.8012 -0.363281,-1.2012 -0.614372,-0.1333 -1.190566,-0.2527 -1.730469,-0.3594 -0.521285,-0.1333 -1.006309,-0.2403 -1.453125,-0.3203 -0.428198,-0.093 -0.881932,-0.1324 -1.361328,-0.1191 z m -10.263672,0.3301 c -0.954138,-0.01 -1.882216,0.1096 -2.785156,0.3496 -1.768646,0.48 -3.58358,0.9594 -5.445312,1.4394 -0.670224,0.7467 -1.053398,1.7878 -1.146485,3.1211 -0.09309,1.3067 -0.381184,2.2121 -0.865234,2.7188 0.726075,0 1.453612,-0.066 2.179687,-0.1992 0.744693,-0.1334 1.507135,-0.333 2.289063,-0.5997 1.545238,-0.5333 2.987678,-0.4407 4.328125,0.2793 0.167556,0.24 0.33635,0.4931 0.503906,0.7598 0.167556,0.24 0.343124,0.4807 0.529297,0.7207 0.03724,0.16 0.07409,0.3596 0.111328,0.5996 0.05585,0.24 0.112117,0.5199 0.167969,0.8399 -0.03724,0.24 -0.08282,0.4807 -0.138672,0.7207 -0.03724,0.24 -0.08477,0.4787 -0.140625,0.7187 -0.949484,-0.3466 -1.917579,-0.5854 -2.904297,-0.7187 -0.968101,-0.16 -1.953649,-0.2135 -2.958984,-0.1602 -2.010671,0.1067 -3.780021,0.8927 -5.306641,2.3594 -0.539902,0.4533 -0.864859,1.1076 -0.976563,1.9609 -0.05585,0.4267 -0.122796,0.8403 -0.197265,1.2403 -0.05585,0.4 -0.120843,0.7848 -0.195313,1.1582 0,0.9866 0.04754,2.0134 0.140625,3.08 0.111704,1.0667 0.167969,1.9741 0.167969,2.7207 0.353729,1.2 0.659279,2.0396 0.919922,2.5196 0.242025,0.48 0.633926,1.0808 1.173828,1.8008 0.688841,0.5333 1.396971,0.9325 2.123047,1.1992 0.744693,0.2666 1.377152,0.5341 1.898437,0.8008 1.154275,0.24 2.12237,-0.04 2.904297,-0.8399 0.800545,-0.8267 1.627979,-1.3472 2.484375,-1.5605 0.223408,-0.3467 0.420335,-0.6389 0.587891,-0.8789 l 0.417969,-0.6016 1.005859,0 0.167969,1.2012 0.222656,1.1992 c 0.502668,0 1.005145,-0.039 1.507813,-0.1192 0.502667,-0.1066 0.987692,-0.2136 1.453125,-0.3203 0.48405,-0.1333 0.949668,-0.2403 1.396484,-0.3203 0.465433,-0.1066 0.911645,-0.1601 1.339844,-0.1601 -0.07447,-1.84 -0.122008,-3.5993 -0.140625,-5.2793 -0.01862,-1.7067 -0.02734,-3.4001 -0.02734,-5.0801 0,-1.68 -0.0087,-3.3467 -0.02734,-5 0,-1.68 -0.02813,-3.3734 -0.08398,-5.0801 -0.204791,-1.2 -0.503568,-2.0271 -0.894531,-2.4805 -0.390964,-0.5066 -0.670335,-1.1341 -0.837891,-1.8808 -0.372346,-0.32 -0.725435,-0.6266 -1.060547,-0.9199 -0.316494,-0.32 -0.632724,-0.6266 -0.949219,-0.92 -1.005335,-0.2533 -1.985315,-0.382 -2.939453,-0.3886 z m 44.777344,9.5488 c 0.27926,0 0.578037,0.041 0.894531,0.1211 0.316495,0.053 0.688989,0.1603 1.117188,0.3203 -0.390964,0.9067 -0.986565,1.7997 -1.78711,2.6797 -0.800544,0.88 -1.731781,1.7587 -2.792968,2.6387 l 0,-1.3594 c 0,-0.48 -0.01068,-0.9862 -0.0293,-1.5195 0,-1.0667 0.307503,-1.8795 0.921875,-2.4395 0.297877,-0.16 0.577248,-0.267 0.83789,-0.3203 0.27926,-0.08 0.558631,-0.1211 0.837891,-0.1211 z m -47.589844,6.2812 c 0.316495,0.08 0.641451,0.1603 0.976563,0.2403 0.353729,0.08 0.698091,0.1583 1.033203,0.2383 l 0.501953,1.5214 c 0.167556,0.48 0.345077,0.9595 0.53125,1.4395 -0.130321,0.2667 -0.251577,0.5198 -0.363281,0.7598 -0.09309,0.24 -0.186211,0.4663 -0.279297,0.6797 -0.521285,0.24 -1.004356,0.3202 -1.451172,0.2402 -0.428198,-0.08 -0.958808,2e-4 -1.591797,0.2402 -0.521285,0 -0.885053,-0.467 -1.089844,-1.4004 -0.186173,-0.88 -0.279296,-1.7071 -0.279296,-2.4804 l 1.005859,-0.7188 c 0.335112,-0.2667 0.670747,-0.5198 1.005859,-0.7598 z"
       style="font-style:normal;font-variant:normal;font-weight:normal;font-stretch:normal;font-size:33.42213821px;line-height:125%;font-family:'Stranded BRK';-inkscape-font-specification:'Stranded BRK';letter-spacing:0px;word-spacing:0px;opacity:0.68999999;fill:#000000;fill-opacity:1;stroke:none;stroke-width:1px;stroke-linecap:butt;stroke-linejoin:miter;stroke-opacity:1;filter:url(#filter4221)"
       inkscape:connector-curvature="0" />
  </g>
</svg>
