<?xml version="1.0" encoding="UTF-8" standalone="no"?>
<!-- Created with Inkscape (http://www.inkscape.org/) -->

<svg
   xmlns:dc="http://purl.org/dc/elements/1.1/"
   xmlns:cc="http://creativecommons.org/ns#"
   xmlns:rdf="http://www.w3.org/1999/02/22-rdf-syntax-ns#"
   xmlns:svg="http://www.w3.org/2000/svg"
   xmlns="http://www.w3.org/2000/svg"
   xmlns:sodipodi="http://sodipodi.sourceforge.net/DTD/sodipodi-0.dtd"
   xmlns:inkscape="http://www.inkscape.org/namespaces/inkscape"
   width="115mm"
   height="115mm"
   viewBox="0 0 407.48032 407.48031"
   id="svg5454"
   version="1.1"
   inkscape:version="0.91 r13725"
   sodipodi:docname="CTIFOESTE.svg">
  <defs
     id="defs5456" />
  <sodipodi:namedview
     id="base"
     pagecolor="#ffffff"
     bordercolor="#666666"
     borderopacity="1.0"
     inkscape:pageopacity="0.0"
     inkscape:pageshadow="2"
     inkscape:zoom="0.98994949"
     inkscape:cx="53.402196"
     inkscape:cy="176.34607"
     inkscape:document-units="px"
     inkscape:current-layer="layer1"
     showgrid="false"
     inkscape:window-width="1366"
     inkscape:window-height="710"
     inkscape:window-x="0"
     inkscape:window-y="0"
     inkscape:window-maximized="1" />
  <metadata
     id="metadata5459">
    <rdf:RDF>
      <cc:Work
         rdf:about="">
        <dc:format>image/svg+xml</dc:format>
        <dc:type
           rdf:resource="http://purl.org/dc/dcmitype/StillImage" />
        <dc:title />
      </cc:Work>
    </rdf:RDF>
  </metadata>
  <g
     inkscape:label="Capa 1"
     inkscape:groupmode="layer"
     id="layer1"
     transform="translate(0,-644.88189)">
    <g
       id="g4148">
      <path
         d="M 402.7244,847.67841 A 200,200 0 0 1 202.8902,1047.6783 200,200 0 0 1 2.7246707,848.01002 200,200 0 0 1 202.22698,647.67902 200,200 0 0 1 402.7233,847.01519"
         sodipodi:open="true"
         sodipodi:end="6.2798692"
         sodipodi:start="0"
         sodipodi:ry="200"
         sodipodi:rx="200"
         sodipodi:cy="847.67841"
         sodipodi:cx="202.7244"
         sodipodi:type="arc"
         id="path6013"
         style="opacity:1;fill:#dc0000;fill-opacity:1;stroke:none;stroke-width:0.30000001;stroke-linecap:round;stroke-miterlimit:4;stroke-dasharray:none;stroke-dashoffset:0;stroke-opacity:1" />
      <g
         transform="matrix(1.2189558,0,0,1.2189558,433.05635,-69.309685)"
         id="g6033">
        <path
           sodipodi:type="star"
           style="opacity:1;fill:#ffffff;fill-opacity:1;stroke:none;stroke-width:0.24000001;stroke-linecap:round;stroke-miterlimit:4;stroke-dasharray:none;stroke-dashoffset:0;stroke-opacity:1"
           id="path4646"
           sodipodi:sides="5"
           sodipodi:cx="152.52907"
           sodipodi:cy="63.761627"
           sodipodi:r1="28.750011"
           sodipodi:r2="10.010768"
           sodipodi:arg1="0.93372602"
           sodipodi:arg2="1.5620445"
           inkscape:flatsided="false"
           inkscape:rounded="0"
           inkscape:randomized="0"
           d="M 169.63081,86.872091 152.61668,73.772012 135.83444,87.167877 143.0357,66.93833 125.10948,55.117021 l 21.46475,0.597532 5.70323,-20.701836 6.06469,20.598842 21.451,-0.973129 -17.71657,12.133253 z"
           inkscape:transform-center-x="-0.79481588"
           inkscape:transform-center-y="0.72797356"
           transform="matrix(0.86948438,0,0,0.81237398,-407.10663,611.23333)" />
        <path
           transform="matrix(0.86948438,0,0,0.81237398,-350.96379,611.23333)"
           inkscape:transform-center-y="0.72797356"
           inkscape:transform-center-x="-0.79481577"
           d="M 169.63081,86.872091 152.61668,73.772012 135.83444,87.167877 143.0357,66.93833 125.10948,55.117021 l 21.46475,0.597532 5.70323,-20.701836 6.06469,20.598842 21.451,-0.973129 -17.71657,12.133253 z"
           inkscape:randomized="0"
           inkscape:rounded="0"
           inkscape:flatsided="false"
           sodipodi:arg2="1.5620445"
           sodipodi:arg1="0.93372602"
           sodipodi:r2="10.010768"
           sodipodi:r1="28.750011"
           sodipodi:cy="63.761627"
           sodipodi:cx="152.52907"
           sodipodi:sides="5"
           id="path4924"
           style="opacity:1;fill:#ffffff;fill-opacity:1;stroke:none;stroke-width:0.24000001;stroke-linecap:round;stroke-miterlimit:4;stroke-dasharray:none;stroke-dashoffset:0;stroke-opacity:1"
           sodipodi:type="star" />
        <path
           sodipodi:type="star"
           style="opacity:1;fill:#ffffff;fill-opacity:1;stroke:none;stroke-width:0.24000001;stroke-linecap:round;stroke-miterlimit:4;stroke-dasharray:none;stroke-dashoffset:0;stroke-opacity:1"
           id="path4926"
           sodipodi:sides="5"
           sodipodi:cx="152.52907"
           sodipodi:cy="63.761627"
           sodipodi:r1="28.750011"
           sodipodi:r2="10.010768"
           sodipodi:arg1="0.93372602"
           sodipodi:arg2="1.5620445"
           inkscape:flatsided="false"
           inkscape:rounded="0"
           inkscape:randomized="0"
           d="M 169.63081,86.872091 152.61668,73.772012 135.83444,87.167877 143.0357,66.93833 125.10948,55.117021 l 21.46475,0.597532 5.70323,-20.701836 6.06469,20.598842 21.451,-0.973129 -17.71657,12.133253 z"
           inkscape:transform-center-x="-0.7948166"
           inkscape:transform-center-y="0.72797379"
           transform="matrix(0.86948438,0,0,0.81237398,-379.32165,650.47602)" />
        <path
           transform="matrix(0.86948438,0,0,0.81237398,-322.3195,650.47602)"
           inkscape:transform-center-y="0.72797379"
           inkscape:transform-center-x="-0.79481617"
           d="M 169.63081,86.872091 152.61668,73.772012 135.83444,87.167877 143.0357,66.93833 125.10948,55.117021 l 21.46475,0.597532 5.70323,-20.701836 6.06469,20.598842 21.451,-0.973129 -17.71657,12.133253 z"
           inkscape:randomized="0"
           inkscape:rounded="0"
           inkscape:flatsided="false"
           sodipodi:arg2="1.5620445"
           sodipodi:arg1="0.93372602"
           sodipodi:r2="10.010768"
           sodipodi:r1="28.750011"
           sodipodi:cy="63.761627"
           sodipodi:cx="152.52907"
           sodipodi:sides="5"
           id="path4928"
           style="opacity:1;fill:#ffffff;fill-opacity:1;stroke:none;stroke-width:0.24000001;stroke-linecap:round;stroke-miterlimit:4;stroke-dasharray:none;stroke-dashoffset:0;stroke-opacity:1"
           sodipodi:type="star" />
        <path
           sodipodi:type="star"
           style="opacity:1;fill:#ffffff;fill-opacity:1;stroke:none;stroke-width:0.24000001;stroke-linecap:round;stroke-miterlimit:4;stroke-dasharray:none;stroke-dashoffset:0;stroke-opacity:1"
           id="path4930"
           sodipodi:sides="5"
           sodipodi:cx="152.52907"
           sodipodi:cy="63.761627"
           sodipodi:r1="28.750011"
           sodipodi:r2="10.010768"
           sodipodi:arg1="0.93372602"
           sodipodi:arg2="1.5620445"
           inkscape:flatsided="false"
           inkscape:rounded="0"
           inkscape:randomized="0"
           d="M 169.63081,86.872091 152.61668,73.772012 135.83444,87.167877 143.0357,66.93833 125.10948,55.117021 l 21.46475,0.597532 5.70323,-20.701836 6.06469,20.598842 21.451,-0.973129 -17.71657,12.133253 z"
           inkscape:transform-center-x="-0.79481411"
           inkscape:transform-center-y="0.72797384"
           transform="matrix(0.86948438,0,0,0.81237398,-294.24809,611.51978)" />
        <path
           transform="matrix(0.86948438,0,0,0.81237398,-266.4631,650.76247)"
           inkscape:transform-center-y="0.72797406"
           inkscape:transform-center-x="-0.7948119"
           d="M 169.63081,86.872091 152.61668,73.772012 135.83444,87.167877 143.0357,66.93833 125.10948,55.117021 l 21.46475,0.597532 5.70323,-20.701836 6.06469,20.598842 21.451,-0.973129 -17.71657,12.133253 z"
           inkscape:randomized="0"
           inkscape:rounded="0"
           inkscape:flatsided="false"
           sodipodi:arg2="1.5620445"
           sodipodi:arg1="0.93372602"
           sodipodi:r2="10.010768"
           sodipodi:r1="28.750011"
           sodipodi:cy="63.761627"
           sodipodi:cx="152.52907"
           sodipodi:sides="5"
           id="path4932"
           style="opacity:1;fill:#ffffff;fill-opacity:1;stroke:none;stroke-width:0.24000001;stroke-linecap:round;stroke-miterlimit:4;stroke-dasharray:none;stroke-dashoffset:0;stroke-opacity:1"
           sodipodi:type="star" />
        <path
           sodipodi:type="star"
           style="opacity:1;fill:#ffffff;fill-opacity:1;stroke:none;stroke-width:0.24000001;stroke-linecap:round;stroke-miterlimit:4;stroke-dasharray:none;stroke-dashoffset:0;stroke-opacity:1"
           id="path4934"
           sodipodi:sides="5"
           sodipodi:cx="152.52907"
           sodipodi:cy="63.761627"
           sodipodi:r1="28.750011"
           sodipodi:r2="10.010768"
           sodipodi:arg1="0.93372602"
           sodipodi:arg2="1.5620445"
           inkscape:flatsided="false"
           inkscape:rounded="0"
           inkscape:randomized="0"
           d="M 169.63081,86.872091 152.61668,73.772012 135.83444,87.167877 143.0357,66.93833 125.10948,55.117021 l 21.46475,0.597532 5.70323,-20.701836 6.06469,20.598842 21.451,-0.973129 -17.71657,12.133253 z"
           inkscape:transform-center-x="-0.79481829"
           inkscape:transform-center-y="0.72797411"
           transform="matrix(0.86948438,0,0,0.81237398,-237.8188,611.80622)" />
      </g>
      <path
         id="text6042"
         transform="translate(0,644.88189)"
         d="M 86.220703 189.47266 C 85.500703 189.47266 84.753802 189.68466 83.980469 190.11133 C 83.233802 190.51133 82.540391 191.03187 81.900391 191.67188 C 81.287057 192.28521 80.76651 192.97862 80.339844 193.75195 C 79.939844 194.49862 79.740234 195.21878 79.740234 195.91211 L 79.740234 213.11133 C 79.740234 213.88466 79.954193 214.65831 80.380859 215.43164 C 80.834193 216.20497 81.39388 216.89839 82.060547 217.51172 C 82.75388 218.12505 83.500781 218.63125 84.300781 219.03125 C 85.127448 219.40458 85.91349 219.5918 86.660156 219.5918 L 103.09961 219.5918 C 103.81961 219.5918 104.58086 219.47242 105.38086 219.23242 C 106.18086 218.96576 106.91341 218.60568 107.58008 218.15234 C 108.24674 217.69901 108.79404 217.13932 109.2207 216.47266 C 109.67404 215.80599 109.90039 215.07148 109.90039 214.27148 C 109.90039 213.49815 109.75427 212.79234 109.46094 212.15234 C 109.1676 211.48568 108.76643 210.92599 108.25977 210.47266 C 107.7531 209.99266 107.16667 209.63258 106.5 209.39258 C 105.83333 209.12591 105.12753 208.99219 104.38086 208.99219 C 103.50086 208.99219 102.63458 209.11156 101.78125 209.35156 C 100.92792 209.59156 100.19341 210.07102 99.580078 210.79102 C 99.366745 211.03102 99.259766 211.31281 99.259766 211.63281 C 99.259766 211.92615 99.126042 212.17924 98.859375 212.39258 C 98.459375 212.71258 98.006667 212.96568 97.5 213.15234 C 97.02 213.31234 96.513802 213.43172 95.980469 213.51172 C 95.473802 213.59172 94.953255 213.64521 94.419922 213.67188 C 93.886589 213.69854 93.380391 213.71289 92.900391 213.71289 L 91.060547 213.71289 C 90.39388 213.57956 89.727214 213.32451 89.060547 212.95117 C 88.39388 212.57784 87.793099 212.12513 87.259766 211.5918 C 86.726432 211.05846 86.28612 210.45768 85.939453 209.79102 C 85.619453 209.12435 85.460938 208.41854 85.460938 207.67188 L 85.460938 201.35156 C 85.460938 201.11156 85.514427 200.81932 85.621094 200.47266 C 85.72776 200.09932 85.820391 199.80513 85.900391 199.5918 C 86.513724 198.1518 87.421094 197.05917 88.621094 196.3125 C 89.821094 195.56583 91.193568 195.19141 92.740234 195.19141 C 93.246901 195.19141 93.833333 195.20576 94.5 195.23242 C 95.193333 195.25909 95.86 195.35172 96.5 195.51172 C 97.14 195.67172 97.714036 195.91242 98.220703 196.23242 C 98.72737 196.55242 99.087448 196.99273 99.300781 197.55273 C 99.300781 197.5794 99.327526 197.67203 99.380859 197.83203 C 99.460859 197.96536 99.526745 198.05799 99.580078 198.11133 C 99.820078 198.51133 100.12667 198.83227 100.5 199.07227 C 100.87333 199.31227 101.27451 199.49948 101.70117 199.63281 C 102.15451 199.73948 102.60721 199.81776 103.06055 199.87109 C 103.54055 199.89776 103.98086 199.91211 104.38086 199.91211 C 105.15419 199.91211 105.87435 199.79273 106.54102 199.55273 C 107.20768 199.31273 107.79411 198.9794 108.30078 198.55273 C 108.80745 198.0994 109.19427 197.55211 109.46094 196.91211 C 109.75427 196.27211 109.90039 195.55195 109.90039 194.75195 C 109.90039 194.00529 109.70078 193.31187 109.30078 192.67188 C 108.92745 192.03187 108.43365 191.47219 107.82031 190.99219 C 107.23365 190.51219 106.56698 190.13776 105.82031 189.87109 C 105.10031 189.60443 104.39451 189.47266 103.70117 189.47266 L 86.220703 189.47266 z M 156.35547 189.47266 C 155.9288 189.47266 155.39586 189.52615 154.75586 189.63281 C 154.14253 189.73948 153.52935 189.91234 152.91602 190.15234 C 152.32935 190.36568 151.82315 190.65792 151.39648 191.03125 C 150.96982 191.40458 150.75586 191.85924 150.75586 192.39258 C 150.75586 193.11258 151.00896 193.64552 151.51562 193.99219 C 152.02229 194.31219 152.60872 194.55289 153.27539 194.71289 C 153.96872 194.84622 154.64974 194.95125 155.31641 195.03125 C 156.00974 195.08458 156.54268 195.19156 156.91602 195.35156 C 157.47602 195.59156 157.98221 195.93924 158.43555 196.39258 C 158.88888 196.84591 159.26331 197.35211 159.55664 197.91211 C 159.84997 198.47211 160.07633 199.07289 160.23633 199.71289 C 160.39633 200.32622 160.47656 200.92505 160.47656 201.51172 L 160.47656 212.23242 C 160.47656 213.00576 160.58354 213.83289 160.79688 214.71289 C 161.03688 215.56622 161.37021 216.35227 161.79688 217.07227 C 162.25021 217.79227 162.8099 218.39109 163.47656 218.87109 C 164.14323 219.35109 164.92927 219.5918 165.83594 219.5918 C 166.4226 219.5918 166.9699 219.47242 167.47656 219.23242 C 167.98323 218.96576 168.43594 218.63242 168.83594 218.23242 C 169.2626 217.83242 169.62268 217.37776 169.91602 216.87109 C 170.20935 216.36443 170.4357 215.84583 170.5957 215.3125 L 170.7168 214.83203 C 170.7968 214.6187 170.86268 214.41909 170.91602 214.23242 C 170.96935 214.01909 171.00849 213.83187 171.03516 213.67188 C 171.08849 213.51187 171.11523 209.31227 171.11523 201.07227 C 171.11523 200.6456 171.19547 200.1518 171.35547 199.5918 C 171.54214 199.00513 171.78284 198.44544 172.07617 197.91211 C 172.36951 197.37878 172.70284 196.88497 173.07617 196.43164 C 173.47617 195.97831 173.87539 195.65932 174.27539 195.47266 C 174.62206 195.31266 175.155 195.19133 175.875 195.11133 C 176.62167 195.03133 177.36857 194.91195 178.11523 194.75195 C 178.8619 194.56529 179.51617 194.31219 180.07617 193.99219 C 180.63617 193.64552 180.91602 193.12497 180.91602 192.43164 C 180.91602 191.87164 180.68966 191.40458 180.23633 191.03125 C 179.78299 190.63125 179.2357 190.32466 178.5957 190.11133 C 177.98237 189.87133 177.3568 189.71281 176.7168 189.63281 C 176.0768 189.52615 175.55625 189.47266 175.15625 189.47266 L 156.35547 189.47266 z M 227.01172 189.47266 C 226.23839 189.47266 225.53062 189.67227 224.89062 190.07227 C 224.25063 190.4456 223.69094 190.9394 223.21094 191.55273 C 222.7576 192.16607 222.39753 192.84513 222.13086 193.5918 C 221.89086 194.33846 221.77148 195.07102 221.77148 195.79102 L 221.77148 213.43164 C 221.77148 214.09831 221.90521 214.80607 222.17188 215.55273 C 222.43854 216.27273 222.81102 216.9394 223.29102 217.55273 C 223.77102 218.1394 224.31831 218.63125 224.93164 219.03125 C 225.57164 219.40458 226.2507 219.5918 226.9707 219.5918 C 227.8507 219.5918 228.62435 219.35109 229.29102 218.87109 C 229.98435 218.39109 230.54404 217.79227 230.9707 217.07227 C 231.42404 216.3256 231.75737 215.52521 231.9707 214.67188 C 232.2107 213.81854 232.33203 213.00576 232.33203 212.23242 L 232.33203 211.79102 L 232.33203 209.91211 C 232.33203 209.05878 232.31768 208.09792 232.29102 207.03125 C 232.29102 205.93792 232.27862 204.7918 232.25195 203.5918 C 232.25195 202.3918 232.2376 201.25807 232.21094 200.19141 L 232.21094 197.27148 L 232.21094 195.35156 C 232.0776 194.6849 231.87799 194.00583 231.61133 193.3125 C 231.34466 192.5925 230.99893 191.95258 230.57227 191.39258 C 230.17227 190.83258 229.67846 190.37792 229.0918 190.03125 C 228.50513 189.65792 227.81172 189.47266 227.01172 189.47266 z M 299.6582 189.47266 C 298.9382 189.47266 298.1913 189.68466 297.41797 190.11133 C 296.6713 190.51133 295.97789 191.03188 295.33789 191.67188 C 294.72456 192.28521 294.20401 192.97862 293.77734 193.75195 C 293.37734 194.49862 293.17773 195.21878 293.17773 195.91211 L 293.17773 213.87109 C 293.17773 213.89776 293.19208 214.00474 293.21875 214.19141 C 293.24542 214.35141 293.27021 214.53862 293.29688 214.75195 C 293.32354 214.96529 293.35029 215.19164 293.37695 215.43164 C 293.40362 215.64497 293.43036 215.80544 293.45703 215.91211 C 293.51036 216.23211 293.5906 216.60458 293.69727 217.03125 C 293.8306 217.45792 294.00542 217.85909 294.21875 218.23242 C 294.43208 218.60576 294.68518 218.92474 294.97852 219.19141 C 295.27185 219.45807 295.63193 219.5918 296.05859 219.5918 C 296.21859 219.5918 296.35036 219.5794 296.45703 219.55273 C 296.5637 219.52607 296.69742 219.44583 296.85742 219.3125 C 297.44409 218.85917 297.87201 218.28513 298.13867 217.5918 C 298.40534 216.8718 298.5906 216.1125 298.69727 215.3125 C 298.80393 214.5125 298.88417 213.71211 298.9375 212.91211 C 299.0175 212.08544 299.16362 211.3118 299.37695 210.5918 C 299.59029 209.8718 299.92362 209.24622 300.37695 208.71289 C 300.85695 208.15289 301.55036 207.76607 302.45703 207.55273 C 302.85703 207.44607 303.40432 207.36583 304.09766 207.3125 C 304.79099 207.2325 305.47201 207.11117 306.13867 206.95117 C 306.80534 206.76451 307.37742 206.49901 307.85742 206.15234 C 308.36409 205.77901 308.61719 205.24607 308.61719 204.55273 C 308.61719 203.9394 308.45867 203.45799 308.13867 203.11133 C 307.81867 202.73799 307.39076 202.45815 306.85742 202.27148 C 306.35076 202.08482 305.77867 201.95109 305.13867 201.87109 C 304.49867 201.76443 303.85875 201.6718 303.21875 201.5918 C 302.60542 201.48513 302.03138 201.37815 301.49805 201.27148 C 300.96471 201.13815 300.53875 200.92615 300.21875 200.63281 C 299.87208 200.31281 299.56354 199.97948 299.29688 199.63281 C 299.03021 199.28615 298.89844 198.85823 298.89844 198.35156 C 298.89844 197.71156 299.17828 197.19102 299.73828 196.79102 C 300.32495 196.36435 301.00401 196.03102 301.77734 195.79102 C 302.55068 195.55102 303.32432 195.3925 304.09766 195.3125 C 304.89766 195.2325 305.52518 195.19141 305.97852 195.19141 C 306.51185 195.19141 307.11068 195.20576 307.77734 195.23242 C 308.47068 195.25909 309.15169 195.35172 309.81836 195.51172 C 310.48503 195.64505 311.08385 195.87141 311.61719 196.19141 C 312.15052 196.51141 312.52495 196.96607 312.73828 197.55273 C 312.73828 197.5794 312.76503 197.67203 312.81836 197.83203 C 312.89836 197.96536 312.96424 198.05799 313.01758 198.11133 C 313.25758 198.51133 313.56417 198.83227 313.9375 199.07227 C 314.31083 199.31227 314.71201 199.49948 315.13867 199.63281 C 315.59201 199.73948 316.04471 199.81776 316.49805 199.87109 C 316.97805 199.89776 317.41836 199.91211 317.81836 199.91211 C 318.56503 199.91211 319.27083 199.80513 319.9375 199.5918 C 320.63083 199.3518 321.21727 199.01846 321.69727 198.5918 C 322.20393 198.13846 322.6051 197.60552 322.89844 196.99219 C 323.19177 196.35219 323.33789 195.63203 323.33789 194.83203 C 323.33789 194.08536 323.15068 193.39195 322.77734 192.75195 C 322.40401 192.08529 321.91021 191.51125 321.29688 191.03125 C 320.71021 190.55125 320.04354 190.17878 319.29688 189.91211 C 318.57688 189.61878 317.85867 189.47266 317.13867 189.47266 L 299.6582 189.47266 z M 195.59375 251.71289 C 194.42042 251.71289 193.35453 252.05862 192.39453 252.75195 C 191.43453 253.41862 190.80701 254.35273 190.51367 255.55273 C 190.40701 256.00607 190.34112 256.48552 190.31445 256.99219 C 190.31445 257.47219 190.19312 257.9249 189.95312 258.35156 C 189.57979 258.9649 189.10034 259.47109 188.51367 259.87109 C 187.95367 260.27109 187.35484 260.60443 186.71484 260.87109 C 186.60818 260.89776 186.4601 260.93885 186.27344 260.99219 L 185.71484 261.15234 C 185.52818 261.20568 185.35336 261.25917 185.19336 261.3125 C 185.06003 261.33917 184.97979 261.35156 184.95312 261.35156 L 178.19336 261.35156 C 177.39336 261.35156 176.55383 261.55117 175.67383 261.95117 C 174.82049 262.32451 174.03445 262.83266 173.31445 263.47266 C 172.59445 264.08599 171.99367 264.80615 171.51367 265.63281 C 171.06034 266.43281 170.83398 267.2456 170.83398 268.07227 L 170.83398 275.39258 C 170.83398 276.16591 171.04794 276.93956 171.47461 277.71289 C 171.92794 278.48622 172.48763 279.17768 173.1543 279.79102 C 173.84763 280.40435 174.59453 280.9125 175.39453 281.3125 C 176.2212 281.68583 177.00724 281.87109 177.75391 281.87109 L 194.07422 281.87109 C 194.84755 281.87109 195.63359 281.67148 196.43359 281.27148 C 197.26026 280.84482 198.00716 280.31187 198.67383 279.67188 C 199.34049 279.00521 199.88779 278.27266 200.31445 277.47266 C 200.74112 276.67266 200.95312 275.88466 200.95312 275.11133 L 200.95312 258.51172 C 200.95312 257.73839 200.83375 256.95234 200.59375 256.15234 C 200.35375 255.35234 199.99367 254.61784 199.51367 253.95117 C 199.06034 253.28451 198.50065 252.75156 197.83398 252.35156 C 197.16732 251.9249 196.42042 251.71289 195.59375 251.71289 z M 328.875 251.71289 C 327.70167 251.71289 326.63578 252.05862 325.67578 252.75195 C 324.71578 253.41862 324.08826 254.35273 323.79492 255.55273 C 323.68826 256.00607 323.62237 256.48552 323.5957 256.99219 C 323.5957 257.47219 323.47437 257.9249 323.23438 258.35156 C 322.86104 258.9649 322.38159 259.47109 321.79492 259.87109 C 321.23492 260.27109 320.63609 260.60443 319.99609 260.87109 C 319.88943 260.89776 319.74135 260.93885 319.55469 260.99219 L 318.99609 261.15234 C 318.80943 261.20568 318.63461 261.25917 318.47461 261.3125 C 318.34128 261.33917 318.26104 261.35156 318.23438 261.35156 L 311.47461 261.35156 C 310.67461 261.35156 309.83508 261.55117 308.95508 261.95117 C 308.10174 262.32451 307.3157 262.83266 306.5957 263.47266 C 305.8757 264.08599 305.27492 264.80615 304.79492 265.63281 C 304.34159 266.43281 304.11523 267.2456 304.11523 268.07227 L 304.11523 275.39258 C 304.11523 276.16591 304.32919 276.93956 304.75586 277.71289 C 305.20919 278.48622 305.76888 279.17768 306.43555 279.79102 C 307.12888 280.40435 307.87578 280.9125 308.67578 281.3125 C 309.50245 281.68583 310.28849 281.87109 311.03516 281.87109 L 327.35547 281.87109 C 328.1288 281.87109 328.91484 281.67148 329.71484 281.27148 C 330.54151 280.84482 331.28841 280.31187 331.95508 279.67188 C 332.62174 279.00521 333.16904 278.27266 333.5957 277.47266 C 334.02237 276.67266 334.23438 275.88466 334.23438 275.11133 L 334.23438 258.51172 C 334.23437 257.73839 334.115 256.95234 333.875 256.15234 C 333.635 255.35234 333.27492 254.61784 332.79492 253.95117 C 332.34159 253.28451 331.7819 252.75156 331.11523 252.35156 C 330.44857 251.9249 329.70167 251.71289 328.875 251.71289 z M 277.98438 251.79102 C 277.53104 251.79102 277.01245 251.83211 276.42578 251.91211 C 275.83911 251.96544 275.27943 252.09917 274.74609 252.3125 C 274.23943 252.49917 273.79911 252.77901 273.42578 253.15234 C 273.05245 253.52568 272.86523 254.00513 272.86523 254.5918 C 272.86523 255.20513 273.05245 255.69893 273.42578 256.07227 C 273.79911 256.41893 274.25182 256.69878 274.78516 256.91211 C 275.31849 257.09878 275.87818 257.2325 276.46484 257.3125 C 277.07818 257.36583 277.61112 257.39258 278.06445 257.39258 C 278.51779 257.39258 279.03833 257.36583 279.625 257.3125 C 280.23833 257.2325 280.81237 257.09878 281.3457 256.91211 C 281.9057 256.69878 282.37276 256.41893 282.74609 256.07227 C 283.11943 255.69893 283.30469 255.20513 283.30469 254.5918 C 283.30469 253.9518 283.10508 253.45799 282.70508 253.11133 C 282.33174 252.73799 281.86469 252.45815 281.30469 252.27148 C 280.77135 252.05815 280.19927 251.92443 279.58594 251.87109 C 278.9726 251.81776 278.43771 251.79102 277.98438 251.79102 z M 75.283203 251.87109 C 74.563203 251.87109 73.816302 252.08505 73.042969 252.51172 C 72.296302 252.91172 71.602891 253.43227 70.962891 254.07227 C 70.349557 254.6856 69.82901 255.37901 69.402344 256.15234 C 69.002344 256.89901 68.802734 257.61917 68.802734 258.3125 L 68.802734 276.27148 C 68.802734 276.29815 68.817083 276.40513 68.84375 276.5918 C 68.870417 276.7518 68.895208 276.93901 68.921875 277.15234 C 68.948542 277.36568 68.975286 277.59203 69.001953 277.83203 C 69.02862 278.04536 69.055365 278.20583 69.082031 278.3125 C 69.135365 278.6325 69.215599 279.00497 69.322266 279.43164 C 69.455599 279.83164 69.616068 280.23281 69.802734 280.63281 C 70.016068 281.00615 70.269167 281.32513 70.5625 281.5918 C 70.855833 281.85846 71.203516 281.99219 71.603516 281.99219 C 71.950182 281.99219 72.256771 281.88521 72.523438 281.67188 C 72.790104 281.43187 73.016458 281.15203 73.203125 280.83203 C 73.416458 280.51203 73.576927 280.1787 73.683594 279.83203 C 73.816927 279.48536 73.909557 279.17878 73.962891 278.91211 C 73.989557 278.75211 74.028698 278.52576 74.082031 278.23242 C 74.135365 277.91242 74.188854 277.60583 74.242188 277.3125 C 74.295521 277.01917 74.336615 276.76607 74.363281 276.55273 C 74.416615 276.31273 74.443359 276.16466 74.443359 276.11133 L 74.443359 262.87109 C 74.496693 262.55109 74.535833 262.2856 74.5625 262.07227 C 74.615833 261.83227 74.669323 261.60591 74.722656 261.39258 C 74.77599 261.15258 74.817083 260.96536 74.84375 260.83203 C 74.870417 260.67203 74.921953 260.41893 75.001953 260.07227 C 75.10862 259.7256 75.229948 259.36552 75.363281 258.99219 C 75.523281 258.61885 75.68375 258.29792 75.84375 258.03125 C 76.030417 257.73792 76.230026 257.5918 76.443359 257.5918 C 76.656693 257.5918 76.841953 257.68443 77.001953 257.87109 C 77.18862 258.05776 77.336693 258.28607 77.443359 258.55273 C 77.576693 258.79273 77.669323 259.04583 77.722656 259.3125 C 77.802656 259.57917 77.868542 259.79117 77.921875 259.95117 C 77.948542 260.11117 77.989635 260.31273 78.042969 260.55273 C 78.122969 260.79273 78.188854 261.03148 78.242188 261.27148 C 78.295521 261.48482 78.336615 261.68443 78.363281 261.87109 C 78.416615 262.03109 78.443359 262.12568 78.443359 262.15234 L 78.443359 274.63281 C 78.443359 274.68615 78.455755 274.84466 78.482422 275.11133 C 78.509089 275.37799 78.535833 275.68458 78.5625 276.03125 C 78.615833 276.35125 78.656927 276.67219 78.683594 276.99219 L 78.802734 277.71289 C 78.829401 278.00622 78.895286 278.39109 79.001953 278.87109 C 79.135286 279.35109 79.295755 279.81815 79.482422 280.27148 C 79.695755 280.72482 79.948854 281.12599 80.242188 281.47266 C 80.562187 281.81932 80.936615 281.99219 81.363281 281.99219 C 81.789948 281.99219 82.150026 281.84607 82.443359 281.55273 C 82.763359 281.2594 83.016458 280.91172 83.203125 280.51172 C 83.416458 280.08505 83.576927 279.64474 83.683594 279.19141 C 83.79026 278.73807 83.868542 278.35125 83.921875 278.03125 C 83.948542 277.84458 83.989635 277.60583 84.042969 277.3125 C 84.096302 277.01917 84.135443 276.73932 84.162109 276.47266 C 84.215443 276.17932 84.256536 275.92622 84.283203 275.71289 C 84.30987 275.49956 84.322266 271.0325 84.322266 262.3125 C 84.322266 262.28583 84.34901 262.16451 84.402344 261.95117 C 84.455677 261.71117 84.509167 261.44568 84.5625 261.15234 C 84.6425 260.83234 84.710339 260.52576 84.763672 260.23242 C 84.843672 259.93909 84.909557 259.69839 84.962891 259.51172 C 84.989557 259.37839 85.043047 259.20552 85.123047 258.99219 L 85.443359 258.35156 C 85.550026 258.13823 85.669401 257.95102 85.802734 257.79102 C 85.962734 257.63102 86.123203 257.55273 86.283203 257.55273 C 86.496536 257.55273 86.708542 257.71125 86.921875 258.03125 C 87.135208 258.32458 87.268932 258.56529 87.322266 258.75195 C 87.348932 258.83195 87.390026 258.93893 87.443359 259.07227 C 87.496693 259.2056 87.535833 259.35172 87.5625 259.51172 C 87.615833 259.64505 87.656927 259.76443 87.683594 259.87109 C 87.736927 259.97776 87.763672 260.0456 87.763672 260.07227 C 87.790339 260.23227 87.829479 260.44622 87.882812 260.71289 C 87.962813 260.95289 88.028698 261.19164 88.082031 261.43164 C 88.135365 261.67164 88.176458 261.89799 88.203125 262.11133 C 88.256458 262.29799 88.283203 262.40497 88.283203 262.43164 L 88.283203 275.39258 C 88.283203 276.08591 88.416927 276.81846 88.683594 277.5918 C 88.976927 278.33846 89.36375 279.04622 89.84375 279.71289 C 90.32375 280.37956 90.883438 280.9249 91.523438 281.35156 C 92.190104 281.77823 92.895911 281.99219 93.642578 281.99219 C 94.442578 281.99219 95.162734 281.77823 95.802734 281.35156 C 96.469401 280.89823 97.029089 280.35289 97.482422 279.71289 C 97.962422 279.04622 98.3225 278.31172 98.5625 277.51172 C 98.8025 276.71172 98.921875 275.95242 98.921875 275.23242 L 98.921875 258.75195 C 98.921875 258.00529 98.722266 257.23164 98.322266 256.43164 C 97.948932 255.60497 97.457083 254.85807 96.84375 254.19141 C 96.230417 253.52474 95.537005 252.9794 94.763672 252.55273 C 93.990339 252.0994 93.229089 251.87109 92.482422 251.87109 L 75.283203 251.87109 z M 127.17773 261.43164 C 127.1244 261.43164 127.00503 261.44599 126.81836 261.47266 C 126.63169 261.47266 126.41773 261.48505 126.17773 261.51172 C 125.93773 261.51172 125.69898 261.52607 125.45898 261.55273 C 125.24565 261.5794 125.08518 261.5918 124.97852 261.5918 C 124.60518 261.61846 124.12573 261.68435 123.53906 261.79102 C 122.97906 261.89768 122.41938 262.05815 121.85938 262.27148 C 121.29938 262.45815 120.81797 262.7256 120.41797 263.07227 C 120.01797 263.39227 119.81836 263.80583 119.81836 264.3125 C 119.81836 264.92583 120.0982 265.41768 120.6582 265.79102 C 121.2182 266.13768 121.85813 266.41948 122.57812 266.63281 C 123.32479 266.84615 124.0593 266.99227 124.7793 267.07227 C 125.52596 267.15227 126.0713 267.19141 126.41797 267.19141 C 126.73797 267.19141 127.31201 267.20576 128.13867 267.23242 C 128.99201 267.23242 129.88503 267.24482 130.81836 267.27148 C 131.77836 267.27148 132.67138 267.28583 133.49805 267.3125 L 135.25781 267.3125 C 135.33781 267.3125 135.49828 267.3249 135.73828 267.35156 C 135.97828 267.37823 136.23138 267.41932 136.49805 267.47266 C 136.76471 267.49932 137.01781 267.52607 137.25781 267.55273 C 137.49781 267.5794 137.65828 267.60615 137.73828 267.63281 C 137.87161 267.63281 138.08557 267.67195 138.37891 267.75195 C 138.67224 267.80529 138.8575 267.91227 138.9375 268.07227 C 138.43083 268.25893 137.8444 268.4194 137.17773 268.55273 C 136.53773 268.6594 135.9924 268.71289 135.53906 268.71289 L 127.17773 268.71289 C 126.2444 268.71289 125.33898 268.88576 124.45898 269.23242 C 123.57898 269.55242 122.79099 270.00513 122.09766 270.5918 C 121.40432 271.17846 120.84464 271.88622 120.41797 272.71289 C 120.01797 273.51289 119.81836 274.37917 119.81836 275.3125 C 119.81836 276.21917 120.00557 277.07109 120.37891 277.87109 C 120.77891 278.64443 121.2975 279.33784 121.9375 279.95117 C 122.5775 280.53784 123.31201 281.0049 124.13867 281.35156 C 124.96534 281.69823 125.83161 281.87109 126.73828 281.87109 L 143.05859 281.87109 C 143.88526 281.87109 144.7124 281.67148 145.53906 281.27148 C 146.36573 280.84482 147.09828 280.31187 147.73828 279.67188 C 148.40495 279.00521 148.93789 278.25831 149.33789 277.43164 C 149.73789 276.60497 149.9375 275.77784 149.9375 274.95117 L 149.9375 268.51172 C 149.9375 267.60505 149.72549 266.72443 149.29883 265.87109 C 148.87216 265.01776 148.31247 264.25846 147.61914 263.5918 C 146.92581 262.92513 146.13781 262.40458 145.25781 262.03125 C 144.37781 261.63125 143.49914 261.43164 142.61914 261.43164 L 127.17773 261.43164 z M 229.20898 261.43164 C 228.38232 261.43164 227.53039 261.61885 226.65039 261.99219 C 225.79706 262.36552 225.00906 262.85932 224.28906 263.47266 C 223.56906 264.08599 222.98263 264.7918 222.5293 265.5918 C 222.07596 266.3918 221.84961 267.21893 221.84961 268.07227 L 221.84961 276.15234 C 221.84961 276.17901 221.86396 276.28599 221.89062 276.47266 C 221.91729 276.63266 221.94208 276.81792 221.96875 277.03125 C 221.99542 277.24458 222.02216 277.47289 222.04883 277.71289 C 222.07549 277.92622 222.10224 278.08474 222.12891 278.19141 C 222.18224 278.48474 222.26247 278.84482 222.36914 279.27148 C 222.50247 279.67148 222.66294 280.07266 222.84961 280.47266 C 223.06294 280.84599 223.31604 281.17932 223.60938 281.47266 C 223.90271 281.73932 224.25039 281.87109 224.65039 281.87109 C 225.05039 281.87109 225.39612 281.73932 225.68945 281.47266 C 225.98279 281.17932 226.22349 280.84599 226.41016 280.47266 C 226.62349 280.07266 226.78396 279.67148 226.89062 279.27148 C 226.99729 278.84482 227.07557 278.48474 227.12891 278.19141 C 227.15557 278.08474 227.18232 277.93862 227.20898 277.75195 L 227.28906 277.11133 C 227.3424 276.87133 227.38349 276.67172 227.41016 276.51172 C 227.43682 276.32505 227.44922 276.20568 227.44922 276.15234 L 227.44922 275.63281 C 227.47589 275.36615 227.49023 275.07195 227.49023 274.75195 C 227.5169 274.43195 227.5293 274.13776 227.5293 273.87109 C 227.55596 273.60443 227.57031 273.43156 227.57031 273.35156 C 227.65031 272.6049 227.84992 271.89909 228.16992 271.23242 C 228.51659 270.53909 228.94255 269.93831 229.44922 269.43164 C 229.98255 268.89831 230.56898 268.45799 231.20898 268.11133 C 231.87565 267.73799 232.58341 267.4725 233.33008 267.3125 L 234.92969 267.3125 C 235.22302 267.3125 235.69008 267.33924 236.33008 267.39258 C 236.99674 267.44591 237.66341 267.53854 238.33008 267.67188 C 239.02341 267.77854 239.64898 267.93901 240.20898 268.15234 C 240.76898 268.36568 241.11667 268.63117 241.25 268.95117 C 241.33 269.16451 241.38349 269.39281 241.41016 269.63281 C 241.46349 269.87281 241.55612 270.08482 241.68945 270.27148 C 242.30279 270.96482 243.01055 271.43188 243.81055 271.67188 C 244.63721 271.91187 245.50349 272.03125 246.41016 272.03125 C 247.13016 272.03125 247.82357 271.91187 248.49023 271.67188 C 249.18357 271.43188 249.7824 271.09854 250.28906 270.67188 C 250.8224 270.21854 251.23596 269.6856 251.5293 269.07227 C 251.8493 268.43227 252.00977 267.72451 252.00977 266.95117 C 252.00977 266.07117 251.78341 265.28513 251.33008 264.5918 C 250.87674 263.89846 250.29031 263.32443 249.57031 262.87109 C 248.87698 262.39109 248.10333 262.03102 247.25 261.79102 C 246.39667 261.55102 245.56953 261.43164 244.76953 261.43164 L 229.20898 261.43164 z M 278.06445 261.47266 C 277.34445 261.47266 276.66539 261.67227 276.02539 262.07227 C 275.41206 262.47227 274.86477 262.97846 274.38477 263.5918 C 273.93143 264.17846 273.55896 264.84513 273.26562 265.5918 C 272.99896 266.3118 272.86523 266.99281 272.86523 267.63281 L 272.86523 275.71289 C 272.86523 276.40622 272.99896 277.11203 273.26562 277.83203 C 273.53229 278.55203 273.90477 279.2187 274.38477 279.83203 C 274.86477 280.4187 275.41206 280.9125 276.02539 281.3125 C 276.66539 281.68583 277.34445 281.87109 278.06445 281.87109 C 278.78445 281.87109 279.45112 281.68583 280.06445 281.3125 C 280.70445 280.93917 281.25174 280.45776 281.70508 279.87109 C 282.18508 279.28443 282.55951 278.64451 282.82617 277.95117 C 283.11951 277.23117 283.26562 276.53776 283.26562 275.87109 L 283.26562 267.51172 C 283.26562 266.84505 283.11951 266.15164 282.82617 265.43164 C 282.55951 264.71164 282.18508 264.05932 281.70508 263.47266 C 281.22508 262.88599 280.66539 262.40458 280.02539 262.03125 C 279.41206 261.65792 278.75779 261.47266 278.06445 261.47266 z M 183.39453 267.3125 C 184.03453 267.3125 184.74034 267.39273 185.51367 267.55273 C 186.31367 267.68607 187.06057 267.92482 187.75391 268.27148 C 188.47391 268.61815 189.06034 269.07281 189.51367 269.63281 C 189.99367 270.19281 190.23438 270.87188 190.23438 271.67188 C 190.23437 272.49854 189.99367 273.19195 189.51367 273.75195 C 189.06034 274.31195 188.48826 274.76466 187.79492 275.11133 C 187.10159 275.43133 186.35469 275.67203 185.55469 275.83203 C 184.75469 275.96536 184.03453 276.03125 183.39453 276.03125 C 182.75453 276.03125 182.03438 275.96536 181.23438 275.83203 C 180.43437 275.67203 179.68747 275.41893 178.99414 275.07227 C 178.30081 274.7256 177.71438 274.27289 177.23438 273.71289 C 176.78104 273.12622 176.55469 272.41846 176.55469 271.5918 C 176.55469 270.81846 176.79344 270.16615 177.27344 269.63281 C 177.7801 269.07281 178.38089 268.6325 179.07422 268.3125 C 179.79422 267.96583 180.54112 267.71273 181.31445 267.55273 C 182.11445 267.39273 182.80786 267.3125 183.39453 267.3125 z M 316.67578 267.3125 C 317.31578 267.3125 318.02159 267.39273 318.79492 267.55273 C 319.59492 267.68607 320.34182 267.92482 321.03516 268.27148 C 321.75516 268.61815 322.34159 269.07281 322.79492 269.63281 C 323.27492 270.19281 323.51562 270.87188 323.51562 271.67188 C 323.51562 272.49854 323.27492 273.19195 322.79492 273.75195 C 322.34159 274.31195 321.76951 274.76466 321.07617 275.11133 C 320.38284 275.43133 319.63594 275.67203 318.83594 275.83203 C 318.03594 275.96536 317.31578 276.03125 316.67578 276.03125 C 316.03578 276.03125 315.31563 275.96536 314.51562 275.83203 C 313.71562 275.67203 312.96872 275.41893 312.27539 275.07227 C 311.58206 274.7256 310.99563 274.27289 310.51562 273.71289 C 310.06229 273.12622 309.83594 272.41846 309.83594 271.5918 C 309.83594 270.81846 310.07469 270.16615 310.55469 269.63281 C 311.06135 269.07281 311.66214 268.6325 312.35547 268.3125 C 313.07547 267.96583 313.82237 267.71273 314.5957 267.55273 C 315.3957 267.39273 316.08911 267.3125 316.67578 267.3125 z M 131.61914 274.63281 L 132.37891 274.63281 L 133.13867 274.63281 C 133.45867 274.63281 133.76526 274.64521 134.05859 274.67188 L 134.85938 274.67188 L 135.25781 274.67188 C 135.28448 274.67188 135.40581 274.68622 135.61914 274.71289 C 135.83247 274.73956 136.07122 274.76435 136.33789 274.79102 L 137.13867 274.87109 C 137.40534 274.89776 137.60495 274.92451 137.73828 274.95117 C 137.87161 274.97784 138.08557 275.03133 138.37891 275.11133 C 138.67224 275.16466 138.8575 275.25924 138.9375 275.39258 C 137.92417 275.79258 136.84589 276.00458 135.69922 276.03125 L 132.37891 276.03125 C 131.89891 276.03125 131.37836 276.0456 130.81836 276.07227 L 129.13867 276.07227 C 128.57867 276.0456 128.01898 275.99211 127.45898 275.91211 C 126.92565 275.80544 126.43185 275.63258 125.97852 275.39258 L 125.97852 275.3125 C 125.97852 275.28583 126.03201 275.24474 126.13867 275.19141 C 126.24534 275.13807 126.35232 275.09893 126.45898 275.07227 C 126.59232 275.0456 126.71169 275.01885 126.81836 274.99219 C 126.95169 274.96552 127.04432 274.95117 127.09766 274.95117 C 127.17766 274.92451 127.35247 274.89776 127.61914 274.87109 L 128.41797 274.79102 C 128.68464 274.76435 128.92534 274.73956 129.13867 274.71289 C 129.35201 274.68622 129.48573 274.67188 129.53906 274.67188 L 129.89844 274.67188 L 130.69922 274.67188 C 131.01922 274.64521 131.32581 274.63281 131.61914 274.63281 z M 90.908203 314.27148 C 90.188203 314.27148 89.441302 314.48544 88.667969 314.91211 C 87.921302 315.31211 87.227891 315.83266 86.587891 316.47266 C 85.974557 317.08599 85.45401 317.7794 85.027344 318.55273 C 84.627344 319.2994 84.427734 320.01956 84.427734 320.71289 L 84.427734 337.91211 C 84.427734 338.65878 84.614948 339.37893 84.988281 340.07227 C 85.361615 340.7656 85.841068 341.40552 86.427734 341.99219 C 87.014401 342.55219 87.668672 343.03164 88.388672 343.43164 C 89.108672 343.83164 89.802083 344.09909 90.46875 344.23242 L 90.947266 344.35156 C 91.187266 344.37823 91.32099 344.39258 91.347656 344.39258 L 107.66797 344.39258 C 108.49464 344.39258 109.32177 344.19102 110.14844 343.79102 C 110.9751 343.36435 111.70766 342.83141 112.34766 342.19141 C 113.01432 341.52474 113.54727 340.77784 113.94727 339.95117 C 114.34727 339.12451 114.54688 338.29932 114.54688 337.47266 L 114.54688 321.15234 C 114.54688 320.40568 114.34727 319.63203 113.94727 318.83203 C 113.57393 318.00536 113.08208 317.25846 112.46875 316.5918 C 111.85542 315.92513 111.16201 315.37784 110.38867 314.95117 C 109.61534 314.49784 108.85409 314.27148 108.10742 314.27148 L 90.908203 314.27148 z M 141.92383 314.27148 C 141.20383 314.27148 140.45693 314.48544 139.68359 314.91211 C 138.93693 315.31211 138.24352 315.83266 137.60352 316.47266 C 136.99018 317.08599 136.46964 317.7794 136.04297 318.55273 C 135.64297 319.2994 135.44336 320.01956 135.44336 320.71289 L 135.44336 337.91211 C 135.44336 338.68544 135.65732 339.45909 136.08398 340.23242 C 136.53732 341.00576 137.09701 341.69917 137.76367 342.3125 C 138.45701 342.92583 139.20391 343.43203 140.00391 343.83203 C 140.83057 344.20536 141.61661 344.39258 142.36328 344.39258 L 158.80273 344.39258 C 159.52273 344.39258 160.28398 344.27125 161.08398 344.03125 C 161.88398 343.76458 162.61654 343.40451 163.2832 342.95117 C 163.94987 342.49784 164.49716 341.93815 164.92383 341.27148 C 165.37716 340.60482 165.60352 339.87227 165.60352 339.07227 C 165.60352 338.29893 165.4574 337.59117 165.16406 336.95117 C 164.87073 336.28451 164.46956 335.72482 163.96289 335.27148 C 163.45622 334.79148 162.86979 334.43141 162.20312 334.19141 C 161.53646 333.92474 160.83065 333.79102 160.08398 333.79102 C 159.20398 333.79102 158.33771 333.91234 157.48438 334.15234 C 156.63104 334.39234 155.89654 334.8718 155.2832 335.5918 C 155.06987 335.8318 154.96289 336.11164 154.96289 336.43164 C 154.96289 336.72497 154.82917 336.97807 154.5625 337.19141 C 154.1625 337.51141 153.6974 337.76451 153.16406 337.95117 C 152.6574 338.13784 152.1225 338.27156 151.5625 338.35156 C 151.0025 338.43156 150.44281 338.48505 149.88281 338.51172 L 148.32422 338.51172 C 147.87089 338.51172 147.24336 338.48497 146.44336 338.43164 C 145.64336 338.35164 144.84297 338.20552 144.04297 337.99219 C 143.26964 337.77885 142.59057 337.47227 142.00391 337.07227 C 141.44391 336.6456 141.16406 336.08591 141.16406 335.39258 C 141.16406 334.59258 141.40281 333.9794 141.88281 333.55273 C 142.36281 333.12607 142.96359 332.80513 143.68359 332.5918 C 144.40359 332.37846 145.17724 332.23234 146.00391 332.15234 C 146.85724 332.04568 147.64328 331.91195 148.36328 331.75195 C 149.08328 331.56529 149.68406 331.29784 150.16406 330.95117 C 150.64406 330.60451 150.88281 330.07156 150.88281 329.35156 C 150.88281 328.73823 150.7243 328.25878 150.4043 327.91211 C 150.0843 327.53878 149.65638 327.25893 149.12305 327.07227 C 148.61638 326.8856 148.0443 326.75188 147.4043 326.67188 C 146.7643 326.56521 146.12438 326.47258 145.48438 326.39258 C 144.87104 326.28591 144.29701 326.17893 143.76367 326.07227 C 143.23034 325.93893 142.80437 325.72497 142.48438 325.43164 C 142.13771 325.11164 141.82917 324.77831 141.5625 324.43164 C 141.29583 324.08497 141.16406 323.65901 141.16406 323.15234 C 141.16406 322.51234 141.44391 321.9918 142.00391 321.5918 C 142.59057 321.16513 143.26964 320.8318 144.04297 320.5918 C 144.8163 320.3518 145.58995 320.19133 146.36328 320.11133 C 147.16328 320.03133 147.79081 319.99219 148.24414 319.99219 C 148.77747 319.99219 149.3763 320.00458 150.04297 320.03125 C 150.7363 320.05792 151.41732 320.1525 152.08398 320.3125 C 152.75065 320.44583 153.34948 320.67219 153.88281 320.99219 C 154.41615 321.31219 154.79057 321.7649 155.00391 322.35156 C 155.00391 322.37823 155.03065 322.47281 155.08398 322.63281 C 155.16398 322.76615 155.22987 322.85878 155.2832 322.91211 C 155.5232 323.31211 155.82979 323.63109 156.20312 323.87109 C 156.57646 324.11109 156.97763 324.29831 157.4043 324.43164 C 157.85763 324.53831 158.31034 324.61854 158.76367 324.67188 C 159.24367 324.69854 159.68398 324.71289 160.08398 324.71289 C 160.83065 324.71289 161.53646 324.60591 162.20312 324.39258 C 162.89646 324.15258 163.48289 323.81924 163.96289 323.39258 C 164.46956 322.93924 164.87073 322.40435 165.16406 321.79102 C 165.4574 321.15102 165.60352 320.43281 165.60352 319.63281 C 165.60352 318.88615 165.4163 318.19273 165.04297 317.55273 C 164.66964 316.88607 164.17583 316.31203 163.5625 315.83203 C 162.97583 315.35203 162.30917 314.97956 161.5625 314.71289 C 160.8425 314.41956 160.1243 314.27148 159.4043 314.27148 L 141.92383 314.27148 z M 192.93945 314.27148 C 192.21945 314.27148 191.47255 314.48544 190.69922 314.91211 C 189.95255 315.31211 189.25914 315.83266 188.61914 316.47266 C 188.00581 317.08599 187.48526 317.7794 187.05859 318.55273 C 186.65859 319.2994 186.45898 320.01956 186.45898 320.71289 L 186.45898 325.71289 C 186.45898 326.45956 186.65859 327.19211 187.05859 327.91211 C 187.45859 328.63211 187.96479 329.28443 188.57812 329.87109 C 189.21813 330.45776 189.89914 330.95156 190.61914 331.35156 C 191.36581 331.7249 192.08596 331.95125 192.7793 332.03125 C 192.9393 332.03125 193.21914 332.0456 193.61914 332.07227 C 194.01914 332.07227 194.4451 332.08466 194.89844 332.11133 C 195.37844 332.13799 195.81875 332.16474 196.21875 332.19141 L 197.05859 332.19141 C 197.43193 332.21807 197.97922 332.29831 198.69922 332.43164 C 199.41922 332.53831 200.12503 332.71117 200.81836 332.95117 C 201.53836 333.19117 202.16589 333.51211 202.69922 333.91211 C 203.23255 334.28544 203.5 334.73815 203.5 335.27148 C 203.5 335.75148 203.31279 336.1918 202.93945 336.5918 C 202.56612 336.9918 202.11146 337.33948 201.57812 337.63281 C 201.04479 337.89948 200.4851 338.11148 199.89844 338.27148 C 199.33844 338.40482 198.87333 338.48505 198.5 338.51172 L 191.61914 338.79102 C 191.24581 338.81768 190.76635 338.88552 190.17969 338.99219 C 189.61969 339.09885 189.06 339.27172 188.5 339.51172 C 187.94 339.72505 187.45859 340.0049 187.05859 340.35156 C 186.65859 340.67156 186.45898 341.07273 186.45898 341.55273 C 186.45898 342.00607 186.6051 342.37854 186.89844 342.67188 C 187.19177 342.96521 187.53945 343.21831 187.93945 343.43164 C 188.36612 343.61831 188.80643 343.76443 189.25977 343.87109 C 189.7131 343.97776 190.09992 344.05799 190.41992 344.11133 C 190.57992 344.13799 190.79193 344.16474 191.05859 344.19141 L 191.85938 344.27148 C 192.15271 344.29815 192.40581 344.3249 192.61914 344.35156 C 192.85914 344.37823 193.00526 344.39258 193.05859 344.39258 L 209.69922 344.39258 C 210.60589 344.39258 211.44542 344.19102 212.21875 343.79102 C 212.99208 343.39102 213.6731 342.87242 214.25977 342.23242 C 214.8731 341.59242 215.36495 340.87227 215.73828 340.07227 C 216.13828 339.2456 216.41812 338.43281 216.57812 337.63281 L 216.57812 337.23242 L 216.57812 336.5918 C 216.60479 336.3518 216.61914 336.13784 216.61914 335.95117 L 216.61914 335.51172 C 216.61914 334.52505 216.53891 333.60529 216.37891 332.75195 C 216.24557 331.87195 215.99247 331.07156 215.61914 330.35156 C 215.24581 329.6049 214.72526 328.95258 214.05859 328.39258 C 213.41859 327.80591 212.59146 327.31211 211.57812 326.91211 C 211.47146 326.88544 211.32534 326.84435 211.13867 326.79102 C 210.97867 326.71102 210.80581 326.64513 210.61914 326.5918 C 210.43247 326.53846 210.25961 326.49932 210.09961 326.47266 C 209.93961 326.41932 209.84503 326.39258 209.81836 326.39258 L 197.5 326.39258 C 197.15333 326.31258 196.87154 326.24474 196.6582 326.19141 C 196.44487 326.13807 196.21852 326.08458 195.97852 326.03125 C 195.76518 325.97792 195.57992 325.92443 195.41992 325.87109 C 195.12659 325.79109 194.79326 325.67172 194.41992 325.51172 C 194.04659 325.35172 193.68651 325.15211 193.33984 324.91211 C 193.01984 324.67211 192.74 324.40466 192.5 324.11133 C 192.28667 323.79133 192.17969 323.4456 192.17969 323.07227 C 192.17969 322.59227 192.40604 322.16435 192.85938 321.79102 C 193.33937 321.39102 193.88667 321.05768 194.5 320.79102 C 195.14 320.49768 195.77992 320.28568 196.41992 320.15234 C 197.05992 319.99234 197.56612 319.91211 197.93945 319.91211 L 210.69922 319.91211 C 210.75255 319.91211 210.89867 319.89776 211.13867 319.87109 C 211.37867 319.81776 211.64612 319.76622 211.93945 319.71289 L 212.81836 319.55273 C 213.11169 319.4994 213.34 319.44591 213.5 319.39258 C 213.74 319.33924 214.03224 319.25901 214.37891 319.15234 C 214.75224 319.01901 215.09992 318.87289 215.41992 318.71289 C 215.73992 318.52622 216.01977 318.29792 216.25977 318.03125 C 216.49977 317.76458 216.61914 317.47234 216.61914 317.15234 C 216.61914 316.72568 216.48542 316.3656 216.21875 316.07227 C 215.95208 315.75227 215.6331 315.49917 215.25977 315.3125 C 214.88643 315.09917 214.47286 314.9387 214.01953 314.83203 C 213.59286 314.6987 213.21844 314.60607 212.89844 314.55273 C 212.7651 314.52607 212.59224 314.49932 212.37891 314.47266 L 211.73828 314.39258 C 211.52495 314.36591 211.32534 314.33917 211.13867 314.3125 C 210.97867 314.28583 210.88604 314.27148 210.85938 314.27148 L 192.93945 314.27148 z M 243.07422 314.27148 C 242.64755 314.27148 242.11461 314.32497 241.47461 314.43164 C 240.86128 314.53831 240.2481 314.71117 239.63477 314.95117 C 239.0481 315.16451 238.5419 315.4587 238.11523 315.83203 C 237.68857 316.20536 237.47461 316.65807 237.47461 317.19141 C 237.47461 317.91141 237.72771 318.44435 238.23438 318.79102 C 238.74104 319.11102 239.32747 319.35172 239.99414 319.51172 C 240.68747 319.64505 241.36849 319.75203 242.03516 319.83203 C 242.72849 319.88536 243.26143 319.99234 243.63477 320.15234 C 244.19477 320.39234 244.70096 320.73807 245.1543 321.19141 C 245.60763 321.64474 245.98206 322.15289 246.27539 322.71289 C 246.56872 323.27289 246.79508 323.87172 246.95508 324.51172 C 247.11508 325.12505 247.19531 325.72583 247.19531 326.3125 L 247.19531 337.03125 C 247.19531 337.80458 247.30229 338.63172 247.51562 339.51172 C 247.75563 340.36505 248.08896 341.15109 248.51562 341.87109 C 248.96896 342.59109 249.52865 343.19187 250.19531 343.67188 C 250.86198 344.15188 251.64802 344.39258 252.55469 344.39258 C 253.14135 344.39258 253.68865 344.27125 254.19531 344.03125 C 254.70198 343.76458 255.15469 343.43125 255.55469 343.03125 C 255.98135 342.63125 256.34143 342.17854 256.63477 341.67188 C 256.9281 341.16521 257.15445 340.64466 257.31445 340.11133 L 257.43555 339.63281 C 257.51555 339.41948 257.58143 339.21792 257.63477 339.03125 C 257.6881 338.81792 257.72724 338.63266 257.75391 338.47266 C 257.80724 338.31266 257.83398 334.11109 257.83398 325.87109 C 257.83398 325.44443 257.91422 324.95258 258.07422 324.39258 C 258.26089 323.80591 258.50159 323.24622 258.79492 322.71289 C 259.08826 322.17956 259.42159 321.68576 259.79492 321.23242 C 260.19492 320.77909 260.59414 320.45815 260.99414 320.27148 C 261.34081 320.11148 261.87375 319.99211 262.59375 319.91211 C 263.34042 319.83211 264.08732 319.71273 264.83398 319.55273 C 265.58065 319.36607 266.23492 319.11102 266.79492 318.79102 C 267.35492 318.44435 267.63477 317.92576 267.63477 317.23242 C 267.63477 316.67242 267.40841 316.20536 266.95508 315.83203 C 266.50174 315.43203 265.95445 315.12544 265.31445 314.91211 C 264.70112 314.67211 264.07555 314.51164 263.43555 314.43164 C 262.79555 314.32497 262.275 314.27148 261.875 314.27148 L 243.07422 314.27148 z M 294.9707 314.27148 C 294.2507 314.27148 293.5038 314.48544 292.73047 314.91211 C 291.9838 315.31211 291.29039 315.83266 290.65039 316.47266 C 290.03706 317.08599 289.51651 317.7794 289.08984 318.55273 C 288.68984 319.2994 288.49023 320.01956 288.49023 320.71289 L 288.49023 337.91211 C 288.49023 338.68544 288.70419 339.45909 289.13086 340.23242 C 289.58419 341.00576 290.14388 341.69917 290.81055 342.3125 C 291.50388 342.92583 292.25078 343.43203 293.05078 343.83203 C 293.87745 344.20536 294.66349 344.39258 295.41016 344.39258 L 311.84961 344.39258 C 312.56961 344.39258 313.33086 344.27125 314.13086 344.03125 C 314.93086 343.76458 315.66341 343.40451 316.33008 342.95117 C 316.99674 342.49784 317.54404 341.93815 317.9707 341.27148 C 318.42404 340.60482 318.65039 339.87227 318.65039 339.07227 C 318.65039 338.29893 318.50427 337.59117 318.21094 336.95117 C 317.9176 336.28451 317.51643 335.72482 317.00977 335.27148 C 316.5031 334.79148 315.91667 334.43141 315.25 334.19141 C 314.58333 333.92474 313.87753 333.79102 313.13086 333.79102 C 312.25086 333.79102 311.38458 333.91234 310.53125 334.15234 C 309.67792 334.39234 308.94341 334.8718 308.33008 335.5918 C 308.11674 335.8318 308.00977 336.11164 308.00977 336.43164 C 308.00977 336.72497 307.87604 336.97807 307.60938 337.19141 C 307.20938 337.51141 306.74427 337.76451 306.21094 337.95117 C 305.70427 338.13784 305.16938 338.27156 304.60938 338.35156 C 304.04937 338.43156 303.48969 338.48505 302.92969 338.51172 L 301.37109 338.51172 C 300.91776 338.51172 300.29023 338.48497 299.49023 338.43164 C 298.69023 338.35164 297.88984 338.20552 297.08984 337.99219 C 296.31651 337.77885 295.63745 337.47227 295.05078 337.07227 C 294.49078 336.6456 294.21094 336.08591 294.21094 335.39258 C 294.21094 334.59258 294.44969 333.9794 294.92969 333.55273 C 295.40969 333.12607 296.01047 332.80513 296.73047 332.5918 C 297.45047 332.37846 298.22411 332.23234 299.05078 332.15234 C 299.90411 332.04568 300.69016 331.91195 301.41016 331.75195 C 302.13016 331.56529 302.73094 331.29784 303.21094 330.95117 C 303.69094 330.60451 303.92969 330.07156 303.92969 329.35156 C 303.92969 328.73823 303.77117 328.25878 303.45117 327.91211 C 303.13117 327.53878 302.70326 327.25893 302.16992 327.07227 C 301.66326 326.8856 301.09117 326.75188 300.45117 326.67188 C 299.81117 326.56521 299.17125 326.47258 298.53125 326.39258 C 297.91792 326.28591 297.34388 326.17893 296.81055 326.07227 C 296.27721 325.93893 295.85125 325.72497 295.53125 325.43164 C 295.18458 325.11164 294.87604 324.77831 294.60938 324.43164 C 294.34271 324.08497 294.21094 323.65901 294.21094 323.15234 C 294.21094 322.51234 294.49078 321.9918 295.05078 321.5918 C 295.63745 321.16513 296.31651 320.8318 297.08984 320.5918 C 297.86318 320.3518 298.63682 320.19133 299.41016 320.11133 C 300.21016 320.03133 300.83768 319.99219 301.29102 319.99219 C 301.82435 319.99219 302.42318 320.00458 303.08984 320.03125 C 303.78318 320.05792 304.46419 320.1525 305.13086 320.3125 C 305.79753 320.44583 306.39635 320.67219 306.92969 320.99219 C 307.46302 321.31219 307.83745 321.7649 308.05078 322.35156 C 308.05078 322.37823 308.07753 322.47281 308.13086 322.63281 C 308.21086 322.76615 308.27674 322.85878 308.33008 322.91211 C 308.57008 323.31211 308.87667 323.63109 309.25 323.87109 C 309.62333 324.11109 310.02451 324.29831 310.45117 324.43164 C 310.90451 324.53831 311.35721 324.61854 311.81055 324.67188 C 312.29055 324.69854 312.73086 324.71289 313.13086 324.71289 C 313.87753 324.71289 314.58333 324.60591 315.25 324.39258 C 315.94333 324.15258 316.52977 323.81924 317.00977 323.39258 C 317.51643 322.93924 317.9176 322.40435 318.21094 321.79102 C 318.50427 321.15102 318.65039 320.43281 318.65039 319.63281 C 318.65039 318.88615 318.46318 318.19273 318.08984 317.55273 C 317.71651 316.88607 317.22271 316.31203 316.60938 315.83203 C 316.02271 315.35203 315.35604 314.97956 314.60938 314.71289 C 313.88938 314.41956 313.17117 314.27148 312.45117 314.27148 L 294.9707 314.27148 z M 97.068359 319.99219 C 97.788359 319.99219 98.547656 320.15266 99.347656 320.47266 C 100.14766 320.76599 100.88021 321.17956 101.54688 321.71289 C 102.21354 322.24622 102.76083 322.8718 103.1875 323.5918 C 103.61417 324.3118 103.82812 325.07109 103.82812 325.87109 L 103.82812 332.79102 C 103.74813 333.11102 103.69464 333.29823 103.66797 333.35156 C 103.21464 334.95156 102.3875 336.21901 101.1875 337.15234 C 100.01417 338.05901 98.614948 338.51172 96.988281 338.51172 C 96.188281 338.51172 95.373542 338.3656 94.546875 338.07227 C 93.746875 337.75227 93.014323 337.31195 92.347656 336.75195 C 91.707656 336.19195 91.174714 335.53768 90.748047 334.79102 C 90.348047 334.04435 90.148438 333.23156 90.148438 332.35156 L 90.148438 326.03125 C 90.148438 325.20458 90.360443 324.43289 90.787109 323.71289 C 91.213776 322.96622 91.761068 322.32435 92.427734 321.79102 C 93.121068 321.23102 93.867969 320.79266 94.667969 320.47266 C 95.494635 320.15266 96.295026 319.99219 97.068359 319.99219 z "
         style="font-style:normal;font-variant:normal;font-weight:normal;font-stretch:normal;font-size:40px;line-height:155.99999428%;font-family:'Conduit BRK';-inkscape-font-specification:'Conduit BRK';text-align:center;letter-spacing:0px;word-spacing:0px;text-anchor:middle;fill:#ffffff;fill-opacity:1;stroke:none;stroke-width:1px;stroke-linecap:butt;stroke-linejoin:miter;stroke-opacity:1" />
    </g>
    <g
       id="g4173">
      <flowRoot
         style="fill:black;stroke:none;stroke-opacity:1;stroke-width:1px;stroke-linejoin:miter;stroke-linecap:butt;fill-opacity:1;font-family:sans-serif;font-style:normal;font-weight:normal;font-size:40px;line-height:125%;letter-spacing:0px;word-spacing:0px"
         id="flowRoot4165"
         xml:space="preserve"><flowRegion
           id="flowRegion4167"><rect
             y="2.4091432"
             x="-113.13708"
             height="437.39606"
             width="573.76666"
             id="rect4169" /></flowRegion><flowPara
           id="flowPara4171" /></flowRoot>    </g>
  </g>
</svg>
