<?xml version="1.0" encoding="UTF-8" standalone="no"?>
<!-- Created with Inkscape (http://www.inkscape.org/) -->

<svg
   xmlns:dc="http://purl.org/dc/elements/1.1/"
   xmlns:cc="http://creativecommons.org/ns#"
   xmlns:rdf="http://www.w3.org/1999/02/22-rdf-syntax-ns#"
   xmlns:svg="http://www.w3.org/2000/svg"
   xmlns="http://www.w3.org/2000/svg"
   xmlns:sodipodi="http://sodipodi.sourceforge.net/DTD/sodipodi-0.dtd"
   xmlns:inkscape="http://www.inkscape.org/namespaces/inkscape"
   width="30mm"
   height="20mm"
   viewBox="0 0 106.29921 70.866141"
   id="svg10802"
   version="1.1"
   inkscape:version="0.91 r13725"
   sodipodi:docname="Info.svg">
  <defs
     id="defs10804">
    <filter
       inkscape:collect="always"
       style="color-interpolation-filters:sRGB"
       id="filter4213"
       x="-0.026431572"
       width="1.0528631"
       y="-0.056426998"
       height="1.112854">
      <feGaussianBlur
         inkscape:collect="always"
         stdDeviation="1.1156407"
         id="feGaussianBlur4215" />
    </filter>
  </defs>
  <sodipodi:namedview
     id="base"
     pagecolor="#ffffff"
     bordercolor="#666666"
     borderopacity="1.0"
     inkscape:pageopacity="0.0"
     inkscape:pageshadow="2"
     inkscape:zoom="2.8"
     inkscape:cx="-0.11020357"
     inkscape:cy="44.826918"
     inkscape:document-units="px"
     inkscape:current-layer="layer1"
     showgrid="false"
     inkscape:window-width="1366"
     inkscape:window-height="710"
     inkscape:window-x="0"
     inkscape:window-y="0"
     inkscape:window-maximized="1" />
  <metadata
     id="metadata10807">
    <rdf:RDF>
      <cc:Work
         rdf:about="">
        <dc:format>image/svg+xml</dc:format>
        <dc:type
           rdf:resource="http://purl.org/dc/dcmitype/StillImage" />
        <dc:title></dc:title>
      </cc:Work>
    </rdf:RDF>
  </metadata>
  <g
     inkscape:label="Capa 1"
     inkscape:groupmode="layer"
     id="layer1"
     transform="translate(0,-981.49606)">
    <path
       style="font-style:normal;font-variant:normal;font-weight:normal;font-stretch:normal;font-size:26.35676575px;line-height:125%;font-family:'Stranded BRK';-inkscape-font-specification:'Stranded BRK';letter-spacing:0px;word-spacing:0px;fill:#0000ff;fill-opacity:1;stroke:none;stroke-width:1px;stroke-linecap:butt;stroke-linejoin:miter;stroke-opacity:1"
       d="M 23.115234 8.7714844 C 22.925503 9.09694 22.738839 9.357461 22.558594 9.5527344 C 22.387835 9.7480077 22.217634 9.9108334 22.046875 10.041016 C 21.705358 10.30138 21.483259 10.773575 21.378906 11.457031 L 20.824219 13.361328 C 20.672433 14.207513 20.525111 14.956511 20.382812 15.607422 C 20.25 16.258333 20.117187 16.82627 19.984375 17.314453 C 19.728237 18.29082 19.556082 19.642273 19.470703 21.367188 C 19.432757 22.018099 19.395368 22.685684 19.357422 23.369141 C 19.328962 24.020052 19.299944 24.655072 19.271484 25.273438 C 19.176619 25.501256 19.077009 25.727259 18.972656 25.955078 C 18.87779 26.150351 18.79269 26.345742 18.716797 26.541016 C 18.517579 27.907929 18.361886 29.324512 18.248047 30.789062 C 18.134208 32.253613 18.030413 33.491088 17.935547 34.5 C 18.163225 35.150911 18.422713 35.800261 18.716797 36.451172 C 18.602958 40.161366 18.476283 43.643882 18.333984 46.898438 C 18.201172 50.152993 18.134766 53.26101 18.134766 56.222656 L 21.960938 56.222656 C 22.00837 54.237377 22.041574 52.26914 22.060547 50.316406 C 22.07952 48.363673 22.07952 46.411718 22.060547 44.458984 C 22.041574 42.506251 22.041574 40.601191 22.060547 38.746094 C 22.07952 36.858451 22.112723 35.004192 22.160156 33.181641 C 22.340401 32.953822 22.527065 32.742148 22.716797 32.546875 C 22.916015 32.351602 23.115235 32.139928 23.314453 31.912109 C 23.504185 30.545196 23.597656 29.128613 23.597656 27.664062 C 23.607143 26.166967 23.706753 24.89888 23.896484 23.857422 L 22.943359 23.857422 C 22.744141 23.043783 22.692244 22.311067 22.787109 21.660156 C 22.891462 21.009245 23.053293 20.47192 23.271484 20.048828 C 23.489676 19.59319 23.722099 19.251256 23.96875 19.023438 C 24.215401 18.763073 24.385603 18.632812 24.480469 18.632812 C 24.376116 16.614988 24.365793 14.874706 24.451172 13.410156 C 24.536551 11.880515 24.476283 10.333671 24.267578 8.7714844 L 23.115234 8.7714844 z M 5.6074219 9.4667969 C 5.3465407 9.4423877 5.087053 9.5527833 4.8261719 9.796875 C 4.294923 10.285058 3.8010593 10.529297 3.3457031 10.529297 C 3.118025 11.180208 2.8939727 11.798946 2.6757812 12.384766 C 2.6757812 20.000427 2.7006139 27.388805 2.7480469 34.548828 C 2.8049664 41.708851 2.8339844 48.932451 2.8339844 56.222656 C 3.1944747 56.092474 3.5390632 56.027344 3.8710938 56.027344 C 4.2031243 55.994798 4.5309717 55.978516 4.8535156 55.978516 L 5.7929688 55.978516 C 6.1060261 55.94597 6.4193645 55.848275 6.7324219 55.685547 C 6.6470426 51.682443 6.5661271 47.762251 6.4902344 43.921875 C 6.4238283 40.081499 6.3574217 36.289614 6.2910156 32.546875 C 6.2246095 28.804136 6.20173 25.061099 6.2207031 21.318359 C 6.2396763 17.57562 6.2957591 13.783735 6.390625 9.9433594 C 6.1297439 9.6504493 5.868303 9.491206 5.6074219 9.4667969 z M 91.072266 11.9375 L 88.214844 17.294922 L 90 19.4375 L 96.072266 14.4375 L 91.072266 11.9375 z M 81.537109 15.558594 C 81.375837 16.795325 81.120535 17.770326 80.769531 18.486328 C 80.409041 19.169785 80.124721 20.016478 79.916016 21.025391 C 79.991908 22.555032 80.214007 23.694812 80.583984 24.443359 C 80.953961 25.159362 81.171875 26.020385 81.238281 27.029297 C 81.390067 26.410931 81.533203 25.826712 81.666016 25.273438 C 81.808314 24.720163 81.945313 24.215403 82.078125 23.759766 C 82.334263 22.881036 82.543806 21.659843 82.705078 20.097656 C 82.344588 19.088744 82.130859 18.258333 82.064453 17.607422 C 81.98856 16.956511 81.81222 16.274596 81.537109 15.558594 z M 13.105469 18.925781 C 12.621653 19.576692 12.283482 20.162865 12.09375 20.683594 C 11.989398 20.943958 11.875279 21.253327 11.751953 21.611328 C 11.638114 21.969329 11.515625 22.408959 11.382812 22.929688 C 11.240514 22.376413 11.103515 21.822806 10.970703 21.269531 C 10.837891 20.716257 10.709263 20.16265 10.585938 19.609375 C 9.9882825 19.902285 9.3761147 19.951133 8.75 19.755859 C 8.1333719 19.560586 7.5731016 19.935085 7.0703125 20.878906 C 7.1177454 23.742915 7.1467634 26.606694 7.15625 29.470703 C 7.1752232 32.334712 7.1710379 35.231056 7.1425781 38.160156 C 7.0951452 44.050903 7.2134493 49.648199 7.4980469 54.953125 L 10.984375 54.953125 L 11.382812 53.587891 C 11.268973 49.910242 11.202567 46.492857 11.183594 43.335938 C 11.164621 40.146473 11.154297 36.908195 11.154297 33.621094 C 11.334542 33.165456 11.521206 32.725827 11.710938 32.302734 C 11.910156 31.847097 12.109375 31.374902 12.308594 30.886719 C 12.441406 31.439993 12.568081 31.9936 12.691406 32.546875 C 12.824218 33.10015 12.96317 33.653757 13.105469 34.207031 C 13.219308 37.982316 13.227678 41.755965 13.132812 45.53125 C 13.047433 49.273989 13.11384 52.837918 13.332031 56.222656 C 13.711495 56.092474 14.072545 55.994779 14.414062 55.929688 C 14.75558 55.832051 15.087612 55.766921 15.410156 55.734375 C 15.742187 55.669284 16.070034 55.636719 16.392578 55.636719 L 17.402344 55.636719 L 17.402344 27.566406 C 17.297991 26.915495 17.21289 26.280475 17.146484 25.662109 C 17.080078 25.011198 17.028181 24.394414 16.990234 23.808594 C 16.914342 22.604408 16.789899 21.887975 16.619141 21.660156 C 16.31557 21.237064 16.01674 20.797435 15.722656 20.341797 C 15.428572 19.886159 15.140066 19.413965 14.855469 18.925781 L 13.105469 18.925781 z M 99.679688 18.925781 C 99.195872 19.576692 98.8577 20.162865 98.667969 20.683594 C 98.563616 20.943958 98.451451 21.253327 98.328125 21.611328 C 98.214286 21.969329 98.089843 22.408959 97.957031 22.929688 C 97.814732 22.376413 97.677734 21.822806 97.544922 21.269531 C 97.41211 20.716257 97.283482 20.16265 97.160156 19.609375 C 96.562501 19.902285 95.950333 19.951133 95.324219 19.755859 C 94.707591 19.560586 94.149273 19.935085 93.646484 20.878906 C 93.693917 23.742915 93.720982 26.606694 93.730469 29.470703 C 93.749442 32.334712 93.745257 35.231056 93.716797 38.160156 C 93.669364 44.050903 93.787668 49.648199 94.072266 54.953125 L 97.558594 54.953125 L 97.957031 53.587891 C 97.843192 49.910242 97.776786 46.492857 97.757812 43.335938 C 97.738839 40.146473 97.730469 36.908195 97.730469 33.621094 C 97.910714 33.165456 98.095425 32.725827 98.285156 32.302734 C 98.484375 31.847097 98.683594 31.374902 98.882812 30.886719 C 99.015625 31.439993 99.142299 31.9936 99.265625 32.546875 C 99.398437 33.10015 99.537389 33.653757 99.679688 34.207031 C 99.793527 37.982316 99.801897 41.755965 99.707031 45.53125 C 99.621652 49.273989 99.688059 52.837918 99.90625 56.222656 C 100.28571 56.092474 100.64676 55.994779 100.98828 55.929688 C 101.3298 55.832051 101.66183 55.766921 101.98438 55.734375 C 102.31641 55.669284 102.64425 55.636719 102.9668 55.636719 L 103.97656 55.636719 L 103.97656 27.566406 C 103.87221 26.915495 103.78711 26.280475 103.7207 25.662109 C 103.6543 25.011198 103.6024 24.394414 103.56445 23.808594 C 103.48856 22.604408 103.36412 21.887975 103.19336 21.660156 C 102.88979 21.237064 102.59096 20.797435 102.29688 20.341797 C 102.00279 19.886159 101.71429 19.413965 101.42969 18.925781 L 99.679688 18.925781 z M 36.712891 19.316406 C 36.468611 19.332679 36.209821 19.414092 35.939453 19.560547 C 35.835101 22.750012 35.764509 25.890594 35.726562 28.982422 C 35.698103 32.07425 35.689732 35.149702 35.699219 38.208984 C 35.708705 41.235721 35.73577 44.246043 35.783203 47.240234 C 35.830636 50.234426 35.882534 53.228465 35.939453 56.222656 C 36.650947 56.222656 37.358539 56.092396 38.060547 55.832031 C 38.772041 55.539121 39.440292 55.392578 40.066406 55.392578 C 40.066406 51.617293 40.010323 47.697101 39.896484 43.628906 C 39.782645 39.593257 39.838728 35.801372 40.066406 32.253906 C 40.246651 31.244994 40.512278 30.609974 40.863281 30.349609 C 41.214285 30.12179 41.490235 29.828704 41.689453 29.470703 C 41.898158 28.10379 41.964565 26.607747 41.888672 24.980469 C 41.812779 23.418282 41.883371 22.115677 42.101562 21.074219 C 41.96875 20.748763 41.831752 20.244004 41.689453 19.560547 C 41.262557 19.560547 40.926339 19.821068 40.679688 20.341797 C 40.42355 20.82998 40.1476 21.074219 39.853516 21.074219 C 39.768136 21.464765 39.691406 21.839264 39.625 22.197266 C 39.56808 22.522721 39.507812 22.83209 39.441406 23.125 C 39.356027 22.701908 39.279297 22.245996 39.212891 21.757812 C 39.146485 21.269629 39.084263 20.781152 39.027344 20.292969 C 38.714286 20.130241 38.421595 19.983698 38.146484 19.853516 C 37.88086 19.690788 37.633928 19.560527 37.40625 19.462891 C 37.188059 19.348981 36.95717 19.300133 36.712891 19.316406 z M 50.013672 19.417969 C 49.592112 19.350844 49.157226 19.511797 48.708984 19.902344 C 48.092356 20.390527 47.604631 21.10696 47.244141 22.050781 C 47.130302 22.538965 47.007812 23.157702 46.875 23.90625 C 46.799107 22.4417 46.741071 21.204225 46.703125 20.195312 C 46.001118 20.455677 45.299664 20.504525 44.597656 20.341797 C 43.876676 20.146524 43.216796 20.50474 42.619141 21.416016 C 42.562221 24.01966 42.533203 26.557787 42.533203 29.03125 C 42.533203 32.741444 42.572545 36.370503 42.648438 39.917969 C 42.72433 43.432889 42.828125 47.029383 42.960938 50.707031 C 43.198102 51.585761 43.440849 52.416172 43.6875 53.197266 L 46.361328 53.197266 C 46.408761 51.342169 46.427455 49.534804 46.417969 47.777344 C 46.408482 45.987338 46.381417 44.165644 46.333984 42.310547 C 46.239119 38.730535 46.361608 35.231737 46.703125 31.814453 C 47.082588 31.814453 47.418806 31.505084 47.712891 30.886719 C 48.025948 30.268353 48.225168 30.577722 48.310547 31.814453 C 48.310547 36.110467 48.297991 40.179155 48.269531 44.019531 C 48.250558 47.827362 48.32115 51.714989 48.482422 55.685547 L 52.039062 55.685547 L 52.494141 55.099609 C 52.655413 54.904336 52.817244 54.678333 52.978516 54.417969 C 53.234653 50.479956 53.292689 46.378703 53.150391 42.115234 C 53.017578 37.819221 53.129744 33.978488 53.490234 30.59375 C 53.698939 31.147025 53.904297 31.684349 54.103516 32.205078 C 54.302734 32.693262 54.506139 33.198021 54.714844 33.71875 C 54.819196 37.624217 54.875279 41.350972 54.884766 44.898438 C 54.903739 48.445903 54.914062 52.040444 54.914062 55.685547 C 55.435825 55.978457 55.904856 55.848196 56.322266 55.294922 C 56.730189 54.709102 57.153461 54.417969 57.589844 54.417969 C 57.703683 54.125059 57.821987 53.831973 57.945312 53.539062 L 58.314453 52.5625 C 58.352399 50.577221 58.358538 48.590748 58.330078 46.605469 C 58.311105 44.587644 58.257254 42.554276 58.171875 40.503906 C 58.095982 38.42099 58.035714 36.403905 57.988281 34.451172 C 57.950335 32.498438 57.931641 30.593378 57.931641 28.738281 C 57.760882 27.176094 57.603236 25.826595 57.460938 24.6875 C 57.318639 23.51586 57.123604 22.636601 56.876953 22.050781 C 55.71959 20.81405 54.648714 20.81405 53.662109 22.050781 C 53.472378 22.473874 53.287667 22.880938 53.107422 23.271484 C 52.927177 23.662031 52.755022 24.052813 52.59375 24.443359 C 52.413505 23.824994 52.247489 23.320234 52.095703 22.929688 C 51.953404 22.506595 51.82673 22.164661 51.712891 21.904297 C 51.608538 21.643932 51.494419 21.383411 51.371094 21.123047 C 51.247768 20.830137 51.11914 20.520768 50.986328 20.195312 L 50.701172 19.902344 C 50.615793 19.772162 50.526506 19.658184 50.431641 19.560547 C 50.294085 19.487319 50.154192 19.440344 50.013672 19.417969 z M 29.589844 19.669922 C 29.203265 19.645513 28.804408 19.772191 28.396484 20.048828 C 27.561665 20.602103 26.88309 21.465079 26.361328 22.636719 L 25.806641 24.541016 C 25.740235 24.899017 25.679966 25.224668 25.623047 25.517578 C 25.566127 25.810488 25.512277 26.085339 25.464844 26.345703 C 25.360491 27.387161 25.260881 28.380398 25.166016 29.324219 C 25.07115 30.235494 24.986049 31.114753 24.910156 31.960938 L 24.910156 43.189453 C 25.005022 44.784186 25.156529 45.889447 25.365234 46.507812 C 25.573939 47.061087 25.721261 47.826368 25.806641 48.802734 C 26.176618 50.364921 26.541853 51.651244 26.902344 52.660156 C 27.272321 53.636523 27.629186 54.432416 27.970703 55.050781 C 28.321707 55.441328 28.691128 55.83211 29.080078 56.222656 C 29.706193 56.222656 30.347379 55.736132 31.001953 54.759766 C 31.656528 53.783399 32.167132 52.855293 32.537109 51.976562 C 32.81222 50.577103 33.08817 49.16052 33.363281 47.728516 C 33.638392 46.296511 33.914342 44.833033 34.189453 43.335938 C 34.758648 40.374292 35.042969 37.038319 35.042969 33.328125 C 34.87221 31.473028 34.69587 29.991315 34.515625 28.884766 C 34.344866 27.778217 34.160156 26.752415 33.960938 25.808594 C 33.420202 24.539317 32.899273 23.450338 32.396484 22.539062 C 31.903182 21.627787 31.342912 20.846224 30.716797 20.195312 C 30.351563 19.869857 29.976422 19.694331 29.589844 19.669922 z M 87.564453 19.669922 C 87.177875 19.645513 86.78097 19.772191 86.373047 20.048828 C 85.538227 20.602103 84.859653 21.465079 84.337891 22.636719 L 83.783203 24.541016 C 83.716797 24.899017 83.654576 25.224668 83.597656 25.517578 C 83.540737 25.810488 83.488839 26.085339 83.441406 26.345703 C 83.337054 27.387161 83.237444 28.380398 83.142578 29.324219 C 83.047712 30.235494 82.962611 31.114753 82.886719 31.960938 L 82.886719 43.189453 C 82.981585 44.784186 83.133092 45.889447 83.341797 46.507812 C 83.550502 47.061087 83.697824 47.826368 83.783203 48.802734 C 84.15318 50.364921 84.518416 51.651244 84.878906 52.660156 C 85.248883 53.636523 85.603795 54.432416 85.945312 55.050781 C 86.296316 55.441328 86.667691 55.83211 87.056641 56.222656 C 87.682755 56.222656 88.321988 55.736132 88.976562 54.759766 C 89.631137 53.783399 90.143695 52.855293 90.513672 51.976562 C 90.788783 50.577103 91.064733 49.16052 91.339844 47.728516 C 91.614955 46.296511 91.888951 44.833033 92.164062 43.335938 C 92.733258 40.374292 93.017578 37.038319 93.017578 33.328125 C 92.84682 31.473028 92.672433 29.991315 92.492188 28.884766 C 92.321429 27.778217 92.136718 26.752415 91.9375 25.808594 C 91.396765 24.539317 90.873883 23.450338 90.371094 22.539062 C 89.877791 21.627787 89.317521 20.846224 88.691406 20.195312 C 88.326173 19.869857 87.951032 19.694331 87.564453 19.669922 z M 65.833984 19.71875 C 65.347797 19.710614 64.874162 19.853574 64.414062 20.146484 C 63.512837 20.732304 62.589284 21.318477 61.640625 21.904297 C 61.299108 22.815573 61.104074 24.08366 61.056641 25.710938 C 61.009208 27.30567 60.861886 28.412884 60.615234 29.03125 C 60.985211 29.03125 61.354632 28.949837 61.724609 28.787109 C 62.104073 28.624382 62.494141 28.380143 62.892578 28.054688 C 63.679965 27.403776 64.414622 27.517754 65.097656 28.396484 C 65.183036 28.689394 65.268136 28.998763 65.353516 29.324219 C 65.438895 29.617129 65.530134 29.910215 65.625 30.203125 C 65.643973 30.398398 65.662667 30.642637 65.681641 30.935547 C 65.7101 31.228457 65.737165 31.570391 65.765625 31.960938 C 65.746652 32.253848 65.723772 32.546934 65.695312 32.839844 C 65.676339 33.132754 65.65346 33.42584 65.625 33.71875 C 65.141184 33.295658 64.64732 33.002572 64.144531 32.839844 C 63.651229 32.64457 63.148994 32.57944 62.636719 32.644531 C 61.612167 32.774713 60.709541 33.733432 59.931641 35.523438 C 59.65653 36.076712 59.490513 36.874558 59.433594 37.916016 C 59.405134 38.436745 59.371931 38.941504 59.333984 39.429688 C 59.305525 39.917871 59.272321 40.390065 59.234375 40.845703 C 59.234375 42.049889 59.259208 43.303646 59.306641 44.605469 C 59.36356 45.907291 59.390625 47.012552 59.390625 47.923828 C 59.57087 49.388378 59.728516 50.41418 59.861328 51 C 59.984654 51.58582 60.183873 52.318536 60.458984 53.197266 C 60.809988 53.848177 61.171039 54.336654 61.541016 54.662109 C 61.920479 54.987565 62.242188 55.311263 62.507812 55.636719 C 63.095981 55.929629 63.589845 55.589648 63.988281 54.613281 C 64.396204 53.604369 64.817523 52.969349 65.253906 52.708984 C 65.367745 52.285892 65.467355 51.927676 65.552734 51.634766 L 65.765625 50.902344 L 66.279297 50.902344 L 66.363281 52.367188 L 66.478516 53.832031 C 66.734653 53.832031 66.989956 53.783184 67.246094 53.685547 C 67.502232 53.555365 67.749163 53.425104 67.986328 53.294922 C 68.232979 53.132194 68.469588 53.001934 68.697266 52.904297 C 68.93443 52.774115 69.162668 52.708984 69.380859 52.708984 C 69.342913 50.463341 69.320033 48.314042 69.310547 46.263672 C 69.30106 44.180756 69.294922 42.114823 69.294922 40.064453 C 69.294922 38.014083 69.290737 35.980715 69.28125 33.962891 C 69.28125 31.91252 69.266741 29.844635 69.238281 27.761719 C 69.133929 26.297169 68.982421 25.289603 68.783203 24.736328 C 68.583985 24.117962 68.440848 23.352682 68.355469 22.441406 C 68.165737 22.05086 67.987165 21.676361 67.816406 21.318359 C 67.655134 20.927813 67.493303 20.553314 67.332031 20.195312 C 66.819756 19.88613 66.320172 19.726886 65.833984 19.71875 z M 74.955078 20.195312 C 74.502094 20.244131 74.071986 20.5535 73.664062 21.123047 C 73.256139 21.676321 72.872209 22.295059 72.511719 22.978516 C 72.151228 23.629427 71.810825 24.362142 71.488281 25.175781 C 71.29855 26.119602 71.111886 27.029473 70.931641 27.908203 C 70.760882 28.754388 70.605189 29.633646 70.462891 30.544922 C 70.320592 31.423652 70.198102 32.351758 70.09375 33.328125 C 69.998884 34.271946 69.926339 35.295795 69.878906 36.402344 C 69.878906 38.257441 69.907924 39.90198 69.964844 41.333984 C 70.03125 42.733443 70.064453 44.196921 70.064453 45.726562 C 70.140346 47.581659 70.35826 48.965677 70.71875 49.876953 C 70.898995 50.332591 71.069197 50.83735 71.230469 51.390625 C 71.391741 51.911354 71.539063 52.497526 71.671875 53.148438 C 72.117745 53.506439 72.408203 54.027481 72.541016 54.710938 C 72.683314 55.361849 72.938617 55.685547 73.308594 55.685547 C 73.830356 55.978457 74.361608 55.848196 74.902344 55.294922 C 75.424106 54.709102 75.91797 54.417969 76.382812 54.417969 C 76.648437 53.181237 76.98884 52.529935 77.40625 52.464844 C 77.833146 52.399753 78.094587 51.601907 78.189453 50.072266 C 78.094587 48.802989 77.857979 47.79347 77.478516 47.044922 C 77.108539 46.32892 76.923828 45.500462 76.923828 44.556641 C 76.563338 43.873184 76.179408 43.775488 75.771484 44.263672 C 75.363561 44.751855 75.017019 44.849551 74.732422 44.556641 C 74.580636 44.035912 74.429129 43.498587 74.277344 42.945312 C 74.135045 42.392038 73.987723 41.838431 73.835938 41.285156 L 73.835938 39.478516 C 74.130022 38.27433 74.428851 37.00429 74.732422 35.669922 C 75.102399 35.084102 75.490514 34.939512 75.898438 35.232422 C 76.306361 35.525332 76.648717 35.669922 76.923828 35.669922 C 77.284318 34.140281 77.606027 32.53026 77.890625 30.837891 C 78.175223 29.145522 78.459543 27.647526 78.744141 26.345703 C 78.696708 26.020248 78.659319 25.712832 78.630859 25.419922 C 78.6024 25.094466 78.57952 24.80138 78.560547 24.541016 C 78.010325 23.955196 77.620256 23.271328 77.392578 22.490234 C 77.1649 21.709141 76.828682 21.155534 76.382812 20.830078 C 75.884767 20.358168 75.408063 20.146494 74.955078 20.195312 z M 82.533203 28.054688 C 81.613004 28.054688 80.793246 28.543164 80.072266 29.519531 C 79.967913 29.877532 79.872489 30.252031 79.787109 30.642578 C 79.635324 32.790585 79.521205 34.937931 79.445312 37.085938 C 79.36942 39.201399 79.332031 41.36698 79.332031 43.580078 L 79.332031 56.222656 C 79.844307 55.962292 80.346541 55.734336 80.839844 55.539062 C 81.333146 55.343789 81.808316 55.246094 82.263672 55.246094 C 82.567243 50.461897 82.652343 45.890402 82.519531 41.529297 C 82.453125 39.316199 82.419922 37.103723 82.419922 34.890625 C 82.429408 32.644981 82.466797 30.365422 82.533203 28.054688 z M 30.544922 30.789062 C 30.734654 30.984336 30.921317 31.179727 31.101562 31.375 L 31.640625 31.960938 C 31.887276 33.55567 31.934989 35.051713 31.783203 36.451172 C 31.70731 37.134629 31.62221 37.883627 31.527344 38.697266 C 31.441964 39.478359 31.34654 40.341335 31.242188 41.285156 C 30.98605 41.610612 30.76395 42.196784 30.574219 43.042969 C 30.393974 43.889153 30.072265 44.149674 29.607422 43.824219 C 29.256418 42.620033 29.094587 40.926646 29.123047 38.746094 C 29.151507 36.598087 29.259487 34.548437 29.449219 32.595703 L 29.990234 31.716797 C 30.179966 31.391341 30.364677 31.081973 30.544922 30.789062 z M 88.521484 30.789062 C 88.711216 30.984336 88.895927 31.179727 89.076172 31.375 L 89.617188 31.960938 C 89.863839 33.55567 89.911551 35.051713 89.759766 36.451172 C 89.683873 37.134629 89.598772 37.883627 89.503906 38.697266 C 89.418527 39.478359 89.323102 40.341335 89.21875 41.285156 C 88.962612 41.610612 88.740513 42.196784 88.550781 43.042969 C 88.370536 43.889153 88.046874 44.149674 87.582031 43.824219 C 87.231028 42.620033 87.069196 40.926646 87.097656 38.746094 C 87.126116 36.598087 87.23605 34.548437 87.425781 32.595703 L 87.966797 31.716797 C 88.156529 31.391341 88.341239 31.081973 88.521484 30.789062 z M 64.400391 39.039062 C 64.561663 39.136699 64.727679 39.234395 64.898438 39.332031 C 65.078683 39.429668 65.255023 39.527363 65.425781 39.625 L 65.681641 41.480469 C 65.76702 42.066289 65.856306 42.652461 65.951172 43.238281 C 65.884766 43.563737 65.822545 43.873106 65.765625 44.166016 C 65.718192 44.458926 65.672433 44.735729 65.625 44.996094 C 65.359376 45.289004 65.112444 45.384746 64.884766 45.287109 C 64.666574 45.189473 64.39481 45.287168 64.072266 45.580078 C 63.806641 45.580078 63.621931 45.012141 63.517578 43.873047 C 63.422712 42.799043 63.375 41.789524 63.375 40.845703 L 63.888672 39.966797 C 64.05943 39.641341 64.229632 39.331973 64.400391 39.039062 z "
       transform="translate(0,981.49606)"
       id="text11354" />
    <path
       id="path4147"
       d="m 25.115234,992.26754 c -0.189731,0.32546 -0.376395,0.58598 -0.55664,0.78125 -0.170759,0.19528 -0.34096,0.3581 -0.511719,0.48829 -0.341517,0.26036 -0.563616,0.73255 -0.667969,1.41601 l -0.554687,1.9043 c -0.151786,0.84618 -0.299108,1.59518 -0.441407,2.24609 -0.132812,0.65091 -0.265625,1.21882 -0.398437,1.70702 -0.256138,0.9764 -0.428293,2.3278 -0.513672,4.0527 -0.03795,0.651 -0.07533,1.3185 -0.113281,2.002 -0.02846,0.6509 -0.05748,1.2859 -0.08594,1.9043 -0.09487,0.2278 -0.194475,0.4538 -0.298828,0.6816 -0.09487,0.1953 -0.179966,0.3907 -0.255859,0.586 -0.199218,1.3669 -0.354911,2.7835 -0.46875,4.248 -0.113839,1.4646 -0.217634,2.702 -0.3125,3.711 0.227678,0.6509 0.487166,1.3002 0.78125,1.9511 -0.113839,3.7102 -0.240514,7.1927 -0.382813,10.4473 -0.132812,3.2546 -0.199218,6.3626 -0.199218,9.3242 l 3.826172,0 c 0.04743,-1.9853 0.08064,-3.9535 0.09961,-5.9062 0.01897,-1.9528 0.01897,-3.9047 0,-5.8575 -0.01897,-1.9527 -0.01897,-3.8577 0,-5.7128 0.01897,-1.8877 0.05218,-3.7419 0.09961,-5.5645 0.180245,-0.2278 0.366909,-0.4395 0.556641,-0.6348 0.199218,-0.1952 0.398438,-0.4069 0.597656,-0.6347 0.189732,-1.3669 0.283203,-2.7835 0.283203,-4.2481 0.0095,-1.4971 0.109097,-2.7652 0.298828,-3.8066 l -0.953125,0 c -0.199218,-0.8137 -0.251115,-1.5464 -0.15625,-2.1973 0.104353,-0.6509 0.266184,-1.1882 0.484375,-1.6113 0.218192,-0.4557 0.450615,-0.7976 0.697266,-1.0254 0.246651,-0.2604 0.416853,-0.3906 0.511719,-0.3906 -0.104353,-2.0179 -0.114676,-3.75813 -0.0293,-5.22268 0.08538,-1.52965 0.02511,-3.07649 -0.183594,-4.63868 l -1.152344,0 z m -17.5078121,0.69532 c -0.2608812,-0.0244 -0.5203689,0.086 -0.78125,0.33007 -0.5312489,0.48819 -1.0251126,0.73243 -1.4804688,0.73243 -0.2276781,0.65091 -0.4517304,1.26965 -0.6699219,1.85547 0,7.61567 0.024833,15.00407 0.072266,22.16407 0.05692,7.16 0.085937,14.3836 0.085937,21.6738 0.3604903,-0.1302 0.7050788,-0.1953 1.0371094,-0.1953 0.3320305,-0.033 0.6598779,-0.049 0.9824218,-0.049 l 0.9394532,0 c 0.3130573,-0.033 0.6263957,-0.1303 0.9394531,-0.293 -0.085379,-4.0031 -0.1662948,-7.9233 -0.2421875,-11.7637 -0.066406,-3.8403 -0.1328127,-7.6322 -0.1992188,-11.375 -0.066406,-3.7427 -0.089286,-7.4857 -0.070312,-11.2285 0.018973,-3.7427 0.075056,-7.53461 0.1699219,-11.37498 -0.2608811,-0.29291 -0.522322,-0.45215 -0.7832031,-0.47656 z m 85.4648441,2.4707 -2.857422,5.35744 1.785156,2.1426 6.072266,-5.00004 -5,-2.5 z m -9.535157,3.62109 c -0.161272,1.23675 -0.416574,2.21175 -0.767578,2.92775 -0.36049,0.6834 -0.64481,1.5301 -0.853515,2.5391 0.07589,1.5296 0.297991,2.6694 0.667968,3.4179 0.369977,0.716 0.587891,1.577 0.654297,2.586 0.151786,-0.6184 0.294922,-1.2026 0.427735,-1.7559 0.142298,-0.5533 0.279297,-1.058 0.412109,-1.5137 0.256138,-0.8787 0.465681,-2.0999 0.626953,-3.6621 -0.36049,-1.0089 -0.574219,-1.8393 -0.640625,-2.4902 -0.07589,-0.6509 -0.252233,-1.33284 -0.527344,-2.04885 z m -68.43164,3.36715 c -0.483816,0.651 -0.821987,1.2371 -1.011719,1.7579 -0.104352,0.2603 -0.218471,0.5697 -0.341797,0.9277 -0.113839,0.358 -0.236328,0.7976 -0.369141,1.3183 -0.142298,-0.5532 -0.279297,-1.1068 -0.412109,-1.6601 -0.132812,-0.5533 -0.26144,-1.1069 -0.384765,-1.6602 -0.597655,0.2929 -1.209823,0.3418 -1.835938,0.1465 -0.616628,-0.1953 -1.1768984,0.1792 -1.6796875,1.1231 0.047433,2.864 0.076451,5.7278 0.085937,8.5918 0.018973,2.864 0.014788,5.7603 -0.013672,8.6894 -0.047433,5.8908 0.070871,11.4881 0.3554688,16.793 l 3.4863277,0 0.398437,-1.3652 c -0.113839,-3.6777 -0.180245,-7.0951 -0.199218,-10.252 -0.01897,-3.1895 -0.0293,-6.4277 -0.0293,-9.7148 0.180245,-0.4557 0.366909,-0.8953 0.556641,-1.3184 0.199218,-0.4556 0.398437,-0.9278 0.597656,-1.416 0.132812,0.5533 0.259487,1.1069 0.382812,1.6601 0.132812,0.5533 0.271764,1.1069 0.414063,1.6602 0.113839,3.7753 0.122209,7.5489 0.02734,11.3242 -0.08538,3.7427 -0.01897,7.3067 0.199219,10.6914 0.379464,-0.1302 0.740514,-0.2279 1.082031,-0.293 0.341518,-0.098 0.67355,-0.1627 0.996094,-0.1953 0.332031,-0.065 0.659878,-0.098 0.982422,-0.098 l 1.009766,0 0,-28.0703 c -0.104353,-0.6509 -0.189454,-1.286 -0.25586,-1.9043 -0.06641,-0.6509 -0.118303,-1.2677 -0.15625,-1.8535 -0.07589,-1.2042 -0.200335,-1.9207 -0.371093,-2.1485 -0.303571,-0.4231 -0.602401,-0.8627 -0.896485,-1.3183 -0.294084,-0.4557 -0.58259,-0.9279 -0.867187,-1.4161 l -1.75,0 z m 86.574221,0 c -0.48382,0.651 -0.82199,1.2371 -1.01172,1.7579 -0.10435,0.2603 -0.21652,0.5697 -0.33984,0.9277 -0.11384,0.358 -0.23829,0.7976 -0.371099,1.3183 -0.142299,-0.5532 -0.279297,-1.1068 -0.412109,-1.6601 -0.132812,-0.5533 -0.26144,-1.1069 -0.384766,-1.6602 -0.597655,0.2929 -1.209823,0.3418 -1.835937,0.1465 -0.616628,-0.1953 -1.174946,0.1792 -1.677735,1.1231 0.04743,2.864 0.0745,5.7278 0.08398,8.5918 0.01897,2.864 0.01479,5.7603 -0.01367,8.6894 -0.04743,5.8908 0.07087,11.4881 0.355469,16.793 l 3.486328,0 0.398437,-1.3652 c -0.113839,-3.6777 -0.180245,-7.0951 -0.199219,-10.252 -0.01897,-3.1895 -0.02734,-6.4277 -0.02734,-9.7148 0.180245,-0.4557 0.364961,-0.8953 0.554691,-1.3184 0.19922,-0.4556 0.39843,-0.9278 0.59765,-1.416 0.13282,0.5533 0.25949,1.1069 0.38282,1.6601 0.13281,0.5533 0.27176,1.1069 0.41406,1.6602 0.11384,3.7753 0.12221,7.5489 0.0273,11.3242 -0.0854,3.7427 -0.019,7.3067 0.19922,10.6914 0.37946,-0.1302 0.74051,-0.2279 1.08203,-0.293 0.34152,-0.098 0.67355,-0.1627 0.9961,-0.1953 0.33203,-0.065 0.65987,-0.098 0.98242,-0.098 l 1.00976,0 0,-28.0703 c -0.10435,-0.6509 -0.18945,-1.286 -0.25586,-1.9043 -0.0664,-0.6509 -0.1183,-1.2677 -0.15625,-1.8535 -0.0759,-1.2042 -0.20033,-1.9207 -0.37109,-2.1485 -0.30357,-0.4231 -0.6024,-0.8627 -0.89648,-1.3183 -0.29409,-0.4557 -0.58259,-0.9279 -0.86719,-1.4161 l -1.75,0 z m -62.966799,0.3907 c -0.24428,0.016 -0.50307,0.098 -0.773438,0.2441 -0.104352,3.1895 -0.174944,6.3301 -0.212891,9.4219 -0.02846,3.0918 -0.03683,6.1673 -0.02734,9.2265 0.0095,3.0268 0.03655,6.0371 0.08398,9.0313 0.04743,2.9942 0.09933,5.9882 0.15625,8.9824 0.711494,0 1.419086,-0.1302 2.121094,-0.3906 0.711494,-0.2929 1.379745,-0.4395 2.005859,-0.4395 0,-3.7752 -0.05608,-7.6954 -0.169922,-11.7636 -0.113839,-4.0357 -0.05776,-7.8276 0.169922,-11.375 0.180245,-1.0089 0.445872,-1.644 0.796875,-1.9043 0.351004,-0.2279 0.626954,-0.5209 0.826172,-0.8789 0.208705,-1.367 0.275112,-2.863 0.199219,-4.4903 -0.07589,-1.5622 -0.0053,-2.8648 0.21289,-3.9062 -0.132812,-0.3255 -0.26981,-0.8302 -0.412109,-1.5137 -0.426896,0 -0.763114,0.2605 -1.009765,0.7813 -0.256138,0.4881 -0.532088,0.7324 -0.826172,0.7324 -0.08538,0.3905 -0.16211,0.765 -0.228516,1.123 -0.05692,0.3255 -0.117188,0.6348 -0.183594,0.9278 -0.08538,-0.4231 -0.162109,-0.879 -0.228515,-1.3672 -0.06641,-0.4882 -0.128628,-0.9767 -0.185547,-1.4649 -0.313058,-0.1627 -0.605749,-0.3092 -0.88086,-0.4394 -0.265624,-0.1628 -0.512556,-0.293 -0.740234,-0.3906 -0.218191,-0.114 -0.44908,-0.1628 -0.693359,-0.1465 z m 13.300781,0.1015 c -0.42156,-0.067 -0.856446,0.094 -1.304688,0.4844 -0.616628,0.4882 -1.104353,1.2046 -1.464843,2.1484 -0.113839,0.4882 -0.236329,1.107 -0.369141,1.8555 -0.07589,-1.4645 -0.133929,-2.702 -0.171875,-3.7109 -0.702007,0.2603 -1.403461,0.3092 -2.105469,0.1465 -0.72098,-0.1953 -1.38086,0.1629 -1.978515,1.0742 -0.05692,2.6036 -0.08594,5.1417 -0.08594,7.6152 0,3.7102 0.03934,7.3393 0.115235,10.8867 0.07589,3.5149 0.179687,7.1114 0.3125,10.7891 0.237164,0.8787 0.479911,1.7091 0.726562,2.4902 l 2.673828,0 c 0.04743,-1.8551 0.06613,-3.6624 0.05664,-5.4199 -0.0095,-1.79 -0.03655,-3.6117 -0.08398,-5.4668 -0.09486,-3.58 0.02762,-7.0788 0.369141,-10.4961 0.379463,0 0.715681,-0.3094 1.009766,-0.9277 0.313057,-0.6184 0.512277,-0.309 0.597656,0.9277 0,4.296 -0.01256,8.3647 -0.04102,12.2051 -0.01897,3.8078 0.05162,7.6954 0.212891,11.666 l 3.55664,0 0.455079,-0.5859 c 0.161272,-0.1953 0.323103,-0.4213 0.484375,-0.6817 0.256137,-3.938 0.314173,-8.0392 0.171875,-12.3027 -0.132813,-4.296 -0.02065,-8.1368 0.339843,-11.5215 0.208705,0.5533 0.414063,1.0906 0.613282,1.6113 0.199218,0.4882 0.402623,0.993 0.611328,1.5137 0.104352,3.9055 0.160435,7.6322 0.169922,11.1797 0.01897,3.5475 0.0293,7.142 0.0293,10.7871 0.521763,0.2929 0.990794,0.1627 1.408204,-0.3906 0.407923,-0.5858 0.831195,-0.877 1.267578,-0.877 0.113839,-0.2929 0.232143,-0.586 0.355468,-0.8789 l 0.369141,-0.9765 c 0.03795,-1.9853 0.04409,-3.9718 0.01563,-5.9571 -0.01897,-2.0178 -0.07282,-4.0512 -0.158203,-6.1015 -0.07589,-2.083 -0.136161,-4.1 -0.183594,-6.0528 -0.03795,-1.9527 -0.05664,-3.8578 -0.05664,-5.7129 -0.170759,-1.5621 -0.328405,-2.9116 -0.470703,-4.0507 -0.142299,-1.1717 -0.337334,-2.0509 -0.583985,-2.6368 -1.157363,-1.2367 -2.228239,-1.2367 -3.214844,0 -0.189731,0.4231 -0.374442,0.8302 -0.554687,1.2207 -0.180245,0.3906 -0.3524,0.7814 -0.513672,1.1719 -0.180245,-0.6183 -0.346261,-1.1231 -0.498047,-1.5137 -0.142299,-0.423 -0.268973,-0.765 -0.382812,-1.0253 -0.104353,-0.2604 -0.218472,-0.5209 -0.341797,-0.7813 -0.123326,-0.2929 -0.251954,-0.6023 -0.384766,-0.9277 l -0.285156,-0.293 c -0.08538,-0.1302 -0.174666,-0.2442 -0.269531,-0.3418 -0.137556,-0.073 -0.277449,-0.1202 -0.417969,-0.1426 z m -20.423828,0.252 c -0.386579,-0.024 -0.785436,0.1023 -1.19336,0.3789 -0.834819,0.5533 -1.513394,1.4162 -2.035156,2.5879 l -0.554687,1.9043 c -0.06641,0.358 -0.126675,0.6836 -0.183594,0.9765 -0.05692,0.2929 -0.11077,0.5678 -0.158203,0.8282 -0.104353,1.0414 -0.203963,2.0347 -0.298828,2.9785 -0.09487,0.9113 -0.179967,1.7905 -0.25586,2.6367 l 0,11.2285 c 0.09487,1.5947 0.246373,2.7 0.455078,3.3184 0.208705,0.5532 0.356027,1.3185 0.441407,2.2949 0.369977,1.5622 0.735212,2.8485 1.095703,3.8574 0.369977,0.9764 0.726842,1.7723 1.068359,2.3906 0.351004,0.3906 0.720425,0.7814 1.109375,1.1719 0.626115,0 1.267301,-0.4865 1.921875,-1.4629 0.654575,-0.9763 1.165179,-1.9044 1.535156,-2.7832 0.275111,-1.3994 0.551061,-2.816 0.826172,-4.248 0.275111,-1.432 0.551061,-2.8955 0.826172,-4.3926 0.569195,-2.9616 0.853516,-6.2976 0.853516,-10.0078 -0.170759,-1.8551 -0.347099,-3.3368 -0.527344,-4.4434 -0.170759,-1.1065 -0.355469,-2.1323 -0.554687,-3.0761 -0.540736,-1.2693 -1.061665,-2.3583 -1.564454,-3.2696 -0.493302,-0.9113 -1.053572,-1.6928 -1.679687,-2.3437 -0.365234,-0.3255 -0.740375,-0.501 -1.126953,-0.5254 z m 57.974609,0 c -0.386578,-0.024 -0.783483,0.1023 -1.191406,0.3789 -0.83482,0.5533 -1.513394,1.4162 -2.035156,2.5879 l -0.554688,1.9043 c -0.06641,0.358 -0.128627,0.6836 -0.185547,0.9765 -0.05692,0.2929 -0.108817,0.5678 -0.15625,0.8282 -0.104352,1.0414 -0.203962,2.0347 -0.298828,2.9785 -0.09487,0.9113 -0.179967,1.7905 -0.255859,2.6367 l 0,11.2285 c 0.09487,1.5947 0.246373,2.7 0.455078,3.3184 0.208705,0.5532 0.356027,1.3185 0.441406,2.2949 0.369977,1.5622 0.735213,2.8485 1.095703,3.8574 0.369977,0.9764 0.724889,1.7723 1.066406,2.3906 0.351004,0.3906 0.722379,0.7814 1.111329,1.1719 0.626114,0 1.265347,-0.4865 1.919921,-1.4629 0.654575,-0.9763 1.167133,-1.9044 1.53711,-2.7832 0.275111,-1.3994 0.551061,-2.816 0.826172,-4.248 0.275111,-1.432 0.549107,-2.8955 0.824218,-4.3926 0.569196,-2.9616 0.853516,-6.2976 0.853516,-10.0078 -0.170758,-1.8551 -0.345145,-3.3368 -0.52539,-4.4434 -0.170759,-1.1065 -0.35547,-2.1323 -0.554688,-3.0761 -0.540735,-1.2693 -1.063617,-2.3583 -1.566406,-3.2696 -0.493303,-0.9113 -1.053573,-1.6928 -1.679688,-2.3437 -0.365233,-0.3255 -0.740374,-0.501 -1.126953,-0.5254 z m -21.730469,0.049 c -0.486187,-0.01 -0.959822,0.1348 -1.419922,0.4277 -0.901225,0.5859 -1.824778,1.172 -2.773437,1.7579 -0.341517,0.9112 -0.536551,2.1793 -0.583984,3.8066 -0.04743,1.5947 -0.194755,2.7019 -0.441407,3.3203 0.369977,0 0.739398,-0.081 1.109375,-0.2441 0.379464,-0.1628 0.769532,-0.407 1.167969,-0.7325 0.787387,-0.6509 1.522044,-0.5369 2.205078,0.3418 0.08538,0.293 0.17048,0.6023 0.25586,0.9278 0.08538,0.2929 0.176618,0.586 0.271484,0.8789 0.01897,0.1953 0.03767,0.4395 0.05664,0.7324 0.02846,0.2929 0.05552,0.6349 0.08398,1.0254 -0.01897,0.2929 -0.04185,0.586 -0.07031,0.8789 -0.01897,0.2929 -0.04185,0.586 -0.07031,0.8789 -0.483816,-0.4231 -0.97768,-0.7162 -1.480469,-0.8789 -0.493302,-0.1953 -0.995537,-0.2604 -1.507812,-0.1953 -1.024552,0.1302 -1.927178,1.0889 -2.705078,2.8789 -0.275111,0.5533 -0.441128,1.3511 -0.498047,2.3926 -0.02846,0.5207 -0.06166,1.0255 -0.09961,1.5136 -0.02846,0.4882 -0.06166,0.9604 -0.09961,1.4161 0,1.2041 0.02483,2.4579 0.07227,3.7597 0.05692,1.3019 0.08398,2.4071 0.08398,3.3184 0.180245,1.4645 0.337891,2.4903 0.470703,3.0762 0.123326,0.5858 0.322545,1.3185 0.597656,2.1972 0.351004,0.6509 0.712055,1.1394 1.082032,1.4649 0.379463,0.3254 0.701172,0.6491 0.966796,0.9746 0.588169,0.2929 1.082033,-0.047 1.480469,-1.0235 0.407923,-1.0089 0.829242,-1.6439 1.265625,-1.9043 0.113839,-0.423 0.213449,-0.7813 0.298828,-1.0742 l 0.212891,-0.7324 0.513672,0 0.08398,1.4648 0.115235,1.4649 c 0.256137,0 0.51144,-0.049 0.767578,-0.1465 0.256138,-0.1302 0.503069,-0.2604 0.740234,-0.3906 0.246651,-0.1627 0.48326,-0.293 0.710938,-0.3906 0.237164,-0.1302 0.465402,-0.1954 0.683593,-0.1954 -0.03795,-2.2456 -0.06083,-4.3949 -0.07031,-6.4453 -0.0095,-2.0829 -0.01563,-4.1488 -0.01563,-6.1992 0,-2.0504 -0.0042,-4.0837 -0.01367,-6.1015 0,-2.0504 -0.01451,-4.1183 -0.04297,-6.2012 -0.104352,-1.4646 -0.25586,-2.4721 -0.455078,-3.0254 -0.199218,-0.6184 -0.342355,-1.3837 -0.427734,-2.2949 -0.189732,-0.3906 -0.368304,-0.7651 -0.539063,-1.1231 -0.161272,-0.3905 -0.323103,-0.765 -0.484375,-1.123 -0.512275,-0.3092 -1.011859,-0.4685 -1.498047,-0.4766 z m 9.121094,0.4766 c -0.452984,0.049 -0.883092,0.3582 -1.291016,0.9277 -0.407923,0.5533 -0.791853,1.172 -1.152343,1.8555 -0.360491,0.6509 -0.700894,1.3836 -1.023438,2.1972 -0.189731,0.9439 -0.376395,1.8537 -0.55664,2.7325 -0.170759,0.8461 -0.326452,1.7254 -0.46875,2.6367 -0.142299,0.8787 -0.264789,1.8068 -0.369141,2.7832 -0.09487,0.9438 -0.167411,1.9677 -0.214844,3.0742 0,1.8551 0.02902,3.4996 0.08594,4.9316 0.06641,1.3995 0.09961,2.863 0.09961,4.3926 0.07589,1.8551 0.293807,3.2391 0.654297,4.1504 0.180245,0.4557 0.350447,0.9604 0.511719,1.5137 0.161272,0.5207 0.308594,1.1069 0.441406,1.7578 0.44587,0.358 0.736328,0.879 0.869141,1.5625 0.142298,0.6509 0.397601,0.9746 0.767578,0.9746 0.521762,0.2929 1.053014,0.1627 1.59375,-0.3906 0.521762,-0.5858 1.015626,-0.877 1.480468,-0.877 0.265625,-1.2367 0.606028,-1.888 1.023438,-1.9531 0.426896,-0.065 0.688337,-0.8629 0.783203,-2.3926 -0.09487,-1.2693 -0.331474,-2.2788 -0.710937,-3.0273 -0.369977,-0.716 -0.554688,-1.5445 -0.554688,-2.4883 -0.36049,-0.6835 -0.74442,-0.7812 -1.152344,-0.293 -0.407923,0.4882 -0.754465,0.5859 -1.039062,0.293 -0.151786,-0.5207 -0.303293,-1.0581 -0.455078,-1.6113 -0.142299,-0.5533 -0.289621,-1.1069 -0.441406,-1.6602 l 0,-1.8066 c 0.294084,-1.2042 0.592913,-2.4743 0.896484,-3.8086 0.369977,-0.5858 0.758092,-0.7304 1.166016,-0.4375 0.407923,0.2929 0.750279,0.4375 1.02539,0.4375 0.36049,-1.5297 0.682199,-3.1397 0.966797,-4.832 0.284598,-1.6924 0.568918,-3.1904 0.853516,-4.4922 -0.04743,-0.3255 -0.08482,-0.6329 -0.113282,-0.9258 -0.02846,-0.3255 -0.05134,-0.6186 -0.07031,-0.8789 -0.550222,-0.5858 -0.940291,-1.2697 -1.167969,-2.0508 -0.227678,-0.7811 -0.563896,-1.3347 -1.009766,-1.6602 -0.498045,-0.4719 -0.974749,-0.6835 -1.427734,-0.6347 z m 7.578125,7.8593 c -0.920199,0 -1.739957,0.4885 -2.460937,1.4649 -0.104353,0.358 -0.199777,0.7325 -0.285157,1.123 -0.151785,2.148 -0.265904,4.2954 -0.341797,6.4434 -0.07589,2.1155 -0.113281,4.281 -0.113281,6.4941 l 0,12.6426 c 0.512276,-0.2603 1.01451,-0.4883 1.507813,-0.6836 0.493302,-0.1953 0.968472,-0.2929 1.423828,-0.2929 0.303571,-4.7842 0.388671,-9.3557 0.255859,-13.7168 -0.06641,-2.2131 -0.09961,-4.4256 -0.09961,-6.6387 0.0095,-2.2457 0.04687,-4.5252 0.113281,-6.836 z m -51.988281,2.7344 c 0.189732,0.1953 0.376395,0.3907 0.55664,0.586 l 0.539063,0.5859 c 0.246651,1.5947 0.294364,3.0908 0.142578,4.4902 -0.07589,0.6835 -0.160993,1.4325 -0.255859,2.2461 -0.08538,0.7811 -0.180804,1.6441 -0.285156,2.5879 -0.256138,0.3255 -0.478238,0.9116 -0.667969,1.7578 -0.180245,0.8462 -0.501954,1.1067 -0.966797,0.7813 -0.351004,-1.2042 -0.512835,-2.8976 -0.484375,-5.0781 0.02846,-2.1481 0.13644,-4.1977 0.326172,-6.1504 l 0.541015,-0.8789 c 0.189732,-0.3255 0.374443,-0.6349 0.554688,-0.9278 z m 57.976562,0 c 0.189732,0.1953 0.374443,0.3907 0.554688,0.586 l 0.541016,0.5859 c 0.246651,1.5947 0.294363,3.0908 0.142578,4.4902 -0.07589,0.6835 -0.160994,1.4325 -0.25586,2.2461 -0.08538,0.7811 -0.180804,1.6441 -0.285156,2.5879 -0.256138,0.3255 -0.478237,0.9116 -0.667969,1.7578 -0.180245,0.8462 -0.503907,1.1067 -0.96875,0.7813 -0.351003,-1.2042 -0.512835,-2.8976 -0.484375,-5.0781 0.02846,-2.1481 0.138394,-4.1977 0.328125,-6.1504 l 0.541016,-0.8789 c 0.189732,-0.3255 0.374442,-0.6349 0.554687,-0.9278 z m -24.121093,8.25 c 0.161272,0.098 0.327288,0.1954 0.498047,0.293 0.180245,0.098 0.356585,0.1953 0.527343,0.293 l 0.25586,1.8554 c 0.08538,0.5858 0.174665,1.172 0.269531,1.7578 -0.06641,0.3255 -0.128627,0.6349 -0.185547,0.9278 -0.04743,0.2929 -0.09319,0.5697 -0.140625,0.8301 -0.265624,0.2929 -0.512556,0.3886 -0.740234,0.291 -0.218192,-0.098 -0.489956,0 -0.8125,0.2929 -0.265625,0 -0.450335,-0.5679 -0.554688,-1.707 -0.09487,-1.074 -0.142578,-2.0835 -0.142578,-3.0273 l 0.513672,-0.8789 c 0.170758,-0.3255 0.34096,-0.6349 0.511719,-0.9278 z"
       style="font-style:normal;font-variant:normal;font-weight:normal;font-stretch:normal;font-size:26.35676575px;line-height:125%;font-family:'Stranded BRK';-inkscape-font-specification:'Stranded BRK';letter-spacing:0px;word-spacing:0px;fill:#000000;fill-opacity:1;stroke:none;stroke-width:1px;stroke-linecap:butt;stroke-linejoin:miter;stroke-opacity:1;opacity:0.69;filter:url(#filter4213)"
       inkscape:connector-curvature="0" />
  </g>
</svg>
