<?xml version="1.0" encoding="UTF-8" standalone="no"?>
<!-- Created with Inkscape (http://www.inkscape.org/) -->

<svg
   xmlns:dc="http://purl.org/dc/elements/1.1/"
   xmlns:cc="http://creativecommons.org/ns#"
   xmlns:rdf="http://www.w3.org/1999/02/22-rdf-syntax-ns#"
   xmlns:svg="http://www.w3.org/2000/svg"
   xmlns="http://www.w3.org/2000/svg"
   xmlns:sodipodi="http://sodipodi.sourceforge.net/DTD/sodipodi-0.dtd"
   xmlns:inkscape="http://www.inkscape.org/namespaces/inkscape"
   width="30mm"
   height="20mm"
   viewBox="0 0 106.29921 70.866141"
   id="svg10802"
   version="1.1"
   inkscape:version="0.91 r13725"
   sodipodi:docname="inscripcion.svg">
  <defs
     id="defs10804">
    <filter
       inkscape:collect="always"
       style="color-interpolation-filters:sRGB"
       id="filter4173"
       x="-0.047221653"
       width="1.0944433"
       y="-0.082259791"
       height="1.1645196">
      <feGaussianBlur
         inkscape:collect="always"
         stdDeviation="1.9624193"
         id="feGaussianBlur4175" />
    </filter>
  </defs>
  <sodipodi:namedview
     id="base"
     pagecolor="#ffffff"
     bordercolor="#666666"
     borderopacity="1.0"
     inkscape:pageopacity="0.0"
     inkscape:pageshadow="2"
     inkscape:zoom="2.8"
     inkscape:cx="-0.11020357"
     inkscape:cy="44.826918"
     inkscape:document-units="px"
     inkscape:current-layer="layer1"
     showgrid="false"
     inkscape:window-width="1366"
     inkscape:window-height="710"
     inkscape:window-x="0"
     inkscape:window-y="0"
     inkscape:window-maximized="1" />
  <metadata
     id="metadata10807">
    <rdf:RDF>
      <cc:Work
         rdf:about="">
        <dc:format>image/svg+xml</dc:format>
        <dc:type
           rdf:resource="http://purl.org/dc/dcmitype/StillImage" />
        <dc:title />
      </cc:Work>
    </rdf:RDF>
  </metadata>
  <g
     inkscape:label="Capa 1"
     inkscape:groupmode="layer"
     id="layer1"
     transform="translate(0,-981.49606)">
    <path
       style="font-style:normal;font-variant:normal;font-weight:normal;font-stretch:normal;font-size:27.78652382px;line-height:125%;font-family:'Stranded BRK';-inkscape-font-specification:'Stranded BRK';letter-spacing:0px;word-spacing:0px;fill:#36d020;fill-opacity:1;stroke:none;stroke-width:1px;stroke-linecap:butt;stroke-linejoin:miter;stroke-opacity:1"
       d="M 5.9355469 9.4667969 C 5.6455944 9.4423877 5.3544056 9.5527833 5.0644531 9.796875 C 4.4740044 10.285058 3.9260208 10.529297 3.4199219 10.529297 C 3.1668724 11.180208 2.918287 11.798946 2.6757812 12.384766 C 2.6757812 20.000426 2.7031407 27.388805 2.7558594 34.548828 C 2.8191217 41.708851 2.8515625 48.932451 2.8515625 56.222656 C 3.2522242 56.092474 3.6368289 56.027344 4.0058594 56.027344 C 4.3748899 55.994798 4.7372164 55.978516 5.0957031 55.978516 L 6.140625 55.978516 C 6.488568 55.94597 6.8356507 55.848275 7.1835938 55.685547 C 7.0887002 51.682443 7.0003654 47.762251 6.9160156 43.921875 C 6.8422095 40.081499 6.7671655 36.289614 6.6933594 32.546875 C 6.6195533 28.804136 6.5941469 25.061099 6.6152344 21.318359 C 6.6363218 17.57562 6.6992502 13.783735 6.8046875 9.9433594 C 6.514735 9.6504493 6.2254994 9.491206 5.9355469 9.4667969 z M 87.5 12.652344 L 84.642578 18.009766 L 86.427734 20.152344 L 92.5 15.152344 L 87.5 12.652344 z M 50.324219 15.558594 C 50.144975 16.795325 49.858868 17.770326 49.46875 18.486328 C 49.068088 19.169785 48.753446 20.016478 48.521484 21.025391 C 48.605834 22.555032 48.852466 23.694812 49.263672 24.443359 C 49.674877 25.159362 49.918381 26.020385 49.992188 27.029297 C 50.160887 26.410931 50.319185 25.826712 50.466797 25.273438 C 50.624953 24.720163 50.776216 24.215403 50.923828 23.759766 C 51.208509 22.881036 51.44185 21.659843 51.621094 20.097656 C 51.220432 19.088744 50.982009 18.258333 50.908203 17.607422 C 50.823853 16.956511 50.629987 16.274596 50.324219 15.558594 z M 77.476562 15.558594 C 77.297319 16.795325 77.011212 17.770326 76.621094 18.486328 C 76.220432 19.169785 75.903837 20.016478 75.671875 21.025391 C 75.756225 22.555032 76.00481 23.694812 76.416016 24.443359 C 76.827221 25.159362 77.070725 26.020385 77.144531 27.029297 C 77.313231 26.410931 77.469575 25.826712 77.617188 25.273438 C 77.775343 24.720163 77.92856 24.215403 78.076172 23.759766 C 78.360853 22.881036 78.594194 21.659843 78.773438 20.097656 C 78.372776 19.088744 78.134353 18.258333 78.060547 17.607422 C 77.976197 16.956511 77.782331 16.274596 77.476562 15.558594 z M 14.267578 18.925781 C 13.729848 19.576692 13.355406 20.162865 13.144531 20.683594 C 13.02855 20.943958 12.90074 21.253327 12.763672 21.611328 C 12.637147 21.969329 12.501128 22.408959 12.353516 22.929688 C 12.19536 22.376413 12.042143 21.822806 11.894531 21.269531 C 11.746919 20.716257 11.603865 20.162649 11.466797 19.609375 C 10.802542 19.902285 10.12362 19.951133 9.4277344 19.755859 C 8.7423921 19.560586 8.1193645 19.935085 7.5605469 20.878906 C 7.6132655 23.742915 7.6457063 26.606694 7.65625 29.470703 C 7.6773375 32.334712 7.6722562 35.231056 7.640625 38.160156 C 7.5879064 44.050902 7.7188444 49.648199 8.0351562 54.953125 L 11.910156 54.953125 L 12.353516 53.587891 C 12.226991 49.910243 12.151947 46.492857 12.130859 43.335938 C 12.109772 40.146473 12.099609 36.908195 12.099609 33.621094 C 12.29994 33.165456 12.505922 32.725827 12.716797 32.302734 C 12.938215 31.847097 13.159441 31.374902 13.380859 30.886719 C 13.528472 31.439993 13.671525 31.993601 13.808594 32.546875 C 13.956206 33.100149 14.109422 33.653757 14.267578 34.207031 C 14.394103 37.982316 14.404265 41.755965 14.298828 45.53125 C 14.203935 49.273989 14.277026 52.837918 14.519531 56.222656 C 14.94128 56.092474 15.343082 55.994779 15.722656 55.929688 C 16.10223 55.832051 16.469638 55.766921 16.828125 55.734375 C 17.197155 55.669284 17.561435 55.636719 17.919922 55.636719 L 19.042969 55.636719 L 19.042969 27.566406 C 18.926988 26.915495 18.831619 26.280475 18.757812 25.662109 C 18.684006 25.011198 18.626159 24.394414 18.583984 23.808594 C 18.499635 22.604408 18.363615 21.887975 18.173828 21.660156 C 17.836429 21.237064 17.50459 20.797435 17.177734 20.341797 C 16.850879 19.886159 16.529202 19.413965 16.212891 18.925781 L 14.267578 18.925781 z M 24.378906 18.925781 C 23.93607 19.544147 23.53114 19.983776 23.162109 20.244141 C 22.793079 20.504505 22.549575 20.9767 22.433594 21.660156 L 21.802734 23.613281 C 21.728928 23.938737 21.653884 24.280671 21.580078 24.638672 C 21.516816 24.964127 21.453887 25.304108 21.390625 25.662109 C 21.306275 26.378112 21.221069 27.061979 21.136719 27.712891 C 21.062913 28.363802 20.994903 28.998822 20.931641 29.617188 L 20.931641 31.667969 C 21.026534 32.351425 21.126985 33.019011 21.232422 33.669922 C 21.337859 34.320833 21.448472 34.970183 21.564453 35.621094 C 21.796415 36.564915 22.097766 37.16737 22.466797 37.427734 C 22.846371 37.688099 23.193454 37.932337 23.509766 38.160156 C 23.942058 37.899792 24.296176 38.046335 24.570312 38.599609 C 24.854993 39.152884 25.14931 39.266862 25.455078 38.941406 C 25.560515 40.926685 25.344371 42.050182 24.806641 42.310547 C 24.289998 42.50582 23.857709 42.929167 23.509766 43.580078 C 23.119648 43.872988 22.661952 43.986966 22.134766 43.921875 C 21.649754 43.824238 21.247952 43.905651 20.931641 44.166016 C 20.73131 46.541841 20.489759 48.314688 20.205078 49.486328 C 19.930941 50.625423 19.740203 52.188549 19.634766 54.173828 L 19.634766 56.222656 C 21.184694 55.929746 22.808319 55.231549 24.505859 54.125 C 26.224487 53.018451 27.637049 51.292499 28.744141 48.949219 C 29.060452 46.605939 29.208587 44.084094 29.1875 41.382812 C 29.176956 38.746622 28.950649 36.599277 28.507812 34.939453 C 27.980626 34.613998 27.626509 34.076673 27.447266 33.328125 C 27.28911 32.612123 26.994793 32.253906 26.5625 32.253906 L 26.5625 30.203125 C 26.994793 29.910215 27.346957 29.747389 27.621094 29.714844 C 27.895231 29.649753 28.191501 29.617188 28.507812 29.617188 C 28.602706 29.096459 28.680878 28.607982 28.744141 28.152344 C 28.617616 26.915613 28.644975 25.875481 28.824219 25.029297 C 29.014006 24.150567 29.051528 23.222461 28.935547 22.246094 C 28.566516 21.725365 28.179959 21.269453 27.779297 20.878906 C 27.389179 20.48836 26.98933 20.146426 26.578125 19.853516 C 25.776802 19.23515 25.043161 18.925781 24.378906 18.925781 z M 58.84375 18.925781 C 58.47472 19.576692 58.107312 20.032604 57.738281 20.292969 C 57.390338 20.488242 57.156997 20.879024 57.041016 21.464844 C 56.998841 21.041751 56.968353 20.683535 56.947266 20.390625 C 56.926178 20.097715 56.9039 19.837194 56.882812 19.609375 C 56.155295 19.609375 55.443933 19.64194 54.748047 19.707031 C 54.062705 19.772122 53.419352 19.967513 52.818359 20.292969 C 52.765641 24.16589 52.69255 28.05547 52.597656 31.960938 C 52.502763 35.833859 52.381987 39.756004 52.234375 43.726562 C 52.097307 47.697121 51.991775 51.584748 51.917969 55.392578 C 51.854706 59.200408 51.822266 62.976011 51.822266 66.71875 C 52.73957 66.067839 53.571708 65.839883 54.320312 66.035156 C 55.079461 66.295521 55.855705 66.10013 56.646484 65.449219 C 56.762465 62.617755 56.835556 59.753977 56.867188 56.857422 C 56.898819 53.993413 56.956666 51.29246 57.041016 48.753906 C 57.747445 50.023183 58.601861 51.390919 59.603516 52.855469 C 60.60517 54.320019 61.560036 54.417714 62.466797 53.148438 L 62.972656 51.292969 C 63.1519 50.642058 63.325441 49.990755 63.494141 49.339844 C 63.557403 48.721478 63.620331 48.119023 63.683594 47.533203 L 63.90625 45.677734 C 63.800813 43.627364 63.705444 41.626562 63.621094 39.673828 C 63.547288 37.721095 63.479278 35.76914 63.416016 33.816406 C 63.300035 29.910939 62.98344 26.428423 62.466797 23.369141 C 62.266466 22.848412 62.065565 22.343652 61.865234 21.855469 C 61.664904 21.33474 61.469084 20.813698 61.279297 20.292969 L 60.679688 19.609375 C 60.479357 19.381556 60.273375 19.1536 60.0625 18.925781 L 58.84375 18.925781 z M 97.638672 18.925781 C 97.100942 19.576692 96.7265 20.162865 96.515625 20.683594 C 96.399644 20.943958 96.273787 21.253327 96.136719 21.611328 C 96.010194 21.969329 95.872222 22.408959 95.724609 22.929688 C 95.566453 22.376413 95.413237 21.822806 95.265625 21.269531 C 95.118013 20.716257 94.976912 20.162649 94.839844 19.609375 C 94.175589 19.902285 93.494714 19.951133 92.798828 19.755859 C 92.113486 19.560586 91.490458 19.935085 90.931641 20.878906 C 90.984359 23.742915 91.0168 26.606694 91.027344 29.470703 C 91.048431 32.334712 91.04335 35.231056 91.011719 38.160156 C 90.959 44.050902 91.089938 49.648199 91.40625 54.953125 L 95.28125 54.953125 L 95.724609 53.587891 C 95.598085 49.910243 95.524994 46.492857 95.503906 43.335938 C 95.482819 40.146473 95.470703 36.908195 95.470703 33.621094 C 95.671034 33.165456 95.877016 32.725827 96.087891 32.302734 C 96.309309 31.847097 96.530535 31.374902 96.751953 30.886719 C 96.899565 31.439993 97.042619 31.993601 97.179688 32.546875 C 97.3273 33.100149 97.480516 33.653757 97.638672 34.207031 C 97.765197 37.982316 97.775359 41.755965 97.669922 45.53125 C 97.575028 49.273989 97.648119 52.837918 97.890625 56.222656 C 98.312374 56.092474 98.714176 55.994779 99.09375 55.929688 C 99.473324 55.832051 99.842685 55.766921 100.20117 55.734375 C 100.5702 55.669284 100.93253 55.636719 101.29102 55.636719 L 102.41406 55.636719 L 102.41406 27.566406 C 102.29808 26.915495 102.20467 26.280475 102.13086 25.662109 C 102.05705 25.011198 101.99725 24.394414 101.95508 23.808594 C 101.87073 22.604408 101.73471 21.887975 101.54492 21.660156 C 101.20752 21.237064 100.87568 20.797435 100.54883 20.341797 C 100.22197 19.886159 99.900296 19.413965 99.583984 18.925781 L 97.638672 18.925781 z M 41.369141 19.316406 C 41.09764 19.332679 40.812215 19.414092 40.511719 19.560547 C 40.395738 22.750012 40.317566 25.890594 40.275391 28.982422 C 40.243759 32.07425 40.231644 35.149702 40.242188 38.208984 C 40.252731 41.235721 40.285172 44.246043 40.337891 47.240234 C 40.390609 50.234426 40.448456 53.228465 40.511719 56.222656 C 41.302498 56.222656 42.088905 56.092396 42.869141 55.832031 C 43.65992 55.539121 44.40177 55.392578 45.097656 55.392578 C 45.097656 51.617293 45.034728 47.697101 44.908203 43.628906 C 44.781678 39.593257 44.844607 35.801372 45.097656 32.253906 C 45.297987 31.244994 45.594257 30.609974 45.984375 30.349609 C 46.374493 30.12179 46.680925 29.828704 46.902344 29.470703 C 47.134306 28.10379 47.207397 26.607747 47.123047 24.980469 C 47.038697 23.418282 47.116869 22.115677 47.359375 21.074219 C 47.211763 20.748763 47.0605 20.244004 46.902344 19.560547 C 46.427876 19.560547 46.053434 19.821068 45.779297 20.341797 C 45.494616 20.82998 45.188184 21.074219 44.861328 21.074219 C 44.766435 21.464765 44.681228 21.839264 44.607422 22.197266 C 44.54416 22.522721 44.47615 22.83209 44.402344 23.125 C 44.30745 22.701908 44.224197 22.245996 44.150391 21.757812 C 44.076585 21.269629 44.006622 20.781152 43.943359 20.292969 C 43.595416 20.130241 43.268659 19.983698 42.962891 19.853516 C 42.667666 19.690788 42.393674 19.560527 42.140625 19.462891 C 41.898119 19.348981 41.640642 19.300133 41.369141 19.316406 z M 84.173828 19.669922 C 83.744171 19.645513 83.30299 19.772191 82.849609 20.048828 C 81.921761 20.602103 81.167796 21.465079 80.587891 22.636719 L 79.970703 24.541016 C 79.896897 24.899017 79.828887 25.224668 79.765625 25.517578 C 79.702363 25.810488 79.644516 26.085339 79.591797 26.345703 C 79.475816 27.387161 79.365203 28.380398 79.259766 29.324219 C 79.154328 30.235494 79.058959 31.114753 78.974609 31.960938 L 78.974609 43.189453 C 79.080047 44.784185 79.248507 45.889447 79.480469 46.507812 C 79.712431 47.061087 79.87581 47.826368 79.970703 48.802734 C 80.381909 50.364921 80.788791 51.651244 81.189453 52.660156 C 81.600659 53.636523 81.995426 54.432416 82.375 55.050781 C 82.765118 55.441328 83.177082 55.83211 83.609375 56.222656 C 84.305261 56.222656 85.016623 55.736132 85.744141 54.759766 C 86.471658 53.783399 87.039966 52.855293 87.451172 51.976562 C 87.75694 50.577103 88.063373 49.16052 88.369141 47.728516 C 88.674909 46.296511 88.981341 44.833033 89.287109 43.335938 C 89.919733 40.374292 90.234375 37.038319 90.234375 33.328125 C 90.044588 31.473028 89.850721 29.991315 89.650391 28.884766 C 89.460604 27.778217 89.254621 26.752415 89.033203 25.808594 C 88.432211 24.539317 87.851786 23.450338 87.292969 22.539062 C 86.744695 21.627787 86.12362 20.846224 85.427734 20.195312 C 85.021801 19.869857 84.603485 19.694331 84.173828 19.669922 z M 35.347656 20.195312 C 34.844193 20.244131 34.36549 20.5535 33.912109 21.123047 C 33.458729 21.676321 33.031521 22.295059 32.630859 22.978516 C 32.230198 23.629427 31.850674 24.362142 31.492188 25.175781 C 31.281313 26.119602 31.075331 27.029473 30.875 27.908203 C 30.685213 28.754388 30.511672 29.633646 30.353516 30.544922 C 30.19536 31.423652 30.05934 32.351758 29.943359 33.328125 C 29.837922 34.271946 29.757797 35.295795 29.705078 36.402344 C 29.705078 38.257441 29.737519 39.90198 29.800781 41.333984 C 29.874587 42.733443 29.910156 44.196921 29.910156 45.726562 C 29.994506 47.581659 30.23801 48.965677 30.638672 49.876953 C 30.839003 50.332591 31.027788 50.837351 31.207031 51.390625 C 31.386275 51.911354 31.549653 52.497526 31.697266 53.148438 C 32.192821 53.506439 32.514497 54.027481 32.662109 54.710938 C 32.820265 55.361849 33.106373 55.685547 33.517578 55.685547 C 34.097483 55.978457 34.68807 55.848196 35.289062 55.294922 C 35.868968 54.709102 36.416951 54.417969 36.933594 54.417969 C 37.228818 53.181238 37.608342 52.529935 38.072266 52.464844 C 38.546733 52.399753 38.835969 51.601907 38.941406 50.072266 C 38.835969 48.802989 38.57214 47.79347 38.150391 47.044922 C 37.739185 46.32892 37.533203 45.500462 37.533203 44.556641 C 37.132541 43.873184 36.705333 43.775488 36.251953 44.263672 C 35.798573 44.751855 35.413968 44.849551 35.097656 44.556641 C 34.928957 44.035912 34.760497 43.498587 34.591797 42.945312 C 34.433641 42.392038 34.270262 41.838431 34.101562 41.285156 L 34.101562 39.478516 C 34.428418 38.27433 34.760257 37.00429 35.097656 35.669922 C 35.508862 35.084102 35.941151 34.939512 36.394531 35.232422 C 36.847912 35.525332 37.227435 35.669922 37.533203 35.669922 C 37.933865 34.140281 38.293063 32.53026 38.609375 30.837891 C 38.925687 29.145522 39.242282 27.647525 39.558594 26.345703 C 39.505875 26.020248 39.463272 25.712832 39.431641 25.419922 C 39.400009 25.094466 39.374603 24.80138 39.353516 24.541016 C 38.741979 23.955196 38.30969 23.271328 38.056641 22.490234 C 37.803591 21.709141 37.429149 21.155534 36.933594 20.830078 C 36.380048 20.358168 35.851119 20.146494 35.347656 20.195312 z M 70.160156 20.195312 C 69.656693 20.244131 69.17799 20.5535 68.724609 21.123047 C 68.271229 21.676321 67.844021 22.295059 67.443359 22.978516 C 67.042698 23.629427 66.663174 24.362142 66.304688 25.175781 C 66.093813 26.119602 65.887831 27.029473 65.6875 27.908203 C 65.497713 28.754388 65.324172 29.633646 65.166016 30.544922 C 65.00786 31.423652 64.87184 32.351758 64.755859 33.328125 C 64.650422 34.271946 64.570297 35.295795 64.517578 36.402344 C 64.517578 38.257441 64.550019 39.90198 64.613281 41.333984 C 64.687087 42.733443 64.724609 44.196921 64.724609 45.726562 C 64.808959 47.581659 65.05051 48.965677 65.451172 49.876953 C 65.651503 50.332591 65.842241 50.837351 66.021484 51.390625 C 66.200728 51.911354 66.364107 52.497526 66.511719 53.148438 C 67.007274 53.506439 67.326997 54.027481 67.474609 54.710938 C 67.632765 55.361849 67.918873 55.685547 68.330078 55.685547 C 68.909983 55.978457 69.50057 55.848196 70.101562 55.294922 C 70.681468 54.709102 71.229451 54.417969 71.746094 54.417969 C 72.041318 53.181238 72.420842 52.529935 72.884766 52.464844 C 73.359233 52.399753 73.648469 51.601907 73.753906 50.072266 C 73.648469 48.802989 73.38464 47.79347 72.962891 47.044922 C 72.551685 46.32892 72.347656 45.500462 72.347656 44.556641 C 71.946995 43.873184 71.519787 43.775488 71.066406 44.263672 C 70.613026 44.751855 70.228421 44.849551 69.912109 44.556641 C 69.74341 44.035912 69.572997 43.498587 69.404297 42.945312 C 69.246141 42.392038 69.082762 41.838431 68.914062 41.285156 L 68.914062 39.478516 C 69.240918 38.27433 69.57471 37.00429 69.912109 35.669922 C 70.323315 35.084102 70.755604 34.939512 71.208984 35.232422 C 71.662365 35.525332 72.041888 35.669922 72.347656 35.669922 C 72.748318 34.140281 73.105563 32.53026 73.421875 30.837891 C 73.738187 29.145522 74.054782 27.647525 74.371094 26.345703 C 74.318375 26.020248 74.275772 25.712832 74.244141 25.419922 C 74.212509 25.094466 74.187103 24.80138 74.166016 24.541016 C 73.554479 23.955196 73.12219 23.271328 72.869141 22.490234 C 72.616091 21.709141 72.241649 21.155534 71.746094 20.830078 C 71.192548 20.358168 70.663619 20.146494 70.160156 20.195312 z M 51.429688 28.054688 C 50.406946 28.054687 49.496636 28.543164 48.695312 29.519531 C 48.579331 29.877532 48.4738 30.252031 48.378906 30.642578 C 48.210207 32.790585 48.082397 34.937931 47.998047 37.085938 C 47.913697 39.201399 47.873047 41.36698 47.873047 43.580078 L 47.873047 56.222656 C 48.442408 55.962292 49.000554 55.734336 49.548828 55.539062 C 50.097102 55.343789 50.62476 55.246094 51.130859 55.246094 C 51.468259 50.461897 51.561675 45.890402 51.414062 41.529297 C 51.340256 39.316199 51.304688 37.103723 51.304688 34.890625 C 51.315231 32.644981 51.355881 30.365422 51.429688 28.054688 z M 78.582031 28.054688 C 77.55929 28.054687 76.64898 28.543164 75.847656 29.519531 C 75.731675 29.877532 75.626144 30.252031 75.53125 30.642578 C 75.36255 32.790585 75.23474 34.937931 75.150391 37.085938 C 75.066041 39.201399 75.023438 41.36698 75.023438 43.580078 L 75.023438 56.222656 C 75.592799 55.962292 76.152898 55.734336 76.701172 55.539062 C 77.249446 55.343789 77.777104 55.246094 78.283203 55.246094 C 78.620602 50.461897 78.714018 45.890402 78.566406 41.529297 C 78.4926 39.316199 78.457031 37.103723 78.457031 34.890625 C 78.467575 32.644981 78.508225 30.365422 78.582031 28.054688 z M 58.382812 28.505859 C 58.464526 28.497723 58.543969 28.510423 58.623047 28.542969 C 58.791747 28.575514 58.950044 28.67321 59.097656 28.835938 C 59.245268 28.998665 59.366044 29.242904 59.460938 29.568359 C 59.566375 30.512181 59.608978 31.5217 59.587891 32.595703 C 59.577347 33.637161 59.476896 34.500137 59.287109 35.183594 L 58.685547 35.474609 C 58.485216 35.5397 58.286268 35.621113 58.085938 35.71875 L 57.769531 35.134766 C 57.664094 34.906947 57.563644 34.678991 57.46875 34.451172 C 57.247332 33.539896 57.194566 32.709485 57.310547 31.960938 C 57.437072 31.244935 57.547685 30.235416 57.642578 28.933594 C 57.800734 28.770866 57.964113 28.656888 58.132812 28.591797 C 58.217162 28.542979 58.301099 28.513996 58.382812 28.505859 z M 85.238281 30.789062 C 85.449156 30.984336 85.653185 31.179727 85.853516 31.375 L 86.455078 31.960938 C 86.729215 33.55567 86.781981 35.051713 86.613281 36.451172 C 86.528931 37.134629 86.433562 37.883627 86.328125 38.697266 C 86.233231 39.478359 86.1277 40.341335 86.011719 41.285156 C 85.727038 41.610612 85.480406 42.196784 85.269531 43.042969 C 85.0692 43.889153 84.710002 44.149674 84.193359 43.824219 C 83.803241 42.620033 83.624619 40.926646 83.65625 38.746094 C 83.687881 36.598087 83.808657 34.548437 84.019531 32.595703 L 84.621094 31.716797 C 84.831968 31.391341 85.03795 31.081973 85.238281 30.789062 z "
       transform="translate(0,981.49606)"
       id="text11354" />
    <path
       id="path4147"
       d="m 7.9355469,992.96286 c -0.2899525,-0.0244 -0.5811413,0.086 -0.8710938,0.33007 -0.5904487,0.48819 -1.1384323,0.73243 -1.6445312,0.73243 -0.2530495,0.65091 -0.5016349,1.26965 -0.7441407,1.85547 0,7.61567 0.027359,15.00407 0.080078,22.16407 0.063262,7.16 0.095703,14.3836 0.095703,21.6738 0.4006617,-0.1302 0.7852664,-0.1953 1.1542969,-0.1953 0.3690305,-0.033 0.731357,-0.049 1.0898437,-0.049 l 1.0449219,0 c 0.347943,-0.033 0.6950257,-0.1303 1.0429688,-0.293 -0.094894,-4.0031 -0.1832284,-7.9233 -0.2675782,-11.7637 -0.073806,-3.8403 -0.1488501,-7.6322 -0.2226562,-11.375 -0.073806,-3.7427 -0.099213,-7.4857 -0.078125,-11.2285 0.021087,-3.7427 0.084016,-7.53461 0.1894531,-11.37498 -0.2899525,-0.29291 -0.5791881,-0.45215 -0.8691406,-0.47656 z M 89.5,996.1484 l -2.857422,5.3574 1.785156,2.1426 6.072266,-5 -5,-2.5 z m -37.175781,2.90625 c -0.179244,1.23675 -0.465351,2.21175 -0.855469,2.92775 -0.400662,0.6834 -0.715304,1.5301 -0.947266,2.5391 0.08435,1.5296 0.330982,2.6694 0.742188,3.4179 0.411205,0.716 0.654709,1.577 0.728516,2.586 0.168699,-0.6184 0.326997,-1.2026 0.474609,-1.7559 0.158156,-0.5533 0.309419,-1.058 0.457031,-1.5137 0.284681,-0.8787 0.518022,-2.0999 0.697266,-3.6621 -0.400662,-1.0089 -0.639085,-1.8393 -0.712891,-2.4902 -0.08435,-0.6509 -0.278216,-1.33284 -0.583984,-2.04885 z m 27.152343,0 c -0.179243,1.23675 -0.46535,2.21175 -0.855468,2.92775 -0.400662,0.6834 -0.717257,1.5301 -0.949219,2.5391 0.08435,1.5296 0.332935,2.6694 0.744141,3.4179 0.411205,0.716 0.654709,1.577 0.728515,2.586 0.1687,-0.6184 0.325044,-1.2026 0.472657,-1.7559 0.158155,-0.5533 0.311372,-1.058 0.458984,-1.5137 0.284681,-0.8787 0.518022,-2.0999 0.697266,-3.6621 -0.400662,-1.0089 -0.639085,-1.8393 -0.712891,-2.4902 -0.08435,-0.6509 -0.278216,-1.33284 -0.583985,-2.04885 z m -63.208984,3.36715 c -0.53773,0.651 -0.912172,1.2371 -1.123047,1.7579 -0.115981,0.2603 -0.243791,0.5697 -0.380859,0.9277 -0.126525,0.358 -0.262544,0.7976 -0.410156,1.3183 -0.158156,-0.5532 -0.311373,-1.1068 -0.458985,-1.6601 -0.147612,-0.5533 -0.290666,-1.1069 -0.427734,-1.6602 -0.664255,0.2929 -1.343177,0.3418 -2.039063,0.1465 -0.685342,-0.1953 -1.308369,0.1792 -1.8671871,1.1231 0.052719,2.864 0.085159,5.7278 0.095703,8.5918 0.021088,2.864 0.016006,5.7603 -0.015625,8.6894 -0.052719,5.8908 0.078219,11.4881 0.3945311,16.793 l 3.875,0 0.44336,-1.3652 c -0.126525,-3.6777 -0.201569,-7.0951 -0.222657,-10.252 -0.02109,-3.1895 -0.03125,-6.4277 -0.03125,-9.7148 0.200331,-0.4557 0.406313,-0.8953 0.617188,-1.3184 0.221418,-0.4556 0.442644,-0.9278 0.664062,-1.416 0.147613,0.5533 0.290666,1.1069 0.427735,1.6601 0.147612,0.5533 0.300828,1.1069 0.458984,1.6602 0.126525,3.7753 0.136687,7.5489 0.03125,11.3242 -0.09489,3.7427 -0.0218,7.3067 0.220703,10.6914 0.421749,-0.1302 0.823551,-0.2279 1.203125,-0.293 0.379574,-0.098 0.746982,-0.1627 1.105469,-0.1953 0.36903,-0.065 0.73331,-0.098 1.091797,-0.098 l 1.123047,0 0,-28.0703 c -0.115981,-0.6509 -0.21135,-1.286 -0.285157,-1.9043 -0.07381,-0.6509 -0.131653,-1.2677 -0.173828,-1.8535 -0.08435,-1.2042 -0.220369,-1.9207 -0.410156,-2.1485 -0.337399,-0.4231 -0.669238,-0.8627 -0.996094,-1.3183 -0.326855,-0.4557 -0.648532,-0.9279 -0.964843,-1.4161 l -1.945313,0 z m 10.111328,0 c -0.442836,0.6184 -0.847766,1.058 -1.216797,1.3184 -0.36903,0.2604 -0.612534,0.7326 -0.728515,1.416 l -0.63086,1.9531 c -0.07381,0.3255 -0.14885,0.6674 -0.222656,1.0254 -0.06326,0.3255 -0.126191,0.6655 -0.189453,1.0235 -0.08435,0.716 -0.169556,1.3998 -0.253906,2.0508 -0.07381,0.6509 -0.141816,1.2859 -0.205078,1.9042 l 0,2.0508 c 0.09489,0.6835 0.195344,1.3511 0.300781,2.002 0.105437,0.6509 0.21605,1.3002 0.332031,1.9512 0.231962,0.9438 0.533313,1.5462 0.902344,1.8066 0.379574,0.2604 0.726657,0.5046 1.042969,0.7324 0.432292,-0.2603 0.78641,-0.1138 1.060546,0.4395 0.284681,0.5532 0.578998,0.6672 0.884766,0.3418 0.105437,1.9852 -0.110707,3.1087 -0.648437,3.3691 -0.516643,0.1953 -0.948932,0.6186 -1.296875,1.2695 -0.390118,0.2929 -0.847814,0.4069 -1.375,0.3418 -0.485012,-0.098 -0.886814,-0.016 -1.203125,0.2442 -0.200331,2.3758 -0.441882,4.1486 -0.726563,5.3203 -0.274137,1.1391 -0.464875,2.7022 -0.570312,4.6875 l 0,2.0488 c 1.549928,-0.2929 3.173553,-0.9911 4.871093,-2.0976 1.718628,-1.1066 3.13119,-2.8325 4.238282,-5.1758 0.316311,-2.3433 0.464446,-4.8651 0.443359,-7.5664 -0.01054,-2.6362 -0.236851,-4.7836 -0.679688,-6.4434 -0.527186,-0.3254 -0.881303,-0.8628 -1.060546,-1.6113 -0.158156,-0.716 -0.452473,-1.0742 -0.884766,-1.0742 l 0,-2.0508 c 0.432293,-0.2929 0.784457,-0.4558 1.058594,-0.4883 0.274137,-0.065 0.570407,-0.098 0.886718,-0.098 0.09489,-0.5207 0.173066,-1.0092 0.236329,-1.4648 -0.126525,-1.2367 -0.09917,-2.2769 0.08008,-3.123 0.189787,-0.8788 0.227309,-1.8069 0.111328,-2.7832 -0.369031,-0.5208 -0.755588,-0.9767 -1.15625,-1.3672 -0.390118,-0.3906 -0.789967,-0.7325 -1.201172,-1.0254 -0.801323,-0.6184 -1.534964,-0.9278 -2.199219,-0.9278 z m 34.464844,0 c -0.36903,0.651 -0.736438,1.1069 -1.105469,1.3672 -0.347943,0.1953 -0.581284,0.5861 -0.697265,1.1719 -0.04218,-0.4231 -0.07266,-0.7813 -0.09375,-1.0742 -0.02109,-0.2929 -0.04337,-0.5534 -0.06445,-0.7813 -0.727517,0 -1.438879,0.033 -2.134765,0.098 -0.685342,0.065 -1.328695,0.2605 -1.929688,0.5859 -0.05272,3.8729 -0.125809,7.7625 -0.220703,11.668 -0.09489,3.8729 -0.215669,7.7951 -0.363281,11.7656 -0.137068,3.9706 -0.2426,7.8582 -0.316406,11.666 -0.06326,3.8079 -0.0957,7.5835 -0.0957,11.3262 0.917304,-0.6509 1.749442,-0.8789 2.498046,-0.6836 0.759149,0.2604 1.535393,0.065 2.326172,-0.5859 0.115981,-2.8315 0.189072,-5.6953 0.220704,-8.5918 0.03163,-2.864 0.08948,-5.565 0.173828,-8.1035 0.706429,1.2692 1.560845,2.637 2.5625,4.1015 1.001654,1.4646 1.95652,1.5623 2.863281,0.293 l 0.505859,-1.8555 c 0.179244,-0.6509 0.352785,-1.3022 0.521485,-1.9531 0.06326,-0.6184 0.12619,-1.2208 0.189453,-1.8066 l 0.222656,-1.8555 c -0.105437,-2.0504 -0.200806,-4.0512 -0.285156,-6.0039 -0.07381,-1.9527 -0.141816,-3.9047 -0.205078,-5.8574 -0.115981,-3.9055 -0.432576,-7.388 -0.949219,-10.4473 -0.200331,-0.5207 -0.401232,-1.0255 -0.601563,-1.5137 -0.20033,-0.5207 -0.39615,-1.0417 -0.585937,-1.5625 l -0.599609,-0.6836 c -0.200331,-0.2278 -0.406313,-0.4557 -0.617188,-0.6836 l -1.21875,0 z m 38.794922,0 c -0.53773,0.651 -0.912172,1.2371 -1.123047,1.7579 -0.115981,0.2603 -0.241838,0.5697 -0.378906,0.9277 -0.126525,0.358 -0.264497,0.7976 -0.41211,1.3183 -0.158156,-0.5532 -0.311372,-1.1068 -0.458984,-1.6601 -0.147612,-0.5533 -0.288713,-1.1069 -0.425781,-1.6602 -0.664255,0.2929 -1.34513,0.3418 -2.041016,0.1465 -0.685342,-0.1953 -1.30837,0.1792 -1.867187,1.1231 0.05272,2.864 0.08516,5.7278 0.0957,8.5918 0.02109,2.864 0.01601,5.7603 -0.01563,8.6894 -0.05272,5.8908 0.07822,11.4881 0.394531,16.793 l 3.875,0 0.443359,-1.3652 c -0.126524,-3.6777 -0.199615,-7.0951 -0.220703,-10.252 -0.02109,-3.1895 -0.0332,-6.4277 -0.0332,-9.7148 0.200331,-0.4557 0.406313,-0.8953 0.617188,-1.3184 0.221418,-0.4556 0.442644,-0.9278 0.664062,-1.416 0.147612,0.5533 0.290666,1.1069 0.427735,1.6601 0.147612,0.5533 0.300828,1.1069 0.458984,1.6602 0.126525,3.7753 0.136687,7.5489 0.03125,11.3242 -0.09489,3.7427 -0.0218,7.3067 0.220703,10.6914 0.42175,-0.1302 0.82355,-0.2279 1.20313,-0.293 0.37957,-0.098 0.74894,-0.1627 1.10742,-0.1953 0.36902,-0.065 0.73135,-0.098 1.08985,-0.098 l 1.12304,0 0,-28.0703 c -0.11598,-0.6509 -0.20939,-1.286 -0.2832,-1.9043 -0.0738,-0.6509 -0.13361,-1.2677 -0.17578,-1.8535 -0.0844,-1.2042 -0.22037,-1.9207 -0.41016,-2.1485 -0.3374,-0.4231 -0.66924,-0.8627 -0.99609,-1.3183 -0.32686,-0.4557 -0.64853,-0.9279 -0.96485,-1.4161 l -1.945313,0 z m -56.269531,0.3907 c -0.271501,0.016 -0.556926,0.098 -0.857422,0.2441 -0.115981,3.1895 -0.194153,6.3301 -0.236328,9.4219 -0.03163,3.0918 -0.04375,6.1673 -0.0332,9.2265 0.01054,3.0268 0.04298,6.0371 0.0957,9.0313 0.05272,2.9942 0.110565,5.9882 0.173828,8.9824 0.790779,0 1.577186,-0.1302 2.357422,-0.3906 0.790779,-0.2929 1.532629,-0.4395 2.228515,-0.4395 0,-3.7752 -0.06293,-7.6954 -0.189453,-11.7636 -0.126525,-4.0357 -0.0636,-7.8276 0.189453,-11.375 0.200331,-1.0089 0.496601,-1.644 0.886719,-1.9043 0.390118,-0.2279 0.69655,-0.5209 0.917969,-0.8789 0.231962,-1.367 0.305053,-2.863 0.220703,-4.4903 -0.08435,-1.5622 -0.0062,-2.8648 0.236328,-3.9062 -0.147612,-0.3255 -0.298875,-0.8302 -0.457031,-1.5137 -0.474468,0 -0.84891,0.2605 -1.123047,0.7813 -0.284681,0.4881 -0.591113,0.7324 -0.917969,0.7324 -0.09489,0.3905 -0.1801,0.765 -0.253906,1.123 -0.06326,0.3255 -0.131272,0.6348 -0.205078,0.9278 -0.09489,-0.4231 -0.178147,-0.879 -0.251953,-1.3672 -0.07381,-0.4882 -0.143769,-0.9767 -0.207032,-1.4649 -0.347943,-0.1627 -0.6747,-0.3092 -0.980468,-0.4394 -0.295225,-0.1628 -0.569217,-0.293 -0.822266,-0.3906 -0.242506,-0.114 -0.499983,-0.1628 -0.771484,-0.1465 z m 42.804687,0.3535 c -0.429657,-0.024 -0.870838,0.1023 -1.324219,0.3789 -0.927848,0.5533 -1.681813,1.4162 -2.261718,2.5879 l -0.617188,1.9043 c -0.07381,0.358 -0.141816,0.6836 -0.205078,0.9765 -0.06326,0.2929 -0.121109,0.5678 -0.173828,0.8282 -0.115981,1.0414 -0.226594,2.0347 -0.332031,2.9785 -0.105438,0.9113 -0.200807,1.7905 -0.285157,2.6367 l 0,11.2285 c 0.105438,1.5947 0.273898,2.7 0.50586,3.3184 0.231962,0.5532 0.395341,1.3185 0.490234,2.2949 0.411206,1.5622 0.818088,2.8485 1.21875,3.8574 0.411206,0.9764 0.805973,1.7723 1.185547,2.3906 0.390118,0.3906 0.802082,0.7814 1.234375,1.1719 0.695886,0 1.407248,-0.4865 2.134766,-1.4629 0.727517,-0.9763 1.295825,-1.9044 1.707031,-2.7832 0.305768,-1.3994 0.612201,-2.816 0.917969,-4.248 0.305768,-1.432 0.6122,-2.8955 0.917968,-4.3926 0.632624,-2.9616 0.947266,-6.2976 0.947266,-10.0078 -0.189787,-1.8551 -0.383654,-3.3368 -0.583984,-4.4434 -0.189787,-1.1065 -0.39577,-2.1323 -0.617188,-3.0761 -0.600992,-1.2693 -1.181417,-2.3583 -1.740234,-3.2696 -0.548274,-0.9113 -1.169349,-1.6928 -1.865235,-2.3437 -0.405933,-0.3255 -0.824249,-0.501 -1.253906,-0.5254 z m -48.826172,0.5254 c -0.503463,0.049 -0.982166,0.3582 -1.435547,0.9277 -0.45338,0.5533 -0.880588,1.172 -1.28125,1.8555 -0.400661,0.6509 -0.780185,1.3836 -1.138671,2.1972 -0.210875,0.9439 -0.416857,1.8537 -0.617188,2.7325 -0.189787,0.8461 -0.363328,1.7254 -0.521484,2.6367 -0.158156,0.8787 -0.294176,1.8068 -0.410157,2.7832 -0.105437,0.9438 -0.185562,1.9677 -0.238281,3.0742 0,1.8551 0.03244,3.4996 0.0957,4.9316 0.07381,1.3995 0.109375,2.863 0.109375,4.3926 0.08435,1.8551 0.327854,3.2391 0.728516,4.1504 0.200331,0.4557 0.389116,0.9604 0.568359,1.5137 0.179244,0.5207 0.342622,1.1069 0.490235,1.7578 0.495555,0.358 0.817231,0.879 0.964843,1.5625 0.158156,0.6509 0.444264,0.9746 0.855469,0.9746 0.579905,0.2929 1.170492,0.1627 1.771484,-0.3906 0.579906,-0.5858 1.127889,-0.877 1.644532,-0.877 0.295224,-1.2367 0.674748,-1.888 1.138672,-1.9531 0.474467,-0.065 0.763703,-0.8629 0.86914,-2.3926 -0.105437,-1.2693 -0.369266,-2.2788 -0.791015,-3.0273 -0.411206,-0.716 -0.617188,-1.5445 -0.617188,-2.4883 -0.400662,-0.6835 -0.82787,-0.7812 -1.28125,-0.293 -0.45338,0.4882 -0.837985,0.5859 -1.154297,0.293 -0.168699,-0.5207 -0.337159,-1.0581 -0.505859,-1.6113 -0.158156,-0.5533 -0.321535,-1.1069 -0.490235,-1.6602 l 0,-1.8066 c 0.326856,-1.2042 0.658695,-2.4743 0.996094,-3.8086 0.411206,-0.5858 0.843495,-0.7304 1.296875,-0.4375 0.453381,0.2929 0.832904,0.4375 1.138672,0.4375 0.400662,-1.5297 0.75986,-3.1397 1.076172,-4.832 0.316312,-1.6924 0.632907,-3.1904 0.949219,-4.4922 -0.05272,-0.3255 -0.09532,-0.6329 -0.126953,-0.9258 -0.03163,-0.3255 -0.05704,-0.6186 -0.07813,-0.8789 -0.611537,-0.5858 -1.043826,-1.2697 -1.296875,-2.0508 -0.25305,-0.7811 -0.627492,-1.3347 -1.123047,-1.6602 -0.553546,-0.4719 -1.082475,-0.6835 -1.585938,-0.6347 z m 34.8125,0 c -0.503463,0.049 -0.982166,0.3582 -1.435547,0.9277 -0.45338,0.5533 -0.880588,1.172 -1.28125,1.8555 -0.400661,0.6509 -0.780185,1.3836 -1.138671,2.1972 -0.210875,0.9439 -0.416857,1.8537 -0.617188,2.7325 -0.189787,0.8461 -0.363328,1.7254 -0.521484,2.6367 -0.158156,0.8787 -0.294176,1.8068 -0.410157,2.7832 -0.105437,0.9438 -0.185562,1.9677 -0.238281,3.0742 0,1.8551 0.03244,3.4996 0.0957,4.9316 0.07381,1.3995 0.111328,2.863 0.111328,4.3926 0.08435,1.8551 0.325901,3.2391 0.726563,4.1504 0.200331,0.4557 0.391069,0.9604 0.570312,1.5137 0.179244,0.5207 0.342623,1.1069 0.490235,1.7578 0.495555,0.358 0.815278,0.879 0.96289,1.5625 0.158156,0.6509 0.444264,0.9746 0.855469,0.9746 0.579905,0.2929 1.170492,0.1627 1.771484,-0.3906 0.579906,-0.5858 1.127889,-0.877 1.644532,-0.877 0.295224,-1.2367 0.674748,-1.888 1.138672,-1.9531 0.474467,-0.065 0.763703,-0.8629 0.86914,-2.3926 -0.105437,-1.2693 -0.369266,-2.2788 -0.791015,-3.0273 -0.411206,-0.716 -0.615235,-1.5445 -0.615235,-2.4883 -0.400661,-0.6835 -0.827869,-0.7812 -1.28125,-0.293 -0.45338,0.4882 -0.837985,0.5859 -1.154297,0.293 -0.168699,-0.5207 -0.339112,-1.0581 -0.507812,-1.6113 -0.158156,-0.5533 -0.321535,-1.1069 -0.490235,-1.6602 l 0,-1.8066 c 0.326856,-1.2042 0.660648,-2.4743 0.998047,-3.8086 0.411206,-0.5858 0.843495,-0.7304 1.296875,-0.4375 0.453381,0.2929 0.832904,0.4375 1.138672,0.4375 0.400662,-1.5297 0.757907,-3.1397 1.074219,-4.832 0.316312,-1.6924 0.632907,-3.1904 0.949219,-4.4922 -0.05272,-0.3255 -0.09532,-0.6329 -0.126953,-0.9258 -0.03163,-0.3255 -0.05704,-0.6186 -0.07813,-0.8789 -0.611537,-0.5858 -1.043826,-1.2697 -1.296875,-2.0508 -0.25305,-0.7811 -0.627492,-1.3347 -1.123047,-1.6602 -0.553546,-0.4719 -1.082475,-0.6835 -1.585938,-0.6347 z m -18.730468,7.8593 c -1.022742,0 -1.933052,0.4885 -2.734376,1.4649 -0.115981,0.358 -0.221512,0.7325 -0.316406,1.123 -0.168699,2.148 -0.296509,4.2954 -0.380859,6.4434 -0.08435,2.1155 -0.125,4.281 -0.125,6.4941 l 0,12.6426 c 0.569361,-0.2603 1.127507,-0.4883 1.675781,-0.6836 0.548274,-0.1953 1.075932,-0.2929 1.582031,-0.2929 0.3374,-4.7842 0.430816,-9.3557 0.283203,-13.7168 -0.07381,-2.2131 -0.109374,-4.4256 -0.109374,-6.6387 0.01054,-2.2457 0.05119,-4.5252 0.125,-6.836 z m 27.152343,0 c -1.022741,0 -1.933051,0.4885 -2.734375,1.4649 -0.115981,0.358 -0.221512,0.7325 -0.316406,1.123 -0.1687,2.148 -0.29651,4.2954 -0.380859,6.4434 -0.08435,2.1155 -0.126953,4.281 -0.126953,6.4941 l 0,12.6426 c 0.569361,-0.2603 1.12946,-0.4883 1.677734,-0.6836 0.548274,-0.1953 1.075932,-0.2929 1.582031,-0.2929 0.337399,-4.7842 0.430815,-9.3557 0.283203,-13.7168 -0.07381,-2.2131 -0.109375,-4.4256 -0.109375,-6.6387 0.01054,-2.2457 0.05119,-4.5252 0.125,-6.836 z m -20.199219,0.4512 c 0.08171,-0.01 0.161157,0 0.240235,0.037 0.1687,0.033 0.326997,0.1303 0.474609,0.293 0.147612,0.1627 0.268388,0.407 0.363282,0.7324 0.105437,0.9438 0.14804,1.9534 0.126953,3.0274 -0.01054,1.0414 -0.110995,1.9044 -0.300782,2.5879 l -0.601562,0.291 c -0.200331,0.065 -0.399279,0.1465 -0.599609,0.2441 l -0.316407,-0.584 c -0.105437,-0.2278 -0.205887,-0.4557 -0.300781,-0.6836 -0.221418,-0.9112 -0.274184,-1.7417 -0.158203,-2.4902 0.126525,-0.716 0.237138,-1.7255 0.332031,-3.0273 0.158156,-0.1628 0.321535,-0.2768 0.490234,-0.3418 0.08435,-0.049 0.168287,-0.078 0.25,-0.086 z m 26.855469,2.2832 c 0.210875,0.1953 0.414904,0.3907 0.615235,0.586 l 0.601562,0.5859 c 0.274137,1.5947 0.326903,3.0908 0.158203,4.4902 -0.08435,0.6835 -0.179719,1.4325 -0.285156,2.2461 -0.09489,0.7811 -0.200425,1.6441 -0.316406,2.5879 -0.284681,0.3255 -0.531313,0.9116 -0.742188,1.7578 -0.200331,0.8462 -0.559529,1.1067 -1.076172,0.7813 -0.390118,-1.2042 -0.56874,-2.8976 -0.537109,-5.0781 0.03163,-2.1481 0.152407,-4.1977 0.363281,-6.1504 l 0.601563,-0.8789 c 0.210874,-0.3255 0.416856,-0.6349 0.617187,-0.9278 z"
       style="font-style:normal;font-variant:normal;font-weight:normal;font-stretch:normal;font-size:27.78652382px;line-height:125%;font-family:'Stranded BRK';-inkscape-font-specification:'Stranded BRK';letter-spacing:0px;word-spacing:0px;opacity:0.6800001;fill:#000000;fill-opacity:1;stroke:none;stroke-width:1px;stroke-linecap:butt;stroke-linejoin:miter;stroke-opacity:1;filter:url(#filter4173)"
       inkscape:connector-curvature="0" />
  </g>
</svg>
