<?xml version="1.0" encoding="UTF-8" standalone="no"?>
<!-- Created with Inkscape (http://www.inkscape.org/) -->

<svg
   xmlns:dc="http://purl.org/dc/elements/1.1/"
   xmlns:cc="http://creativecommons.org/ns#"
   xmlns:rdf="http://www.w3.org/1999/02/22-rdf-syntax-ns#"
   xmlns:svg="http://www.w3.org/2000/svg"
   xmlns="http://www.w3.org/2000/svg"
   xmlns:sodipodi="http://sodipodi.sourceforge.net/DTD/sodipodi-0.dtd"
   xmlns:inkscape="http://www.inkscape.org/namespaces/inkscape"
   width="100mm"
   height="80mm"
   viewBox="0 0 354.33071 283.46457"
   id="svg2"
   version="1.1"
   inkscape:version="0.91 r13725"
   sodipodi:docname="ayuntamiento.svg">
  <defs
     id="defs4" />
  <sodipodi:namedview
     id="base"
     pagecolor="#ffffff"
     bordercolor="#666666"
     borderopacity="1.0"
     inkscape:pageopacity="0.0"
     inkscape:pageshadow="2"
     inkscape:zoom="1.4"
     inkscape:cx="133.75573"
     inkscape:cy="185.84612"
     inkscape:document-units="px"
     inkscape:current-layer="layer1"
     showgrid="false"
     inkscape:window-width="1335"
     inkscape:window-height="743"
     inkscape:window-x="31"
     inkscape:window-y="0"
     inkscape:window-maximized="1" />
  <metadata
     id="metadata7">
    <rdf:RDF>
      <cc:Work
         rdf:about="">
        <dc:format>image/svg+xml</dc:format>
        <dc:type
           rdf:resource="http://purl.org/dc/dcmitype/StillImage" />
        <dc:title></dc:title>
      </cc:Work>
    </rdf:RDF>
  </metadata>
  <g
     inkscape:label="Capa 1"
     inkscape:groupmode="layer"
     id="layer1"
     transform="translate(0,-768.89764)">
    <path
       inkscape:connector-curvature="0"
       style="opacity:1;fill:#5d6770;fill-opacity:1;stroke:none"
       id="path62"
       d="m -589.01472,801.1215 c -2.12081,0.6769 -5.23434,3.8807 -5.82094,6.0015 -0.67686,2.4366 -0.63173,6.227 0.13537,7.9868 0.90247,2.166 4.15137,4.9185 8.39299,7.1296 4.82822,2.4818 7.40026,4.9184 8.12224,7.6259 0.63173,2.3013 0.31587,4.9636 -0.81222,6.8587 -0.9476,1.6245 -3.92576,3.0684 -6.22706,3.0233 -4.87335,-0.09 -7.89663,-2.9781 -9.29546,-8.9344 -0.94759,-4.1063 -1.48908,-2.7526 -1.57932,3.7903 -0.0451,5.7307 0.31586,7.5808 0.94759,4.9636 0.36099,-1.3988 0.36099,-1.3988 4.64773,0.045 2.79766,0.9476 4.10625,1.1281 6.27218,0.9476 3.33915,-0.2256 6.85879,-1.9854 8.7991,-4.377 1.7147,-2.0757 2.84279,-5.866 2.4818,-8.3027 -0.72198,-4.2868 -3.06841,-6.6332 -11.2809,-11.1455 -5.45995,-2.9782 -6.72341,-4.5124 -6.76854,-8.4833 -0.0451,-2.9781 0.7671,-4.5575 3.02328,-5.9112 4.24162,-2.6171 9.88207,0.8574 11.32602,6.8588 0.58661,2.6172 0.99272,1.083 0.99272,-3.7001 -0.0451,-4.5575 -0.36099,-5.9563 -0.99272,-4.3319 -0.40611,1.083 -1.39883,1.1732 -3.97087,0.2256 -2.75254,-0.9476 -5.91119,-1.0378 -8.39299,-0.2707 z" />
    <path
       inkscape:connector-curvature="0"
       style="opacity:1;fill:#5d6770;fill-opacity:1;stroke:none"
       id="path70"
       d="m -560.54173,823.9089 c -2.07569,5.3697 -4.33187,11.0553 -5.05385,12.5895 -1.12809,2.5721 -1.3537,2.8428 -2.61717,2.8428 -0.7671,0 -1.39883,0.1354 -1.39883,0.3159 0,0.2256 1.94032,0.361 4.28674,0.4061 2.34643,0.045 4.15137,-0.1354 4.016,-0.3159 -0.13537,-0.2256 -0.72197,-0.4061 -1.3537,-0.4061 -1.62445,0 -1.75982,-1.0378 -0.54149,-4.4221 l 1.12809,-3.0233 3.83551,-0.1354 c 2.70741,-0.09 3.97087,0.045 4.28674,0.4513 0.67685,0.9025 2.39155,6.2722 2.12081,6.7234 -0.13537,0.2256 -1.12809,0.4061 -2.25618,0.4061 -1.26346,0 -1.94032,0.1805 -1.75982,0.4512 0.36099,0.5867 12.86022,0.5867 12.86022,0.045 0,-0.2707 -0.7671,-0.4963 -1.66957,-0.5866 l -1.66957,-0.1353 -4.87335,-12.1834 c -2.70742,-6.7234 -5.09897,-12.3187 -5.27946,-12.4992 -0.13537,-0.1805 -1.98544,4.0611 -4.06112,9.4759 z m 4.42211,2.0306 c 0.81222,2.2562 1.62445,4.4221 1.71469,4.6929 0.1805,0.4512 -0.67685,0.5866 -3.42939,0.5866 -2.16593,0 -3.65501,-0.1805 -3.65501,-0.4513 0,-0.7671 3.2489,-9.0247 3.56476,-9.0247 0.13537,0 0.9476,1.8952 1.80495,4.1965 z" />
    <path
       inkscape:connector-curvature="0"
       style="opacity:1;fill:#5d6770;fill-opacity:1;stroke:none"
       id="path84"
       d="m -542.08619,814.9745 c 0.36099,0.2256 1.12809,0.4512 1.66958,0.4512 2.21105,0 2.43667,1.2183 2.3013,12.9054 l -0.13537,10.7845 -1.66957,0.1354 c -3.38427,0.2707 -1.62445,0.8122 2.57204,0.8122 2.34643,0 4.28674,-0.1805 4.28674,-0.361 0,-0.2256 -0.72198,-0.361 -1.57932,-0.361 -0.90248,0 -1.7147,-0.2707 -1.85007,-0.5866 -0.0903,-0.3159 -0.13537,-4.8282 -0.0903,-10.0174 l 0.13537,-9.4309 6.54292,8.9796 c 6.85879,9.476 8.84423,11.9578 9.52108,11.9578 0.22562,0 0.40611,-5.3697 0.40611,-12.409 l 0,-12.409 1.26346,-0.2707 c 2.34643,-0.4964 2.12081,-0.5415 -2.16593,-0.5415 -2.79766,0.045 -3.65501,0.1353 -2.4818,0.3158 l 1.80495,0.2708 0.13537,8.7991 c 0.0902,5.7307 -0.0451,8.6186 -0.31587,8.3479 -0.27074,-0.2708 -3.2489,-4.3319 -6.67829,-9.0248 l -6.27218,-8.5735 -4.016,-0.1353 c -2.79766,-0.045 -3.8355,0.045 -3.38427,0.361 z" />
    <path
       style="opacity:1;fill:#02529b;fill-opacity:1;stroke:none;stroke-width:5.4000001;stroke-linecap:round;stroke-linejoin:round;stroke-miterlimit:4;stroke-dasharray:none;stroke-opacity:1"
       d="m 110.25551,793.75568 0,54.25391 c 1.80437,-3.42905 5.18854,-10.16253 5.98241,-13.98633 1.15107,-5.54436 2.60796,-9.08234 0.89258,-16.96485 -2.53059,-11.62854 -0.783,-15.27162 5.26758,-22.58789 0.16073,-0.19435 0.42828,-0.48998 0.61914,-0.71484 z m 28.74999,14.82031 c 0,0 2.31159,8.64891 -1.51758,11.96485 1.49229,11.03492 0.3577,2.23297 3.83984,28.57226 30.70383,-3.88337 50.35898,16.87763 66.42774,31.42774 4.35659,3.99598 5.85595,7.19932 11.78515,8.57227 0.1945,0.0378 0.46148,-0.0215 0.71485,-0.0957 l 0,-80.64649 c -81.25,0.20508 0,0 -81.25,0.20508 z m -9.55274,19.64453 c 0,0 -8.99101,27.54717 5.98243,26.78516 2.1933,-0.11162 4.12967,-1.28726 3.57031,-5.98242 -1.91649,-5.24876 -9.55274,-20.80274 -9.55274,-20.80274 z M 118.47034,872.326 c -0.063,19.33188 -0.6802,86.82184 -0.70312,89.32812 46.41797,0.4043 0,0 46.41797,0.4043 l 0,-16.51758 c 0,0 -1.88744,-6.1375 -1.875,-9.55273 -4.53419,-8.70991 -7.21737,-17.96911 -8.66211,-28.125 -2.37309,-0.95781 -7.93626,-2.92805 -10.89258,-5.53711 -2.42809,-2.14288 -3.27852,-2.92197 -5.71485,-7.85547 -6.59452,-7.05958 -13.8797,-12.63475 -18.57031,-22.14453 z m 101.78516,34.18164 c -1.79481,0.67232 -10.45975,3.67643 -16.42774,0.81836 -4.64579,1.36444 -13.62306,3.22356 -20,2.14453 -3.84752,11.86484 -7.95351,21.92038 -12.23242,32.32031 -0.55652,7.99837 -1.23884,16.52072 -3.83984,22.32227 0.30196,5.7854 0.66102,14.0387 0.87109,18.92773 l 51.62891,0 z m -56.07031,3.76562 c 0,0 0.17601,18.28652 1.07031,26.78516 1.57178,4.58457 3.03515,9.91211 3.03515,9.91211 0,0 2.18249,-13.15278 5.53711,-22.76953 0.0511,-5.55785 0.0476,-8.51125 0.35743,-13.30274 -4.2182,0.30323 -10,-0.625 -10,-0.625 z"
       id="rect4297"
       inkscape:connector-curvature="0"
       sodipodi:nodetypes="ccssscccccccccccsccccccccscccccccccccccccc" />
    <text
       xml:space="preserve"
       style="font-style:normal;font-variant:normal;font-weight:normal;font-stretch:normal;font-size:15.73009491px;line-height:125%;font-family:Arial;-inkscape-font-specification:Arial;letter-spacing:0px;word-spacing:0px;fill:#02529b;fill-opacity:1;stroke:none;stroke-width:1px;stroke-linecap:butt;stroke-linejoin:miter;stroke-opacity:1"
       x="107.45109"
       y="999.49683"
       id="text4312"
       sodipodi:linespacing="125%"
       transform="scale(0.99444779,1.0055832)"><tspan
         sodipodi:role="line"
         x="107.45109"
         y="999.49683"
         id="tspan4320">Ayuntamiento de </tspan></text>
    <text
       xml:space="preserve"
       style="font-style:normal;font-variant:normal;font-weight:normal;font-stretch:normal;font-size:25.61565399px;line-height:125%;font-family:Arial;-inkscape-font-specification:Arial;letter-spacing:0px;word-spacing:0px;fill:#02529b;fill-opacity:1;stroke:none;stroke-width:1px;stroke-linecap:butt;stroke-linejoin:miter;stroke-opacity:1"
       x="104.3652"
       y="1023.2434"
       id="text4316"
       sodipodi:linespacing="125%"
       transform="scale(0.99694208,1.0030673)"><tspan
         sodipodi:role="line"
         id="tspan4318"
         x="104.3652"
         y="1023.2434">Las Rozas</tspan></text>
  </g>
</svg>
